<svg width="151" height="151" viewBox="0 0 151 151" fill="none" xmlns="http://www.w3.org/2000/svg">
<g clip-path="url(#clip0_5_3)">
<path d="M150.816 75.36C150.816 117.024 117.024 150.816 75.36 150.816C33.792 150.816 0 117.024 0 75.36C0 33.792 33.792 0 75.36 0C117.024 0 150.816 33.792 150.816 75.36Z" fill="#FDD2B3"/>
<path d="M18.912 125.28C24.192 120.192 28.608 118.656 28.608 118.656L63.264 102.432L76.416 102.336H76.8L89.952 102.432L124.608 118.656C124.608 118.656 128.352 119.904 132.96 124.032C119.136 140.448 98.496 150.816 75.36 150.816C52.896 150.816 32.736 140.928 18.912 125.28Z" fill="#FEFEFE"/>
<path d="M84.576 15.936C84.576 15.936 96.672 10.56 100.992 20.736C105.12 30.624 88.704 39.936 88.704 39.936L84.576 15.936Z" fill="#2C2426"/>
<path d="M61.92 56.64C62.016 61.248 58.464 64.992 53.952 65.088C49.44 65.28 45.6 61.632 45.504 57.12C45.312 52.608 48.96 48.864 53.472 48.672C57.984 48.576 61.824 52.128 61.92 56.64Z" fill="#DA8270"/>
<path d="M49.248 56.16C49.248 56.16 49.632 56.064 50.112 56.064C50.688 56.064 51.36 56.16 52.224 56.736C53.088 57.312 54.048 58.272 55.008 60.096C55.104 60.288 55.392 60.384 55.68 60.288C55.872 60.192 55.968 59.808 55.872 59.616C54.816 57.696 53.76 56.64 52.8 55.872C51.744 55.2 50.88 55.008 50.112 55.008C49.344 55.008 48.864 55.296 48.768 55.296C48.576 55.392 48.48 55.68 48.576 55.968C48.672 56.256 48.96 56.352 49.248 56.16Z" fill="#C05F50"/>
<path d="M91.872 56.928C91.872 61.44 95.616 65.088 100.128 65.088C104.64 65.088 108.288 61.44 108.288 56.928C108.288 52.416 104.64 48.672 100.128 48.672C95.616 48.672 91.872 52.416 91.872 56.928Z" fill="#DA8270"/>
<path d="M104.928 55.2C104.928 55.104 104.448 54.912 103.776 54.912C103.008 54.912 102.144 55.104 101.088 55.872C100.128 56.544 99.072 57.696 98.016 59.616C97.92 59.904 98.016 60.192 98.208 60.288C98.496 60.48 98.784 60.384 98.88 60.096C99.84 58.272 100.8 57.216 101.664 56.64C102.528 56.064 103.2 55.968 103.776 55.968C103.968 55.968 104.256 55.968 104.352 56.064H104.544C104.832 56.16 105.12 56.064 105.216 55.872C105.312 55.584 105.216 55.296 104.928 55.2Z" fill="#C05F50"/>
<path d="M87.456 75.84C87.456 75.84 82.848 79.104 78.624 79.872C74.4 80.736 70.272 78.24 70.176 78.24L65.28 75.36L63.264 102.432L63.84 102.912C70.944 108.768 81.312 108.864 88.512 103.104L89.568 102.24L87.456 75.84Z" fill="#DA8270"/>
<path d="M63.264 72.576C63.264 72.576 67.872 87.648 78.432 87.456C87.168 87.36 88.608 72.576 88.608 72.576H63.264Z" fill="#2C2426"/>
<path d="M99.072 42.624C99.168 51.936 97.824 59.904 96.576 65.568C95.328 71.232 91.68 75.072 86.496 78.24L85.536 78.816C80.16 82.176 73.056 82.272 67.584 79.104C61.92 75.936 57.984 71.712 56.736 65.76C54.528 54.912 54.24 42.816 54.24 42.816C54.24 42.816 51.072 17.76 75.264 18.048C99.456 18.432 99.072 42.624 99.072 42.624Z" fill="#DA8270"/>
<path d="M68.16 50.016C68.16 51.072 67.296 51.936 66.24 51.936C65.184 51.936 64.224 51.072 64.224 50.016C64.224 48.864 65.184 48 66.24 48C67.296 48 68.16 48.864 68.16 50.016Z" fill="#2C2426"/>
<path d="M87.36 50.016C87.36 51.072 86.496 51.936 85.44 51.936C84.384 51.936 83.52 51.072 83.52 50.016C83.52 48.864 84.384 48 85.44 48C86.496 48 87.36 48.864 87.36 50.016Z" fill="#2C2426"/>
<path d="M73.536 52.8V58.272C73.536 58.368 73.632 58.464 73.728 58.56C73.824 58.656 73.92 58.752 74.016 58.752H77.568C77.856 58.752 78.048 58.56 78.048 58.272C78.048 57.984 77.856 57.696 77.568 57.696H74.592V52.8C74.592 52.608 74.304 52.32 74.016 52.32C73.824 52.32 73.536 52.608 73.536 52.8Z" fill="#C05F50"/>
<path d="M58.944 41.664L71.712 40.512C71.712 40.512 70.56 37.248 65.376 37.728C60.096 38.304 58.944 41.664 58.944 41.664Z" fill="#222124"/>
<path d="M91.872 41.664L79.104 40.512C79.104 40.512 80.256 37.248 85.44 37.728C90.72 38.304 91.872 41.664 91.872 41.664Z" fill="#222124"/>
<path d="M69.696 62.688H82.272C82.272 62.688 81.696 66.528 75.84 66.528C69.888 66.528 69.696 62.688 69.696 62.688Z" fill="#FEFEFE"/>
<path d="M55.008 54.72C55.008 54.72 58.656 27.552 56.928 23.04C56.928 23.04 44.736 33.12 55.008 54.72Z" fill="#2C2426"/>
<path d="M98.208 54.528C98.208 54.528 94.176 28.608 95.232 21.12C95.232 21.12 107.04 31.488 98.208 54.528Z" fill="#2C2426"/>
<path d="M94.464 19.296L83.232 17.568L82.272 15.648L76.416 16.512L70.464 15.648L69.504 17.568L58.368 19.296L56.928 25.248L57.216 32.064C57.216 32.064 59.04 24.288 65.184 25.824C66.624 26.208 68.352 26.784 70.368 27.264C72.288 27.648 74.112 27.84 75.744 27.84C75.936 27.84 76.224 27.84 76.416 27.84C76.608 27.84 76.8 27.84 76.992 27.84C78.72 27.84 80.544 27.648 82.368 27.264C84.48 26.784 86.208 26.304 87.648 25.824C93.312 23.904 95.424 31.776 95.424 31.776L95.904 25.248L94.464 19.296Z" fill="#2C2426"/>
<path d="M94.176 26.016C94.176 26.016 86.976 32.544 77.664 27.552C77.664 27.552 54.048 42.144 47.328 26.208C41.76 13.056 64.896 -4.896 88.704 15.264L94.176 26.016Z" fill="#2C2426"/>
<path d="M63.264 102.432L55.488 105.984C55.488 105.984 55.392 119.04 76.512 118.368C98.112 117.6 97.92 106.176 97.92 106.176L89.568 102.24L63.264 102.432Z" fill="#DA8270"/>
</g>
<defs>
<clipPath id="clip0_5_3">
<rect width="150.816" height="150.816" fill="white"/>
</clipPath>
</defs>
</svg>
