<svg width="574" height="543" viewBox="0 0 574 543" fill="none" xmlns="http://www.w3.org/2000/svg">
<path d="M6.84178 235.364C6.62014 234.208 6.50932 233.179 6.50932 232.277C6.50932 230.899 6.6993 229.752 7.07925 228.833C7.4592 227.899 7.92623 227.155 8.48033 226.601C9.03442 226.031 9.75475 225.422 10.6413 224.773C11.4012 224.219 12.0028 223.736 12.4461 223.324C12.8894 222.897 13.2614 222.374 13.5622 221.757C13.863 221.124 14.0134 220.372 14.0134 219.501C14.0134 218.187 13.6176 217.174 12.826 216.461C12.0345 215.733 10.9896 215.369 9.69143 215.369C8.32993 215.369 7.14257 215.733 6.12937 216.461C5.11616 217.174 4.37208 217.997 3.89714 218.931L0.525059 214.324C1.45911 213.168 2.74145 212.179 4.37208 211.356C6.00272 210.517 7.82332 210.097 9.83391 210.097C13.2851 210.097 15.8736 210.857 17.5992 212.377C19.3248 213.881 20.1876 216.05 20.1876 218.883C20.1876 220.023 20.0135 221.005 19.6652 221.828C19.3169 222.636 18.8815 223.316 18.3591 223.87C17.8367 224.409 17.1322 225.042 16.2456 225.77C15.2799 226.546 14.4963 227.25 13.8947 227.884C13.3089 228.517 12.8102 229.332 12.3986 230.33C11.987 231.327 11.7812 232.53 11.7812 233.939V235.364H6.84178ZM6.79428 239.923H12.1611V247H6.79428V239.923Z" fill="#333FC4"/>
<path d="M375.842 89.3639C375.62 88.2082 375.509 87.1792 375.509 86.2768C375.509 84.8995 375.699 83.7517 376.079 82.8335C376.459 81.8994 376.926 81.1554 377.48 80.6013C378.034 80.0313 378.755 79.4218 379.641 78.7727C380.401 78.2186 381.003 77.7358 381.446 77.3242C381.889 76.8967 382.261 76.3743 382.562 75.7569C382.863 75.1236 383.013 74.3716 383.013 73.5009C383.013 72.1869 382.618 71.1737 381.826 70.4613C381.034 69.733 379.99 69.3689 378.691 69.3689C377.33 69.3689 376.143 69.733 375.129 70.4613C374.116 71.1737 373.372 71.9969 372.897 72.931L369.525 68.324C370.459 67.1683 371.741 66.1789 373.372 65.3557C375.003 64.5166 376.823 64.0971 378.834 64.0971C382.285 64.0971 384.874 64.857 386.599 66.3768C388.325 67.8808 389.188 70.0497 389.188 72.8835C389.188 74.0233 389.013 75.0049 388.665 75.8281C388.317 76.6355 387.882 77.3163 387.359 77.8704C386.837 78.4086 386.132 79.0419 385.246 79.7701C384.28 80.5459 383.496 81.2504 382.895 81.8836C382.309 82.5169 381.81 83.3322 381.399 84.3296C380.987 85.3269 380.781 86.5301 380.781 87.9391V89.3639H375.842ZM375.794 93.9234H381.161V101H375.794V93.9234Z" fill="#333FC4"/>
<path d="M264.246 101.026C264.246 101.026 188.958 104.341 149.074 183.064C109.19 261.786 68.0101 237.216 43.6901 308.228C19.3714 379.241 68.4114 459.993 101.285 468.742C134.158 477.49 509.65 468.742 509.65 468.742C509.65 468.742 559.262 434.822 563.153 346.72C567.043 258.616 493.111 229.192 462.47 216.665C431.829 204.141 384.606 99.0811 264.246 101.026Z" fill="#F3F5F4" fill-opacity="0.13"/>
<path d="M372.123 316.324C458.851 257.971 475.669 228.008 518.477 222.436C622.739 208.868 546.346 478.38 307.59 535.972C194.151 563.336 53.6328 488.703 33.5382 430.719C14.1102 374.657 66.4182 353.628 143.654 383.695C220.89 413.763 327.934 346.057 372.123 316.324Z" stroke="#BBC0BE" stroke-width="1.33333" stroke-miterlimit="10"/>
<path d="M477.379 249.781C477.379 257.074 471.467 262.986 464.175 262.986C456.882 262.986 450.968 257.074 450.968 249.781C450.968 242.488 456.882 236.576 464.175 236.576C471.467 236.576 477.379 242.488 477.379 249.781Z" fill="#848EF3"/>
<path d="M472.056 509.25C472.056 516.543 466.144 522.455 458.852 522.455C451.558 522.455 445.645 516.543 445.645 509.25C445.645 501.956 451.558 496.046 458.852 496.046C466.144 496.046 472.056 501.956 472.056 509.25Z" stroke="#BBC0BE" stroke-width="1.33333" stroke-miterlimit="10"/>
<path d="M300.063 208.867C300.063 216.161 294.151 222.073 286.859 222.073C279.564 222.073 273.652 216.161 273.652 208.867C273.652 201.574 279.564 195.662 286.859 195.662C294.151 195.662 300.063 201.574 300.063 208.867Z" stroke="#BBC0BE" stroke-width="1.33333" stroke-miterlimit="10"/>
<path d="M249.49 261.624L236.096 280.268H261.55L249.49 261.624Z" stroke="#BBC0BE" stroke-width="1.33333" stroke-miterlimit="10" stroke-linecap="round" stroke-linejoin="round"/>
<path d="M186.543 498.477L178.123 514.689H203.577L186.543 498.477Z" fill="#DADADA"/>
<path d="M62.3853 293.33C62.3853 307.244 51.1067 318.522 37.192 318.522C23.2787 318.522 12 307.244 12 293.33C12 279.416 23.2787 268.137 37.192 268.137C51.1067 268.137 62.3853 279.416 62.3853 293.33Z" stroke="#BBC0BE" stroke-width="1.33333" stroke-miterlimit="10" stroke-linecap="round" stroke-linejoin="round"/>
<path d="M125.182 293.189C125.182 300.197 119.502 305.877 112.494 305.877C105.487 305.877 99.8071 300.197 99.8071 293.189C99.8071 286.182 105.487 280.502 112.494 280.502C119.502 280.502 125.182 286.182 125.182 293.189Z" fill="#848EF3"/>
<path d="M561.96 66.4299H448.42C441.939 66.4299 436.686 71.6833 436.686 78.1646V146.501C436.686 152.982 441.939 158.235 448.42 158.235H471.531L466.947 170.077C465.62 173.506 469.591 176.543 472.554 174.366L494.5 158.235H561.96C568.44 158.235 573.695 152.982 573.695 146.501V78.1646C573.695 71.6833 568.44 66.4299 561.96 66.4299Z" fill="#8791FF"/>
<path d="M450.08 85.5859H558.688" stroke="white" stroke-width="1.33333" stroke-miterlimit="10" stroke-linecap="round" stroke-linejoin="round"/>
<path d="M450.08 95.4512H558.688" stroke="white" stroke-width="1.33333" stroke-miterlimit="10" stroke-linecap="round" stroke-linejoin="round"/>
<path d="M450.08 105.316H558.688" stroke="white" stroke-width="1.33333" stroke-miterlimit="10" stroke-linecap="round" stroke-linejoin="round"/>
<path d="M450.08 115.182H558.688" stroke="white" stroke-width="1.33333" stroke-miterlimit="10" stroke-linecap="round" stroke-linejoin="round"/>
<path d="M450.08 125.047H558.688" stroke="white" stroke-width="1.33333" stroke-miterlimit="10" stroke-linecap="round" stroke-linejoin="round"/>
<path d="M450.08 134.912H558.688" stroke="white" stroke-width="1.33333" stroke-miterlimit="10" stroke-linecap="round" stroke-linejoin="round"/>
<path d="M206.952 283.659C206.952 283.659 205.796 273.953 204.295 269.332C202.792 264.711 196.437 255.929 196.437 255.929C196.437 255.929 193.896 261.359 197.592 265.865C197.592 265.865 197.361 273.028 197.708 275.572C197.708 275.572 185.697 265.311 183.387 264.271C181.921 263.103 180.132 261.676 177.951 259.936C169.979 253.581 164.663 255.547 165.356 256.008C165.833 256.327 174.952 263.699 180.595 268.269L179.856 269.327C178.143 267.959 175.411 265.777 171.365 262.553C163.392 256.199 158.077 258.163 158.771 258.625C159.351 259.012 172.697 269.821 177.048 273.348L175.764 275.187C174.077 273.841 171.268 271.599 166.975 268.176C159.001 261.821 153.687 263.785 154.38 264.248C154.975 264.644 168.956 275.971 172.955 279.212L171.592 281.163C170.108 279.813 165.987 276.153 162.005 273.376C157.037 269.909 153.456 271.527 153.456 271.527L155.651 273.491C157.845 275.456 169.285 284.467 169.285 284.467C169.285 284.467 186.749 300.067 191.131 301.568L195.404 305.644L211.128 288.625L206.952 283.659Z" fill="#FF9A68"/>
<path d="M332.671 391.4C323.295 404.92 310.18 413.269 292.744 409.721C246.052 400.231 190.92 309.594 190.92 309.594L193.696 306.593L214.274 284.329L285.89 349.408L308.255 317.035L330.098 285.42L340.894 269.796C340.894 269.796 347.216 279.793 351.196 311.572C353.679 331.491 348.434 368.719 332.671 391.4Z" fill="#E2AC7B"/>
<path d="M332.671 391.4C323.295 404.92 310.18 413.269 292.744 409.721C246.052 400.231 190.92 309.595 190.92 309.595L193.696 306.593L195.407 305.643C195.407 305.643 261.106 396.025 288.791 382.581C305.91 374.268 308.659 341.135 308.255 317.035L330.098 285.42L332.671 391.4Z" fill="#D09769"/>
<path d="M508.05 382.581L503.795 457.497H487.298L493.782 382.581H508.05Z" fill="#333FC4"/>
<path d="M407.07 382.581L402.815 457.497H386.318L392.802 382.581H407.07Z" fill="#479275"/>
<path d="M509.739 395.549H379.031C366.039 395.549 355.505 385.017 355.505 372.025V298.911C355.505 285.919 366.039 275.388 379.031 275.388H509.739C522.729 275.388 533.263 285.919 533.263 298.911V372.025C533.263 385.017 522.729 395.549 509.739 395.549Z" fill="#333FC4"/>
<path d="M498.714 395.549H368.006C355.014 395.549 344.481 385.017 344.481 372.025V298.911C344.481 285.919 355.014 275.388 368.006 275.388H498.714C511.705 275.388 522.238 285.919 522.238 298.911V372.025C522.238 385.017 511.705 395.549 498.714 395.549Z" fill="#8791FF"/>
<path d="M400.193 241.656C400.193 241.656 425.972 237.516 460.653 273.395L468.653 457.496H323.709C323.709 457.496 307.883 333.295 326.331 289.125C344.779 244.955 377.915 239.68 400.193 241.656Z" fill="#FFD392"/>
<path d="M349.625 141.809L355.989 133.095L410.245 151.261L409.773 171.639H413.357C420.633 171.639 426.533 177.538 426.533 184.815C426.533 192.091 420.633 197.99 413.357 197.99H409.163L408.526 225.651V249.957L369.245 255.359L368.282 239.102L367.773 230.561L362.073 227.839C345.758 220.054 335.367 203.585 335.367 185.506C335.367 169.793 340.362 154.491 349.625 141.809Z" fill="#FF9A68"/>
<path d="M367.773 230.561L368.282 239.102C369.726 238.93 371.238 238.706 372.808 238.421C397.069 233.998 406.566 212.069 405.58 200.773C405.58 200.773 397.401 227.942 367.773 230.561Z" fill="#ED7B54"/>
<path d="M413.761 181.04C412.745 181.81 411.809 182.827 411.473 184.099C411.473 184.099 413.5 184.774 413.682 187.044C413.866 189.316 411.473 190.298 411.473 190.298C411.473 190.298 413.314 193.367 416.384 191.71C419.453 190.052 418.945 184.267 415.893 183.055C415.893 183.055 420.741 182.503 422.521 184.283C422.521 184.283 422.928 182.498 420.901 180.919C418.813 179.291 415.872 179.442 413.761 181.04Z" fill="#ED7B54"/>
<path d="M349.624 141.809C349.624 141.809 356.971 154.454 366.464 158.546C375.956 162.638 386.104 156.682 395.596 162.114C405.091 167.547 399.035 177.731 401.162 182.623C403.29 187.515 405.65 188.17 405.65 188.17C405.65 188.17 406.927 174.258 409.772 171.639C409.772 171.639 418.298 171.567 420.95 174.051C420.95 174.051 425.712 164.438 426.532 156.909C427.35 149.381 419.002 146.925 419.002 146.925C419.002 146.925 417.039 128.921 394.943 122.211C372.847 115.501 355.988 126.139 347.151 122.211C338.312 118.282 330.292 124.177 329.802 133.095C329.311 142.015 335.367 145.289 335.367 145.289C335.367 145.289 331.274 148.738 332.911 154.051C334.547 159.365 339.684 160.591 339.684 160.591C339.684 160.591 345.732 147.119 349.624 141.809Z" fill="#432918"/>
<path d="M354.025 206.52L376.523 205.416C376.523 205.416 371.313 213.519 363.901 213.44C357.073 213.368 354.025 206.52 354.025 206.52Z" fill="white"/>
<path d="M379.883 169.879C379.601 169.879 379.315 169.784 379.078 169.59C374.331 165.678 369.662 169 369.614 169.036C369.049 169.45 368.255 169.324 367.845 168.76C367.431 168.195 367.554 167.403 368.119 166.99C370.281 165.412 375.689 163.514 380.69 167.634C381.231 168.078 381.307 168.878 380.862 169.418C380.613 169.722 380.249 169.879 379.883 169.879Z" fill="#432918"/>
<path d="M351.905 169.879C351.623 169.879 351.337 169.784 351.101 169.59C346.353 165.678 341.683 169 341.637 169.036C341.071 169.45 340.277 169.324 339.867 168.76C339.453 168.195 339.576 167.403 340.143 166.99C342.304 165.412 347.711 163.514 352.712 167.634C353.253 168.078 353.329 168.878 352.884 169.418C352.635 169.722 352.272 169.879 351.905 169.879Z" fill="#432918"/>
<path d="M415.729 243.578L408.609 234.318L380.33 244.282L375.753 252.227L372.654 245.09L368.359 240.4L363.902 248.995C363.902 248.995 364.035 257.614 374.943 259.903C385.851 262.192 409.687 253.304 415.729 243.578Z" fill="#A48A7A"/>
<path d="M420.95 174.051C420.95 174.051 416.554 172.373 412.379 176.21C408.205 180.049 409.619 183.818 409.619 183.818C409.619 183.818 411.547 179.271 415.679 179.767C419.811 180.265 422.815 191.427 417.295 193.514C411.774 195.602 404.727 192.421 404.974 183.818C405.219 175.217 408.374 170.353 413.575 169.611C418.777 168.871 420.834 173.239 420.95 174.051Z" fill="#5DA78A"/>
<path d="M381.911 217.289C381.379 217.289 380.902 216.912 380.796 216.369C380.679 215.753 381.082 215.158 381.699 215.04C403.087 210.928 410.331 190.786 410.402 190.584C410.607 189.992 411.251 189.678 411.846 189.884C412.439 190.089 412.752 190.734 412.547 191.326C412.471 191.542 404.828 212.902 382.126 217.269C382.054 217.282 381.982 217.289 381.911 217.289Z" fill="#5DA78A"/>
<path d="M377.139 216.544C377.139 219.186 379.281 221.329 381.925 221.329C384.568 221.329 386.712 219.186 386.712 216.544C386.712 213.901 384.568 211.757 381.925 211.757C379.281 211.757 377.139 213.901 377.139 216.544Z" fill="#479275"/>
<path d="M415.14 181.83C415.14 181.83 414.535 187.118 415.696 189.946C416.857 192.774 418.675 191.309 419.029 187.875C419.383 184.441 415.948 179.623 415.14 181.83Z" fill="#479275"/>
<path d="M369.633 180.055C369.633 180.055 369.643 184.99 376.103 185.809C382.561 186.627 383.737 180.055 383.737 180.055C383.737 180.055 380.069 176.617 375.327 176.515C370.584 176.414 369.633 180.055 369.633 180.055Z" fill="white"/>
<path d="M340.122 180.055C340.122 180.055 340.131 184.99 346.451 185.809C352.771 186.627 353.618 180.061 353.618 180.061C353.618 180.061 350.332 176.617 345.692 176.515C341.052 176.414 340.122 180.055 340.122 180.055Z" fill="white"/>
<path d="M353.618 180.061C353.618 180.061 350.233 176.342 346.609 175.674C342.986 175.007 340.499 176.771 340.122 180.061C340.122 180.061 340.841 177.343 344.465 177.01C348.087 176.675 353.618 180.061 353.618 180.061Z" fill="#432918"/>
<path d="M383.738 180.055C383.738 180.055 380.2 176.169 376.414 175.471C372.627 174.774 370.028 176.618 369.634 180.055C369.634 180.055 370.384 177.215 374.171 176.866C377.958 176.518 383.738 180.055 383.738 180.055Z" fill="#432918"/>
<path d="M359.824 180.196L356.845 198.179C356.845 198.179 354.473 198.362 351.189 197.024C351.189 197.024 358.972 182.216 359.824 180.196Z" fill="#ED7B54"/>
<path d="M271.179 457.496C271.179 457.496 270.695 443.136 286.866 438.637C303.038 434.137 322.737 447.295 325.898 457.496H271.179Z" fill="#479275"/>
<path d="M379.885 181.319C379.885 184.151 378.072 186.446 375.834 186.446C373.596 186.446 371.782 184.151 371.782 181.319C371.782 178.488 373.596 176.194 375.834 176.194C378.072 176.194 379.885 178.488 379.885 181.319Z" fill="#432918"/>
<path d="M351.473 181.479C351.473 184.222 349.704 186.446 347.521 186.446C345.339 186.446 343.569 184.222 343.569 181.479C343.569 178.736 345.339 176.512 347.521 176.512C349.704 176.512 351.473 178.736 351.473 181.479Z" fill="#432918"/>
<path d="M393.749 194.14C393.749 196.375 391.103 198.188 387.836 198.188C384.572 198.188 381.925 196.375 381.925 194.14C381.925 191.906 384.572 190.094 387.836 190.094C391.103 190.094 393.749 191.906 393.749 194.14Z" fill="#ED7B54"/>
<path d="M345.475 192.201C345.475 194.435 342.828 196.249 339.563 196.249C336.297 196.249 333.652 194.435 333.652 192.201C333.652 189.966 336.297 188.153 339.563 188.153C342.828 188.153 345.475 189.966 345.475 192.201Z" fill="#ED7B54"/>
<path d="M500.485 411.787C496.393 424.103 488.904 433.417 480.034 440.005C473.99 444.479 467.312 447.684 460.648 449.699C432.822 458.137 329.769 457.491 329.769 457.491L333.646 426.359L449.041 400.421C449.041 400.421 434.116 353.069 434.773 314.816C435.369 279.211 445.988 264.537 457.949 271.469C458.848 272.001 459.748 272.635 460.648 273.395C460.648 273.395 478.868 300.548 497.673 356.315C505.362 379.121 505.224 397.469 500.485 411.787Z" fill="#F3BD87"/>
<path d="M321.925 430.493L297.444 426.032C297.444 426.032 292.945 425.261 288.447 427.207C283.947 429.152 278.84 438.637 278.84 438.637C278.84 438.637 282.975 438.699 285.771 436.176C288.568 433.652 288.932 431.464 288.932 431.464L297.916 432.164L298.076 434.247C295.076 434.904 286.535 436.852 282.367 438.637C277.259 440.827 274.584 447.515 274.584 447.515C274.584 447.515 281.272 446.541 284.676 442.407L298.583 440.829L298.683 442.128C295.816 442.323 290.697 442.965 285.892 445.081C278.719 448.244 276.529 452.5 276.529 452.5C276.529 452.5 283.704 452.5 288.751 448.608L292.148 448.327C288.789 450.479 285.892 455.661 285.892 455.661C285.892 455.661 287.352 456.025 290.635 454.567C293.919 453.108 294.769 451.444 294.769 451.444L304.337 452.16C309.304 452.869 316.821 453.567 321.116 452.135L330.265 453.541L333.136 430.493H321.925Z" fill="#FF9A68"/>
<path d="M525.728 472.562H65.3898C61.2284 472.562 57.8564 469.19 57.8564 465.03C57.8564 460.869 61.2284 457.496 65.3898 457.496H525.728C529.89 457.496 533.262 460.869 533.262 465.03C533.262 469.19 529.89 472.562 525.728 472.562Z" fill="#333FC4"/>
<path d="M349.265 472.562H62.3755C59.8795 472.562 57.8555 469.19 57.8555 465.031C57.8555 460.869 59.8795 457.496 62.3755 457.496H205.821H349.265C351.761 457.496 353.785 460.869 353.785 465.031C353.785 469.19 351.761 472.562 349.265 472.562Z" fill="#3C48D3"/>
<path d="M262.511 428.463H103.977C98.6295 428.463 94.0015 424.745 92.8521 419.522L72.3601 326.455C71.3548 321.89 74.8308 317.567 79.5041 317.567H239.825C244.564 317.567 248.665 320.863 249.684 325.491L270.24 418.847C271.327 423.786 267.567 428.463 262.511 428.463Z" fill="#8791FF"/>
<path d="M129.975 412.701C128.651 419.369 120.868 423.443 112.591 421.801C104.313 420.158 98.6774 413.419 100.001 406.75C101.325 400.081 109.108 396.006 117.385 397.65C125.663 399.293 131.299 406.031 129.975 412.701Z" fill="#636FEF"/>
<path d="M270.24 418.848L249.684 325.491C248.666 320.864 244.564 317.568 239.826 317.568H230.584C235.324 317.568 239.424 320.864 240.443 325.491L260.999 418.848C262.086 423.787 258.326 428.464 253.27 428.464H262.511C267.568 428.464 271.327 423.787 270.24 418.848Z" fill="#333FC4"/>
<path d="M242.805 453.758C242.805 455.823 241.137 457.491 239.071 457.491H107.467C105.357 457.491 103.439 456.629 102.054 455.245C100.658 453.859 99.8062 451.953 99.8062 449.831C99.8062 448.322 100.261 446.846 101.101 445.586L133.673 396.786C134.603 395.413 136.146 394.583 137.803 394.583H194.753C196.795 394.583 198.078 396.797 197.046 398.567L169.547 446.074C168.526 447.834 169.797 450.023 171.817 450.023H239.071C240.103 450.023 241.034 450.445 241.715 451.125C242.385 451.794 242.805 452.726 242.805 453.758Z" fill="#3F4CDE"/>
<path d="M203.733 372.367H122.993C122.053 372.367 121.291 371.606 121.291 370.666C121.291 369.726 122.053 368.962 122.993 368.962H203.733C204.673 368.962 205.436 369.726 205.436 370.666C205.436 371.606 204.673 372.367 203.733 372.367Z" fill="#3F4CDE"/>
<path d="M207.624 382.581H126.884C125.944 382.581 125.182 381.819 125.182 380.879C125.182 379.939 125.944 379.177 126.884 379.177H207.624C208.564 379.177 209.327 379.939 209.327 380.879C209.327 381.819 208.564 382.581 207.624 382.581Z" fill="#3F4CDE"/>
<path d="M74.0328 323.079H245.009C246.399 323.079 247.735 323.337 248.969 323.795C247.43 320.079 243.781 317.567 239.643 317.567H79.3235C75.7648 317.567 72.9075 320.075 72.1875 323.286C72.7768 323.154 73.3942 323.079 74.0328 323.079Z" fill="#83C7AB"/>
<path d="M249.68 412.701C248.356 419.369 240.574 423.443 232.296 421.801C224.019 420.158 218.383 413.419 219.707 406.75C221.031 400.081 228.814 396.006 237.091 397.65C245.368 399.293 251.004 406.031 249.68 412.701Z" fill="#636FEF"/>
<path d="M242.795 454.03C242.655 456.017 240.864 457.491 238.871 457.491H163.975C160.951 457.491 158.499 455.041 158.499 452.015C158.499 450.982 158.792 449.969 159.344 449.094L193.754 394.583H194.752C196.795 394.583 198.078 396.797 197.046 398.567L169.547 446.074C168.526 447.834 169.796 450.023 171.816 450.023H239.071C240.103 450.023 241.035 450.445 241.715 451.125C242.443 451.853 242.876 452.89 242.795 454.03Z" fill="#333FC4"/>
<path d="M460.648 449.698C432.822 458.137 329.769 457.492 329.769 457.492L462.917 422.061C476.841 418.357 485.706 404.733 483.444 390.505C477.592 353.722 466.265 287.724 457.949 271.469C458.848 272.002 459.748 272.634 460.648 273.394C460.648 273.394 478.868 300.549 497.673 356.314C516.476 412.092 488.485 441.273 460.648 449.698Z" fill="#E2AC7B"/>
<path d="M452.795 401.726C452.795 401.726 471.834 401.458 487.295 415.576" stroke="#A48A7A" stroke-width="1.33333" stroke-miterlimit="10" stroke-linecap="round" stroke-linejoin="round"/>
<path d="M412.959 246.9C412.959 246.9 438.011 255.419 450.347 270.024" stroke="#F3BD87" stroke-width="1.33333" stroke-miterlimit="10" stroke-linecap="round" stroke-linejoin="round"/>
<path d="M288.254 353.667C288.254 353.667 302.087 371.587 303.861 392.223" stroke="#A48A7A" stroke-width="1.33333" stroke-miterlimit="10" stroke-linecap="round" stroke-linejoin="round"/>
<path d="M359.815 249.126C359.815 249.126 354.555 263.884 376.523 265.694C398.492 267.504 422.571 245.953 422.571 245.953" stroke="#F3BD87" stroke-width="1.33333" stroke-miterlimit="10" stroke-linecap="round" stroke-linejoin="round"/>
<path d="M329.769 430.494L324.625 452.675L330.265 453.542L333.136 430.494H329.769Z" fill="#ED7B54"/>
<path d="M374.944 259.903C374.944 259.903 368.43 278.463 363.902 326.463" stroke="#F3BD87" stroke-width="1.33333" stroke-miterlimit="10" stroke-linecap="round" stroke-linejoin="round"/>
<path d="M417.014 147.13C417.014 147.13 406.754 144.702 397.468 148.272" stroke="#5B3C2A" stroke-width="1.33333" stroke-miterlimit="10" stroke-linecap="round" stroke-linejoin="round"/>
<path d="M349.624 141.809C349.624 141.809 348.59 156.835 367.599 158.982" stroke="#5B3C2A" stroke-width="1.33333" stroke-miterlimit="10" stroke-linecap="round" stroke-linejoin="round"/>
<path d="M418.705 137.225C418.705 137.225 420.918 143.197 419.002 146.925" stroke="#5B3C2A" stroke-width="1.33333" stroke-miterlimit="10" stroke-linecap="round" stroke-linejoin="round"/>
<path d="M332.61 131.129C332.61 131.129 331.753 140.357 341.182 143.987" stroke="#5B3C2A" stroke-width="1.33333" stroke-miterlimit="10" stroke-linecap="round" stroke-linejoin="round"/>
<path d="M336.038 148.273C336.038 148.273 334.289 155.179 340.806 158.155" stroke="#5B3C2A" stroke-width="1.33333" stroke-miterlimit="10" stroke-linecap="round" stroke-linejoin="round"/>
<path d="M366.468 124.701C366.468 124.701 378.627 119.369 395.896 127.129C411.474 134.129 412.959 142.844 412.959 142.844" stroke="#5B3C2A" stroke-width="1.33333" stroke-miterlimit="10" stroke-linecap="round" stroke-linejoin="round"/>
<path d="M418.705 150.845C418.705 150.845 422.134 152.463 422.134 157.321C422.134 162.178 419.784 167.13 419.784 167.13" stroke="#5B3C2A" stroke-width="1.33333" stroke-miterlimit="10" stroke-linecap="round" stroke-linejoin="round"/>
<path d="M361.61 149.129C361.61 149.129 364.036 155.559 378.181 156.272C392.325 156.987 396.897 156.987 400.753 161.559C404.61 166.129 403.325 171.129 403.325 171.129" stroke="#5B3C2A" stroke-width="1.33333" stroke-miterlimit="10" stroke-linecap="round" stroke-linejoin="round"/>
<path d="M356.313 -0.000261379H227.588C220.133 -0.000261379 214.09 6.04241 214.09 13.4984V35.5371C214.09 42.9917 220.133 49.0344 227.588 49.0344H244.637L240.67 62.7344C239.932 65.2851 242.742 67.3931 244.984 65.9704L271.677 49.0344H356.313C363.768 49.0344 369.812 42.9917 369.812 35.5371V13.4984C369.812 6.04241 363.768 -0.000261379 356.313 -0.000261379Z" fill="#8791FF"/>
<path d="M231.596 13.1929H353.056" stroke="white" stroke-width="1.33333" stroke-miterlimit="10" stroke-linecap="round" stroke-linejoin="round"/>
<path d="M231.596 23.498H353.056" stroke="white" stroke-width="1.33333" stroke-miterlimit="10" stroke-linecap="round" stroke-linejoin="round"/>
<path d="M231.596 33.8042H353.056" stroke="white" stroke-width="1.33333" stroke-miterlimit="10" stroke-linecap="round" stroke-linejoin="round"/>
<path d="M256.195 133.645C256.195 194.173 207.127 243.243 146.597 243.243C86.068 243.243 37 194.173 37 133.645C37 73.116 86.068 24.048 146.597 24.048C207.127 24.048 256.195 73.116 256.195 133.645Z" stroke="#BBC0BE" stroke-width="1.33333" stroke-miterlimit="10"/>
<path d="M249.238 133.636C249.238 171.94 228.256 205.341 197.161 222.979C193.676 224.956 190.065 226.743 186.352 228.301C174.125 233.445 160.693 236.283 146.604 236.283C145.666 236.283 144.741 236.271 143.816 236.245C143.246 236.232 142.676 236.207 142.105 236.169C141.7 236.169 141.308 236.157 140.902 236.119C140.294 236.093 139.685 236.055 139.09 236.004C138.837 235.992 138.582 235.979 138.329 235.941C137.608 235.903 136.898 235.828 136.188 235.764C135.365 235.675 134.553 235.587 133.742 235.485L159.122 198.777L91.701 125.679L47.7077 161.22C47.2504 159.573 46.833 157.925 46.453 156.241C46.313 155.608 46.1744 154.961 46.0464 154.328C45.8704 153.492 45.705 152.643 45.565 151.805C45.4637 151.248 45.3624 150.691 45.2864 150.133C45.1477 149.335 45.033 148.524 44.9197 147.713C44.8557 147.257 44.793 146.813 44.741 146.357C44.653 145.661 44.565 144.951 44.501 144.241L44.4624 143.824C44.3864 143.063 44.3117 142.303 44.261 141.529C44.197 140.681 44.133 139.832 44.0957 138.971V138.92C44.045 138.045 44.0077 137.171 43.9944 136.284C43.969 135.411 43.957 134.523 43.957 133.636C43.957 116.593 48.113 100.527 55.461 86.3854C70.7304 56.9894 99.8104 35.9174 134.11 31.7481C138.202 31.2547 142.372 31.0014 146.604 31.0014C163.836 31.0014 180.093 35.2587 194.348 42.7734L149.645 78.8721L179.485 169.356L237.353 85.6761C244.942 99.9814 249.238 116.315 249.238 133.636Z" fill="#8791FF"/>
<path d="M55.1899 86.2957L91.4286 125.588L47.4352 161.13C46.9792 159.484 46.5606 157.836 46.1806 156.15C46.0419 155.517 45.9019 154.87 45.7752 154.237C45.5979 153.401 45.4339 152.552 45.2939 151.716C45.1926 151.158 45.0912 150.601 45.0152 150.044C44.8752 149.245 44.7619 148.434 44.6472 147.624C44.5846 147.166 44.5206 146.724 44.4699 146.268C44.3819 145.57 44.2926 144.861 44.2299 144.152L44.1912 143.733C44.1152 142.973 44.0392 142.213 43.9886 141.44C43.9259 140.59 43.8619 139.741 43.8246 138.88V138.829C43.7726 137.956 43.7352 137.081 43.7219 136.194C43.6966 135.32 43.6846 134.433 43.6846 133.546C43.6846 116.504 47.8406 100.436 55.1899 86.2957Z" fill="#6B76EE"/>
<path d="M186.081 228.21C173.854 233.354 160.422 236.193 146.332 236.193C145.394 236.193 144.47 236.181 143.545 236.154C142.974 236.142 142.405 236.117 141.834 236.078C141.429 236.078 141.036 236.066 140.63 236.028C140.022 236.002 139.414 235.965 138.818 235.914C138.565 235.902 138.312 235.889 138.058 235.85C137.336 235.813 136.626 235.737 135.917 235.673C135.093 235.585 134.282 235.496 133.47 235.394L158.852 198.686L186.081 228.21Z" fill="#62B192"/>
<path d="M194.076 42.6822L149.374 78.7822L133.839 31.6582C137.931 31.1636 142.1 30.9102 146.332 30.9102C163.564 30.9102 179.822 35.1676 194.076 42.6822Z" fill="#62B192"/>
<path d="M248.967 133.546C248.967 171.85 227.984 205.251 196.889 222.888L179.213 169.266L237.081 85.5855C244.671 99.8908 248.967 116.224 248.967 133.546Z" fill="#6B76EE"/>
<path d="M158.851 198.687L133.471 235.395C132.824 235.319 132.179 235.23 131.532 235.128C131 235.052 130.468 234.976 129.936 234.888C129.34 234.799 128.758 234.698 128.162 234.583C127.376 234.444 126.591 234.304 125.806 234.14C125.134 234 124.462 233.862 123.803 233.71C123.384 233.62 122.967 233.52 122.548 233.418C121.991 233.291 121.447 233.152 120.888 233.012C119.076 232.556 117.291 232.036 115.516 231.479C114.87 231.276 114.224 231.074 113.591 230.858C112.728 230.567 111.879 230.275 111.044 229.959C110.258 229.68 109.472 229.376 108.699 229.072C107.914 228.768 107.14 228.451 106.38 228.122C105.62 227.804 104.86 227.475 104.112 227.132C104.112 227.132 104.1 227.132 104.087 227.12C103.327 226.778 102.579 226.423 101.831 226.07C99.5511 224.979 97.3337 223.8 95.1551 222.547C94.4697 222.14 93.7857 221.735 93.1137 221.33C91.695 220.48 90.3017 219.582 88.9457 218.656C88.2617 218.2 87.5897 217.731 86.9177 217.25C86.2471 216.78 85.5751 216.287 84.9164 215.792C84.8911 215.78 84.8657 215.755 84.827 215.73C84.207 215.26 83.5737 214.779 82.9644 214.298C82.4204 213.867 81.887 213.448 81.355 213.006C80.5697 212.372 79.7964 211.712 79.0364 211.054C78.4537 210.547 77.8831 210.04 77.3137 209.52C76.7431 209 76.1737 208.468 75.6031 207.936C75.5404 207.874 75.4764 207.823 75.4257 207.772C74.8684 207.227 74.3111 206.683 73.7524 206.124C73.2711 205.643 72.7897 205.15 72.3084 204.655C71.6497 203.971 70.991 203.274 70.3564 202.564C69.799 201.956 69.2551 201.335 68.7231 200.715C68.2924 200.232 67.8857 199.739 67.4804 199.244C67.2271 198.966 66.9991 198.687 66.7711 198.395C66.3657 197.902 65.9724 197.407 65.5804 196.912C65.1364 196.355 64.7057 195.798 64.2884 195.228C63.7177 194.48 63.1604 193.732 62.6284 192.96C62.1471 192.288 61.6777 191.616 61.2217 190.932C60.8924 190.451 60.5751 189.97 60.2591 189.475C60.0551 189.184 59.8657 188.88 59.6764 188.576C58.8137 187.232 57.9777 185.851 57.1791 184.458C56.8124 183.798 56.4444 183.139 56.0764 182.468C55.2404 180.935 54.4417 179.376 53.6951 177.792C53.3657 177.134 53.0617 176.463 52.7577 175.791C52.4404 175.08 52.1244 174.371 51.8204 173.662C51.7951 173.611 51.7817 173.548 51.7564 173.496C51.4391 172.75 51.1231 171.99 50.8191 171.228C50.8191 171.204 50.8057 171.179 50.7937 171.14C50.4897 170.38 50.1977 169.607 49.9191 168.834C49.6404 168.099 49.3737 167.352 49.1204 166.591C48.8924 165.92 48.6644 165.236 48.4497 164.551C48.2964 164.044 48.1324 163.524 47.9804 163.019C47.9671 162.98 47.9551 162.955 47.9551 162.916C47.7777 162.322 47.6004 161.726 47.4351 161.131L91.4297 125.588L158.851 198.687Z" fill="#3F4CDE"/>
<path d="M237.082 85.586L179.214 169.265L149.374 78.782L194.076 42.682C212.386 52.3113 227.414 67.302 237.082 85.586Z" fill="#3F4CDE"/>
<path d="M179.213 169.265L158.851 198.687L91.4287 125.588L149.373 78.7825L179.213 169.265Z" fill="#3F4CDE"/>
<path d="M165.333 119.268L165.656 113.864L169.262 112.142C179.585 107.216 186.161 96.7951 186.161 85.355C186.161 75.4124 183 65.731 177.138 57.707L173.112 52.1924L138.781 63.687L139.08 76.5817H136.813C132.209 76.5817 128.476 80.3151 128.476 84.9191C128.476 89.5231 132.209 93.255 136.813 93.255H139.465L139.869 110.758V116.902C139.869 116.902 133.669 122.875 121.902 127.943C121.902 127.943 135.022 144.415 156.701 145.502C178.38 146.587 179.213 133.552 179.213 133.552C179.213 133.552 170.224 128.171 165.07 123.712L165.333 119.268Z" fill="#FF9A68"/>
<path d="M165.655 113.864L165.332 119.268C164.419 119.16 163.462 119.019 162.47 118.837C147.119 116.039 141.108 102.164 141.732 95.0161C141.732 95.0161 146.908 112.208 165.655 113.864Z" fill="#ED7B54"/>
<path d="M136.556 82.53C137.199 83.0167 137.791 83.6607 138.003 84.466C138.003 84.466 136.722 84.8927 136.606 86.33C136.49 87.766 138.003 88.3887 138.003 88.3887C138.003 88.3887 136.838 90.33 134.896 89.2807C132.955 88.2327 133.276 84.5727 135.207 83.806C135.207 83.806 132.139 83.4553 131.014 84.582C131.014 84.582 130.755 83.4527 132.038 82.4527C133.36 81.4233 135.22 81.5193 136.556 82.53Z" fill="#ED7B54"/>
<path d="M164.917 72.3744C164.737 72.3797 164.558 72.4451 164.413 72.5717C161.482 75.1344 158.467 73.1184 158.437 73.0971C158.071 72.8464 157.573 72.9397 157.322 73.3051C157.071 73.6691 157.165 74.1691 157.529 74.4197C158.925 75.3771 162.381 76.4784 165.469 73.7797C165.802 73.4877 165.835 72.9811 165.545 72.6477C165.381 72.4597 165.147 72.3677 164.917 72.3744Z" fill="#432918"/>
<path d="M182.954 74.3453C182.796 74.2586 182.61 74.224 182.42 74.26C178.594 74.976 177.02 71.7066 177.007 71.6733C176.819 71.272 176.342 71.0973 175.94 71.2853C175.54 71.472 175.366 71.9493 175.552 72.3506C176.268 73.8853 178.684 76.5893 182.714 75.836C183.15 75.7546 183.436 75.336 183.355 74.9C183.31 74.6546 183.156 74.456 182.954 74.3453Z" fill="#432918"/>
<path d="M164.478 81.907C164.478 81.907 164.472 85.0297 160.384 85.547C156.298 86.0657 155.554 81.907 155.554 81.907C155.554 81.907 157.874 79.731 160.875 79.667C163.875 79.603 164.478 81.907 164.478 81.907Z" fill="white"/>
<path d="M183.151 81.907C183.151 81.907 183.146 85.0297 179.147 85.547C175.147 86.0657 174.612 81.9097 174.612 81.9097C174.612 81.9097 176.69 79.731 179.626 79.667C182.563 79.603 183.151 81.907 183.151 81.907Z" fill="white"/>
<path d="M174.612 81.9102C174.612 81.9102 176.753 79.5568 179.046 79.1342C181.338 78.7128 182.912 79.8288 183.15 81.9102C183.15 81.9102 182.696 80.1902 180.404 79.9795C178.112 79.7688 174.612 81.9102 174.612 81.9102Z" fill="#432918"/>
<path d="M155.553 81.9067C155.553 81.9067 157.792 79.4481 160.188 79.0067C162.584 78.5654 164.228 79.7321 164.477 81.9067C164.477 81.9067 164.003 80.1094 161.607 79.8894C159.211 79.6681 155.553 81.9067 155.553 81.9067Z" fill="#432918"/>
<path d="M170.685 81.9963L172.57 93.375C172.57 93.375 174.07 93.491 176.148 92.6443C176.148 92.6443 171.224 83.2737 170.685 81.9963Z" fill="#ED7B54"/>
<path d="M157.991 82.7062C157.991 84.4982 159.139 85.9502 160.555 85.9502C161.971 85.9502 163.119 84.4982 163.119 82.7062C163.119 80.9155 161.971 79.4622 160.555 79.4622C159.139 79.4622 157.991 80.9155 157.991 82.7062Z" fill="#432918"/>
<path d="M175.968 82.808C175.968 84.544 177.088 85.9507 178.468 85.9507C179.851 85.9507 180.97 84.544 180.97 82.808C180.97 81.072 179.851 79.6653 178.468 79.6653C177.088 79.6653 175.968 81.072 175.968 82.808Z" fill="#432918"/>
<path d="M149.219 90.8199C149.219 92.2345 150.893 93.3799 152.96 93.3799C155.025 93.3799 156.7 92.2345 156.7 90.8199C156.7 89.4052 155.025 88.2585 152.96 88.2585C150.893 88.2585 149.219 89.4052 149.219 90.8199Z" fill="#ED7B54"/>
<path d="M179.764 89.592C179.764 91.0067 181.439 92.1533 183.504 92.1533C185.571 92.1533 187.245 91.0067 187.245 89.592C187.245 88.1773 185.571 87.0307 183.504 87.0307C181.439 87.0307 179.764 88.1773 179.764 89.592Z" fill="#ED7B54"/>
<path d="M172.043 97.759C172.043 97.759 166.002 97.963 163.558 100.203C161.115 102.443 170.143 103.122 172.043 102.239C173.944 101.356 174.79 97.475 172.043 97.759Z" fill="white"/>
<path d="M157.318 80.6827C157.318 80.6827 156.114 81.2534 154.802 80.4107C154.802 80.4107 154.924 81.6441 155.554 81.9067L157.318 80.6827Z" fill="#432918"/>
<path d="M181.768 79.8443C181.768 79.8443 183.189 81.0203 184.269 80.659C184.666 80.5257 183.157 81.9097 183.157 81.9097C182.796 80.5977 181.768 79.8443 181.768 79.8443Z" fill="#432918"/>
<path d="M190.018 140.136C190.018 140.136 209.242 175.273 216.572 204.736L196.751 216.278C196.751 216.278 188.874 200.529 186.16 176.364C183.447 152.2 190.018 140.136 190.018 140.136Z" fill="#8C7161"/>
<path d="M179.213 60.8C179.213 60.8 160.006 78.9786 142.448 76.988C142.448 76.988 140.546 89.7493 143.714 94.636C143.714 94.636 142.357 95.9813 140.457 90.8746C138.556 85.7666 140.056 78.7093 139.08 76.5813C139.08 76.5813 133.221 75.192 129.372 81.1586C125.522 87.124 133.948 94.408 139.465 93.2546L139.718 104.224C139.718 104.224 133.397 106.583 128.057 102.057C122.717 97.5333 125.342 92.9173 125.342 92.9173C125.342 92.9173 117.286 84.9666 116.925 73.924C116.562 62.8826 125.749 55.9453 125.749 55.9453C125.749 55.9453 128.781 39.608 148.964 39.428C169.148 39.2466 175.03 45.3106 175.03 45.3106C175.03 45.3106 188.057 47.528 191.729 61.376C195.4 75.2226 186.16 82.6293 186.16 82.6293C186.16 82.6293 183.488 64.8853 179.213 60.8Z" fill="#432918"/>
<path d="M129.144 54.0445C129.144 54.0445 128.172 42.1818 116.914 42.6831C105.657 43.1831 103.485 56.0805 108.372 62.0538C113.26 68.0285 119.641 66.6698 124.392 62.0538C129.144 57.4378 129.144 54.0445 129.144 54.0445Z" fill="#432918"/>
<path d="M143.836 100.728L136.74 115.503C136.486 116.035 135.814 116.187 135.346 115.832L135.054 115.604L111.804 97.6359C111.448 97.3572 111.334 96.8639 111.55 96.4572L119.57 81.7719L119.761 81.4292C120.028 80.9226 120.698 80.7959 121.141 81.1639L143.594 99.6252C143.912 99.8919 144.013 100.348 143.836 100.728Z" fill="white"/>
<path d="M192.771 225.233C178.896 232.239 163.209 236.181 146.599 236.181C132.927 236.181 119.875 233.507 107.952 228.641L100.361 141.706C100.361 141.706 101.92 135.713 111.22 132.291C121.788 128.389 121.903 127.945 121.903 127.945C162.184 148.218 179.213 133.546 179.213 133.546L188.083 138.057C188.957 138.501 189.641 139.234 190.021 140.134C192.112 145.139 199.043 162.499 199.74 174.461C200.285 183.989 195.773 209.597 192.771 225.233Z" fill="#A48A7A"/>
<path d="M104.808 135.809C104.808 135.809 94.9853 139.709 91.4293 165.413C87.872 191.117 91.6693 204.735 91.6693 204.735L111.223 181.523C111.223 181.523 117.916 145.938 104.808 135.809Z" fill="#A48A7A"/>
<path d="M134.004 98.2144C132.129 99.297 127.249 102.71 126.377 104.148C125.958 104.84 125.784 105.629 125.713 106.265L124.486 105.653C125.105 103.008 126.248 100.362 126.248 100.362C126.248 100.362 128.193 99.3224 129.28 97.7837C130.365 96.2437 129.957 95.0157 129.957 95.0157C129.217 95.4437 128.024 96.2224 126.78 97.105C126.797 97.081 126.818 97.0597 126.836 97.0357C127.921 95.4957 127.514 94.2677 127.514 94.2677C125.568 95.3917 120.5 98.9357 119.594 100.429C119.108 101.234 118.938 102.162 118.884 102.854L118.541 102.684C119.121 99.885 120.409 96.8997 120.409 96.8997C120.409 96.8997 122.356 95.8584 123.442 94.3197C124.528 92.781 124.12 91.5517 124.12 91.5517C122.173 92.677 117.106 96.221 116.201 97.7144C115.296 99.2077 115.477 101.153 115.477 101.153L116.201 113.914L116.914 127.942C116.914 127.942 91.1302 186.954 91.4288 201.345C91.7275 215.734 100.362 221.437 100.362 221.437C100.362 221.437 109.594 220.35 115.477 211.262C121.36 202.174 126.79 132.921 126.79 132.921C126.79 132.921 129.868 128.214 130.41 123.713C130.953 119.212 128.886 107.85 128.886 107.85C129.5 105.521 130.43 103.364 130.43 103.364C130.43 103.364 132.305 102.361 133.35 100.88C134.396 99.3984 134.004 98.2144 134.004 98.2144Z" fill="#FF9A68"/>
<path d="M143.836 100.728L136.74 115.503C136.487 116.035 135.815 116.187 135.347 115.832L135.055 115.604L142.227 100.183L119.571 81.7719L119.761 81.4292C120.028 80.9226 120.699 80.7959 121.141 81.1639L143.595 99.6252C143.912 99.8919 144.013 100.348 143.836 100.728Z" fill="#DADADA"/>
<path d="M119.571 84.7261L118.588 86.6608L123.475 90.5981L124.595 88.7315L119.571 84.7261Z" fill="#DADADA"/>
<path d="M260.923 142.979L255.445 143.997L255.296 143.512C256.881 142.972 260.603 141.507 262.108 139.248C264.044 136.344 264.723 133.536 264.723 133.536C264.723 133.536 261.367 135.292 260.075 138.643L257.479 139.125C258.52 138.483 259.484 137.701 260.089 136.795C262.027 133.889 262.704 131.081 262.704 131.081C262.704 131.081 259.348 132.837 258.056 136.189L254.784 136.797C256.141 135.732 257.561 134.343 258.155 132.84C259.437 129.593 259.509 126.705 259.509 126.705C259.509 126.705 256.599 129.128 256.04 132.676L252.443 134.18L236.699 139.096L236.817 136.824C236.817 136.824 237.412 136.468 239.073 135.161C240.736 133.855 242.812 128.432 242.812 128.432C242.812 128.432 234.561 132.312 232.551 136.587C230.54 140.861 228.624 151.431 228.624 151.431C228.624 151.431 209.703 196.963 206.343 209.507C206.343 209.507 199.844 212.021 196.752 216.279C196.752 216.279 203.359 228.405 208.608 229.673C208.608 229.673 223.813 226.776 231.053 209.037C238.295 191.297 241.211 155.467 241.211 155.467L256.411 147.155C256.411 147.155 261.001 145.848 262.585 143.473C264.168 141.099 264.723 138.803 264.723 138.803C264.723 138.803 261.979 140.239 260.923 142.979Z" fill="#FF9A68"/>
<path d="M193.227 194.654C193.227 194.654 184.325 192.939 169.087 192.939C153.849 192.939 138.611 195.796 138.611 195.796" stroke="#8C7161" stroke-width="1.33333" stroke-miterlimit="10" stroke-linecap="round" stroke-linejoin="round"/>
<path d="M177.182 50.082C177.182 50.082 179.634 54.602 179.423 57.7007" stroke="#5B3C2A" stroke-width="1.33333" stroke-miterlimit="10" stroke-linecap="round" stroke-linejoin="round"/>
<path d="M173.417 46.6537C173.417 46.6537 163.467 49.8923 157.991 57.7017" stroke="#5B3C2A" stroke-width="1.33333" stroke-miterlimit="10" stroke-linecap="round" stroke-linejoin="round"/>
<path d="M127.277 51.7011C127.277 51.7011 125.659 55.3197 125.563 56.6531C125.563 56.6531 120.247 61.6064 119.571 64.4624" stroke="#5B3C2A" stroke-width="1.33333" stroke-miterlimit="10" stroke-linecap="round" stroke-linejoin="round"/>
<path d="M107.277 65.1297C107.659 65.4151 112.917 69.4004 118.312 66.0417" stroke="#5B3C2A" stroke-width="1.33333" stroke-miterlimit="10" stroke-linecap="round" stroke-linejoin="round"/>
<path d="M133.838 50.082C133.838 50.082 146.181 38.7007 166.61 44.7007" stroke="#5B3C2A" stroke-width="1.33333" stroke-miterlimit="10" stroke-linecap="round" stroke-linejoin="round"/>
<path d="M136.325 73.5877C136.325 73.5877 141.626 75.725 152.959 73.5877C164.293 71.4503 174.611 59.8437 174.611 59.8437" stroke="#5B3C2A" stroke-width="1.33333" stroke-miterlimit="10" stroke-linecap="round" stroke-linejoin="round"/>
<path d="M131.747 135.809C131.747 135.809 147.245 142.273 163.119 141.321C178.992 140.367 180.969 137.511 180.969 137.511" stroke="#8C7161" stroke-width="1.33333" stroke-miterlimit="10" stroke-linecap="round" stroke-linejoin="round"/>
</svg>
