<svg width="14" height="20" viewBox="0 0 14 20" fill="none" xmlns="http://www.w3.org/2000/svg">
<path d="M6.36669 20C6.09367 19.9991 5.82412 19.9388 5.57669 19.8234C5.17253 19.6434 4.84794 19.3221 4.66383 18.9198C4.47971 18.5175 4.44873 18.0619 4.57669 17.6384L5.87752 13.3334H2.81252C2.42203 13.3338 2.03685 13.2428 1.68786 13.0676C1.33887 12.8924 1.03578 12.6379 0.80287 12.3245C0.569961 12.011 0.413714 11.6474 0.346652 11.2627C0.27959 10.878 0.303577 10.483 0.416691 10.1092L2.93669 1.77587C3.0903 1.26044 3.40693 0.808729 3.83907 0.488533C4.2712 0.168338 4.79553 -0.00306802 5.33336 4.15744e-05H8.41086C8.76065 0.000334193 9.10518 0.0853132 9.41499 0.247716C9.7248 0.410119 9.99068 0.645118 10.1899 0.932628C10.3891 1.22014 10.5158 1.55161 10.5591 1.89872C10.6023 2.24583 10.5609 2.59825 10.4384 2.92587L9.03586 6.66671H11.1667C11.6209 6.66667 12.0665 6.79038 12.4557 7.02455C12.8449 7.25871 13.163 7.59449 13.3757 7.9958C13.5885 8.39711 13.6878 8.8488 13.6632 9.30234C13.6386 9.75588 13.4908 10.1941 13.2359 10.57L7.90252 19.1534C7.73765 19.4116 7.5107 19.6244 7.24241 19.7723C6.97412 19.9202 6.67304 19.9985 6.36669 20Z" fill="#E67E22"/>
</svg>
