<svg width="24" height="24" viewBox="0 0 24 24" fill="none" xmlns="http://www.w3.org/2000/svg">
<path d="M11.8642 4.00076C7.68022 4.06976 4.15522 7.52676 4.00622 11.7058C3.91822 14.1338 4.92022 16.4388 6.75622 18.0318C7.54722 18.7188 8.00022 19.7748 8.00022 20.9998C8.00022 22.6538 9.34622 23.9998 11.0002 23.9998H13.0002C14.6542 23.9998 16.0002 22.6538 16.0002 20.9998V20.6248C16.0002 19.6588 16.4552 18.7268 17.2822 17.9988C19.0102 16.4808 20.0002 14.2948 20.0002 11.9998C20.0002 9.83876 19.1512 7.81276 17.6102 6.29676C16.0692 4.78076 14.0272 3.95176 11.8642 4.00076ZM14.0002 20.9998C14.0002 21.5518 13.5522 21.9998 13.0002 21.9998H11.0002C10.4482 21.9998 10.0002 21.5518 10.0002 20.9308C10.0002 20.6148 9.96922 20.3048 9.92322 19.9998H14.0412C14.0162 20.2058 14.0002 20.4148 14.0002 20.6248V20.9998ZM15.9622 16.4968C15.4512 16.9458 15.0392 17.4538 14.7222 17.9998H13.0002V13.8158C14.1612 13.4018 15.0002 12.3018 15.0002 10.9998C15.0002 10.4468 14.5532 9.99976 14.0002 9.99976C13.4472 9.99976 13.0002 10.4468 13.0002 10.9998C13.0002 11.5528 12.5522 11.9998 12.0002 11.9998C11.4482 11.9998 11.0002 11.5518 11.0002 10.9998C11.0002 10.4478 10.5532 9.99976 10.0002 9.99976C9.44722 9.99976 9.00022 10.4468 9.00022 10.9998C9.00022 12.3018 9.83922 13.4018 11.0002 13.8158V17.9998H9.25422C8.94422 17.4418 8.54722 16.9398 8.06622 16.5218C6.69022 15.3268 5.93822 13.5978 6.00422 11.7778C6.11622 8.64376 8.76022 6.05176 11.8982 6.00076C11.9322 6.00076 11.9652 6.00076 12.0002 6.00076C13.5862 6.00076 15.0772 6.60976 16.2082 7.72376C17.3642 8.86076 18.0012 10.3798 18.0012 12.0008C18.0012 13.7208 17.2582 15.3588 15.9632 16.4978L15.9622 16.4968ZM16.7852 2.47376L18.0202 0.463764C18.3082 -0.0082362 18.9242 -0.155236 19.3952 0.135764C19.8662 0.424764 20.0132 1.03976 19.7232 1.51076L18.4882 3.52076C18.3002 3.82876 17.9712 3.99776 17.6352 3.99776C17.4562 3.99776 17.2762 3.94976 17.1132 3.84976C16.6422 3.56076 16.4952 2.94476 16.7852 2.47376ZM23.4132 6.62176L21.4802 7.49376C21.3472 7.55476 21.2072 7.58276 21.0702 7.58276C20.6882 7.58276 20.3252 7.36376 20.1582 6.99376C19.9302 6.49076 20.1542 5.89776 20.6582 5.67176L22.5912 4.79976C23.0972 4.57076 23.6872 4.79676 23.9132 5.29976C24.1412 5.80276 23.9172 6.39576 23.4132 6.62176ZM4.19422 1.50976C3.90522 1.03876 4.05322 0.422764 4.52422 0.134764C4.99722 -0.153236 5.61122 -0.00523618 5.89922 0.464764L7.13122 2.47576C7.42022 2.94676 7.27222 3.56276 6.80122 3.85076C6.63822 3.95076 6.45722 3.99776 6.28022 3.99776C5.94322 3.99776 5.61522 3.82776 5.42622 3.51976L4.19422 1.50876V1.50976ZM3.71122 7.06076C3.54022 7.41976 3.18222 7.62876 2.80922 7.62876C2.66422 7.62876 2.51722 7.59776 2.37822 7.52976L0.580217 6.66876C0.082217 6.43076 -0.128783 5.83376 0.110217 5.33576C0.347217 4.83676 0.947217 4.62376 1.44322 4.86576L3.24122 5.72676C3.73922 5.96476 3.95022 6.56276 3.71122 7.06076Z" fill="#F39C12"/>
</svg>
