<svg width="24" height="24" viewBox="0 0 24 24" fill="none" xmlns="http://www.w3.org/2000/svg">
<g clip-path="url(#clip0_120_4)">
<path d="M0 5L0 19C0 21.757 2.243 24 5 24L19 24C21.757 24 24 21.757 24 19L24 5C24 2.243 21.757 0 19 0L5 0C2.243 0 0 2.243 0 5ZM10.733 13.23L8.839 15L17 15C17.552 15 18 15.447 18 16C18 16.553 17.552 17 17 17L8.793 17L10.707 18.914C11.098 19.305 11.098 19.937 10.707 20.328C10.316 20.719 9.684 20.719 9.293 20.328L6.732 17.767C5.757 16.792 5.757 15.206 6.732 14.232L9.368 11.769C9.771 11.392 10.404 11.414 10.782 11.817C10.962 12.009 11.051 12.255 11.051 12.5C11.051 12.768 10.945 13.034 10.734 13.23H10.733ZM14.707 3.671L17.268 6.232C17.755 6.719 17.999 7.359 17.999 8C17.999 8.641 17.755 9.28 17.268 9.768L14.707 12.329C14.316 12.72 13.684 12.72 13.293 12.329C12.902 11.938 12.902 11.306 13.293 10.915L15.207 9.001H7C6.448 9.001 6 8.554 6 8.001C6 7.448 6.448 7.001 7 7.001L15.207 7.001L13.293 5.087C12.902 4.696 12.902 4.064 13.293 3.673C13.684 3.282 14.316 3.282 14.707 3.673V3.671Z" fill="black"/>
</g>
<defs>
<clipPath id="clip0_120_4">
<rect width="24" height="24" fill="white" transform="matrix(0 -1 1 0 0 24)"/>
</clipPath>
</defs>
</svg>
