<svg width="30" height="28" viewBox="0 0 30 28" fill="none" xmlns="http://www.w3.org/2000/svg">
<path d="M29.1751 10.8512L24.8001 3.35125C23.6838 1.43875 21.6151 0.25 19.4013 0.25H10.5651C8.35134 0.25 6.28134 1.43875 5.16634 3.35125L0.790088 10.8512C-0.341162 12.7925 -0.341162 15.205 0.790088 17.1488L5.16634 24.6487C6.28259 26.5612 8.35009 27.7488 10.5638 27.7488H19.4001C21.6138 27.7488 23.6826 26.5612 24.7988 24.6487L29.1738 17.1475C30.3051 15.205 30.3051 12.7925 29.1738 10.85L29.1751 10.8512ZM27.0138 15.89L22.6401 23.39C21.9701 24.5375 20.7288 25.25 19.4001 25.25H10.5638C9.23634 25.25 7.99384 24.5375 7.32509 23.39L2.95009 15.8912C2.27009 14.725 2.27009 13.2762 2.95009 12.1112L7.32509 4.61125C7.99384 3.46375 9.23509 2.75 10.5638 2.75H19.4001C20.7276 2.75 21.9701 3.4625 22.6388 4.61125L27.0138 12.1112C27.6938 13.2775 27.6938 14.725 27.0138 15.89ZM21.2501 14C21.2501 14.69 20.6913 15.25 20.0001 15.25H16.2501V19C16.2501 19.6912 15.6913 20.25 15.0001 20.25C14.3088 20.25 13.7501 19.6912 13.7501 19V15.25H10.0001C9.30884 15.25 8.75009 14.69 8.75009 14C8.75009 13.31 9.30884 12.75 10.0001 12.75H13.7501V9C13.7501 8.31 14.3088 7.75 15.0001 7.75C15.6913 7.75 16.2501 8.31 16.2501 9V12.75H20.0001C20.6913 12.75 21.2501 13.31 21.2501 14Z" fill="black"/>
</svg>
