<svg width="512" height="512" viewBox="0 0 512 512" fill="none" xmlns="http://www.w3.org/2000/svg">
<path d="M3.66933 79.104C-4.60801 56.448 1.62133 31.36 19.5627 15.2107C37.4613 -0.87466 62.9547 -4.50133 84.5867 6.01601L470.507 186.155C491.2 195.84 506.005 219.525 512 240.645H86.3573L4.88533 81.8133C4.43733 80.9387 4.03199 80.0213 3.66933 79.104ZM86.656 271.333L6.59199 430.4C6.14399 431.253 5.75999 432.107 5.43999 433.003C-2.81601 455.68 3.47733 480.725 21.4187 496.853C32.5333 506.816 46.5707 511.957 60.6933 511.957C69.4187 511.957 78.1653 509.995 86.3147 506.005L470.549 325.995C491.307 316.267 506.091 292.517 512.043 271.355H86.656V271.333Z" fill="#404EED"/>
</svg>
