<svg width="85" height="51" viewBox="0 0 85 51" fill="none" xmlns="http://www.w3.org/2000/svg">
<g clip-path="url(#clip0_14_2)">
<path fill-rule="evenodd" clip-rule="evenodd" d="M0.384006 33.888C1.53601 37.152 5.08801 38.88 8.44801 37.824L9.50401 37.44C10.944 39.264 12.672 40.8 14.688 41.952L14.496 43.008C13.824 46.464 16.128 49.824 19.584 50.496C22.944 51.168 26.304 48.864 26.976 45.504L27.168 44.448C29.472 44.064 31.68 43.296 33.792 42.144L34.56 42.816C37.248 45.12 41.28 44.832 43.488 42.24C45.792 39.552 45.504 35.52 42.912 33.216L42.048 32.544C42.912 30.336 43.392 28.032 43.392 25.728L44.448 25.344C47.712 24.192 49.536 20.64 48.384 17.28C47.232 14.016 43.584 12.192 40.32 13.344L39.264 13.728C37.824 11.904 36 10.368 33.984 9.11997L34.176 8.06397C34.848 4.60797 32.64 1.34397 29.184 0.671965C25.728 -3.49932e-05 22.464 2.20796 21.792 5.66397L21.504 6.71997C19.2 7.10397 16.992 7.87197 14.976 9.02397L14.112 8.25597C11.52 5.95197 7.48801 6.23997 5.18401 8.92797C2.88001 11.616 3.16801 15.552 5.85601 17.856L6.62401 18.624C5.76001 20.736 5.37601 23.136 5.28001 25.44L4.32001 25.824C0.960006 26.976 -0.767994 30.528 0.384006 33.888ZM26.016 17.28C30.528 18.144 33.6 22.56 32.64 27.168C31.776 31.776 27.36 34.752 22.752 33.888C18.144 33.024 15.168 28.512 16.032 24C16.896 19.392 21.408 16.416 26.016 17.28Z" fill="#1E3050"/>
<path fill-rule="evenodd" clip-rule="evenodd" d="M50.208 29.184C51.552 31.488 54.528 32.256 56.832 31.008C56.832 31.008 56.832 31.008 56.832 30.912L57.6 30.528C58.944 31.68 60.48 32.64 62.208 33.216V34.08C62.208 36.768 64.32 38.88 67.008 38.88C69.696 38.88 71.904 36.768 71.904 34.08V33.216C73.632 32.64 75.168 31.68 76.512 30.528L77.28 30.912C79.584 32.256 82.56 31.488 83.904 29.184C85.248 26.88 84.48 23.904 82.08 22.56L81.408 22.08C81.696 20.352 81.696 18.528 81.408 16.8L82.08 16.32C84.48 14.976 85.248 12 83.904 9.696C82.56 7.392 79.584 6.624 77.28 7.968L76.512 8.352C75.168 7.2 73.632 6.24 71.904 5.664V4.896C71.904 2.208 69.696 0 67.008 0C64.32 0 62.208 2.208 62.208 4.896V5.664C60.48 6.24 58.944 7.2 57.6 8.352L56.832 7.968C54.528 6.624 51.552 7.392 50.208 9.696C48.864 12 49.632 14.976 51.936 16.32L52.704 16.8C52.32 18.528 52.32 20.352 52.704 22.08L51.936 22.56C49.632 23.904 48.864 26.88 50.208 29.184ZM67.008 12.96C70.656 12.96 73.536 15.84 73.536 19.488C73.536 23.04 70.656 25.92 67.008 25.92C63.456 25.92 60.576 23.04 60.576 19.488C60.576 15.84 63.456 12.96 67.008 12.96Z" fill="#A5ACB9"/>
</g>
<defs>
<clipPath id="clip0_14_2">
<rect width="84.576" height="50.592" fill="white"/>
</clipPath>
</defs>
</svg>
