<svg width="24" height="22" viewBox="0 0 24 22" fill="none" xmlns="http://www.w3.org/2000/svg">
<path d="M23.3561 8.48L19.8551 2.48C18.9621 0.95 17.3081 0 15.5371 0H8.46507C6.69407 0 5.03907 0.951 4.14607 2.48L0.64607 8.48C-0.26093 10.034 -0.26093 11.965 0.64607 13.519L4.14607 19.519C5.03907 21.049 6.69307 21.999 8.46507 21.999H15.5371C17.3081 21.999 18.9631 21.048 19.8561 19.519L23.3561 13.519C24.2621 11.965 24.2621 10.034 23.3561 8.48ZM18.2001 9.511L13.7741 13.856C12.9911 14.624 11.9831 15.007 10.9751 15.007C9.97707 15.007 8.97807 14.631 8.19807 13.878L6.29907 12.01C5.90507 11.623 5.90007 10.99 6.28707 10.596C6.67407 10.201 7.30607 10.196 7.70107 10.584L9.59407 12.445C10.3721 13.195 11.5961 13.191 12.3751 12.427L16.8001 8.083C17.1931 7.695 17.8241 7.702 18.2141 8.096C18.6011 8.49 18.5951 9.124 18.2001 9.511Z" fill="#27AE60"/>
</svg>
