<svg width="30" height="30" viewBox="0 0 30 30" fill="none" xmlns="http://www.w3.org/2000/svg">
<path fill-rule="evenodd" clip-rule="evenodd" d="M11.5071 26.4358C12.3625 27.4745 13.6456 28.0652 15.0102 28.0652C16.3544 28.0652 17.6375 27.4745 18.4929 26.4358C19.0224 25.8248 19.7963 25.499 20.611 25.5601C21.9755 25.6823 23.279 25.1935 24.2362 24.2363C25.1935 23.279 25.6823 21.9756 25.5601 20.611C25.499 19.7963 25.8248 19.0224 26.4358 18.4929C27.4745 17.6375 28.0652 16.3544 28.0652 14.9898C28.0652 13.6456 27.4745 12.3625 26.4358 11.5071C25.8248 10.9776 25.499 10.2037 25.5601 9.389C25.6823 8.02444 25.1935 6.70061 24.2362 5.76375C23.279 4.80652 21.9552 4.31772 20.611 4.43992C19.7963 4.50102 19.0224 4.17516 18.4929 3.56416C17.6375 2.52546 16.3544 1.93483 15.0102 1.93483C13.6456 1.93483 12.3625 2.52546 11.5071 3.56416C10.9776 4.17516 10.2037 4.50102 9.38899 4.43992C8.02443 4.31772 6.72096 4.80652 5.76373 5.76375C4.8065 6.72098 4.31771 8.02444 4.43991 9.389C4.50101 10.2037 4.17514 10.9776 3.56414 11.5071C2.52545 12.3625 1.93481 13.6456 1.93481 15.0102C1.93481 16.3544 2.52545 17.6375 3.56414 18.4929C4.17514 19.0224 4.50101 19.7963 4.43991 20.611C4.31771 21.9756 4.8065 23.2994 5.76373 24.2363C6.72096 25.1935 8.04479 25.6823 9.38899 25.5601C9.45009 25.5601 9.53156 25.5601 9.61302 25.5601C10.3462 25.5601 11.0183 25.8656 11.5071 26.4358Z" fill="#20914F"/>
<path fill-rule="evenodd" clip-rule="evenodd" d="M15.0102 30C12.9735 30 11.0591 29.1039 9.73523 27.5356C7.82077 27.7597 5.84521 27.0468 4.39919 25.6008C2.97352 24.1752 2.24033 22.1792 2.40326 20.1426C0.89613 18.9409 0 17.0265 0 15.0102C0 12.9735 0.89613 11.0591 2.46436 9.73523C2.24033 7.82077 2.95316 5.84521 4.39919 4.39919C5.84521 2.95316 7.82077 2.24033 9.85743 2.40326C11.0591 0.89613 12.9735 0 15.0102 0C17.0265 0 18.9409 0.89613 20.2648 2.46436C22.1792 2.24033 24.1548 2.95316 25.6008 4.39919C27.0265 5.82485 27.7597 7.82077 27.5967 9.85743C29.1039 11.0591 30 12.9735 30 15.0102C30 17.0265 29.1039 18.9409 27.5356 20.2648C27.7597 22.1792 27.0468 24.1548 25.6008 25.6008C24.1548 27.0468 22.1792 27.7597 20.1426 27.5967C18.9409 29.1039 17.0265 30 15.0102 30ZM9.83707 25.0916C10.5499 25.0916 11.2016 25.3971 11.6497 25.9267C12.4847 26.9246 13.7067 27.4949 15.0102 27.4949C16.2933 27.4949 17.5153 26.9246 18.3503 25.9267C18.8595 25.336 19.5927 25.0305 20.3666 25.0916C21.6497 25.2138 22.9124 24.7454 23.8289 23.8289C24.7454 22.9124 25.2138 21.6497 25.0916 20.3666C25.0305 19.5927 25.336 18.8391 25.9267 18.3503C26.9246 17.5153 27.4949 16.2933 27.4949 14.9898C27.4949 13.7067 26.9246 12.4847 25.9267 11.6497C25.336 11.1405 25.0305 10.4073 25.0916 9.6334C25.2138 8.35031 24.7454 7.08758 23.8289 6.17108C22.9124 5.25458 21.6497 4.80652 20.3666 4.90835C19.5927 4.96945 18.8595 4.66395 18.3503 4.07332C17.5153 3.07536 16.2933 2.50509 15.0102 2.50509C13.7067 2.50509 12.4847 3.07536 11.6497 4.07332C11.1405 4.66395 10.4073 4.96945 9.6334 4.90835C8.32994 4.78615 7.08758 5.25458 6.17108 6.17108C5.25458 7.08758 4.78615 8.35031 4.90835 9.6334C4.96945 10.4073 4.66395 11.1405 4.07332 11.6497C3.07536 12.4847 2.50509 13.7067 2.50509 15.0102C2.50509 16.2933 3.07536 17.5153 4.07332 18.3503C4.66395 18.8391 4.96945 19.5927 4.90835 20.3666C4.78615 21.6497 5.25458 22.9124 6.17108 23.8289C7.08758 24.7454 8.35031 25.1935 9.6334 25.0916C9.6945 25.0916 9.77597 25.0916 9.83707 25.0916Z" fill="#27AE60"/>
<path fill-rule="evenodd" clip-rule="evenodd" d="M13.4623 19.4705C14.4196 19.4705 15.3768 19.1039 16.0896 18.391L22.0163 12.6884C22.5051 12.1996 22.5255 11.4053 22.057 10.9165C21.5682 10.4073 20.7739 10.4073 20.2851 10.8758L14.3381 16.5988C13.8493 17.0876 13.0754 17.0876 12.5458 16.5784L9.69451 13.9308C9.20571 13.4623 8.41141 13.4827 7.94298 13.9919C7.47455 14.501 7.49491 15.2953 8.00408 15.7637L10.8147 18.3707C11.5479 19.1039 12.5051 19.4705 13.4623 19.4705Z" fill="white"/>
</svg>
