<svg width="2561" height="326" viewBox="0 0 2561 326" fill="none" xmlns="http://www.w3.org/2000/svg">
<g clip-path="url(#clip0_46_319)">
<mask id="mask0_46_319" style="mask-type:luminance" maskUnits="userSpaceOnUse" x="0" y="0" width="2561" height="326">
<path d="M0 0H2560.03V325.344H0V0Z" fill="white"/>
</mask>
<g mask="url(#mask0_46_319)">
<path d="M233.76 192.576C261.024 200.736 285.792 221.088 292.704 246.816C308.256 240.672 325.728 237.216 341.76 242.016C357.792 246.816 371.616 261.696 370.944 278.496C385.248 275.424 399.84 272.352 414.336 273.792C428.256 275.136 443.52 281.568 451.776 293.376C454.368 297.024 456 301.632 455.136 306.144C466.368 298.464 481.248 296.736 494.4 298.272C501.984 299.136 509.664 301.344 515.52 306.336C521.376 311.328 524.832 319.392 522.816 326.784C519.168 339.648 502.752 342.912 489.408 343.776C464.832 345.408 440.16 347.04 415.488 348.672C347.04 353.184 278.208 357.696 210.048 350.112C204.48 349.44 198.048 348.096 195.744 343.008C193.632 338.304 196.512 332.448 200.928 329.664C205.248 326.88 210.624 326.304 215.808 325.824C184.608 325.824 153.408 325.824 122.208 325.92C97.152 325.92 72.192 326.016 47.232 325.728C21.024 325.44 -5.85603 324.672 -30.432 315.552C-35.232 313.728 -40.512 310.944 -41.472 305.952C-42.336 301.056 -38.4 296.448 -33.696 294.816C-29.088 293.088 -24 293.76 -19.2 294.336C-31.584 293.76 -35.904 274.944 -27.648 265.632C-19.296 256.416 -4.89603 255.744 7.19997 258.72C19.296 261.792 30.624 267.648 42.912 269.472C51.936 252.384 70.176 239.712 89.664 238.752C101.184 238.08 141.984 245.376 145.44 259.968C138.912 232.128 158.304 202.08 185.28 192.48C200.16 187.2 217.44 187.68 233.76 192.576Z" fill="white"/>
<path d="M451.776 293.376C454.368 297.024 456 301.632 455.136 306.144C466.368 298.464 481.248 296.736 494.4 298.272C501.984 299.136 509.664 301.344 515.52 306.336C521.376 311.328 524.832 319.392 522.816 326.784C519.168 339.648 502.752 342.912 489.408 343.776C464.832 345.408 440.16 347.04 415.488 348.672C347.04 353.184 278.208 357.696 210.048 350.112C204.48 349.44 198.048 348.096 195.744 343.008C193.632 338.304 196.512 332.448 200.928 329.664C205.248 326.88 210.624 326.304 215.808 325.824C184.608 325.824 153.408 325.824 122.208 325.92C97.152 325.92 72.192 326.016 47.232 325.728C21.024 325.44 -5.85603 324.672 -30.432 315.552C-35.232 313.728 -40.512 310.944 -41.472 305.952C-42.336 301.056 -38.4 296.448 -33.696 294.816C-29.088 293.088 -24 293.76 -19.2 294.336C-31.584 293.76 -35.904 274.944 -27.648 265.632C-19.296 256.416 -4.89603 255.744 7.19997 258.72C19.296 261.792 30.624 267.648 42.912 269.472C46.656 262.368 52.032 256.032 58.464 250.944C66.24 266.208 78.528 279.264 93.6 287.52C114.528 298.848 143.136 300 165.504 292.032C156.096 282.72 148.8 270.816 144.768 258.144C145.056 258.72 145.344 259.392 145.44 259.968C143.04 249.696 144.192 239.04 147.936 229.248C151.776 242.976 157.152 256.32 166.08 267.36C177.792 281.856 197.088 291.552 215.136 287.04C223.296 285.024 230.592 280.416 236.832 274.752C256.224 257.088 264.576 227.616 257.184 202.944C274.272 213.408 287.808 228.768 292.704 246.816C292.704 264.384 285.408 281.856 272.448 293.76C299.904 302.304 331.968 301.92 359.136 292.608C350.976 303.36 339.36 311.424 326.4 315.168C353.76 324.864 384.576 324.288 411.552 313.536C419.04 310.56 426.816 306.144 429.504 298.56C432.192 290.784 428.544 282.048 422.592 276.384C421.92 275.808 421.344 275.232 420.672 274.752C432.672 277.152 444.768 283.296 451.776 293.376Z" fill="#F5FBFF"/>
<path d="M-19.2001 294.336C-31.5841 293.76 -35.9041 274.944 -27.6481 265.632C-19.2961 256.416 -4.8961 255.744 7.1999 258.72C3.1679 258.72 -1.8241 259.296 -5.2801 261.12C-8.8321 263.04 -11.7121 266.496 -12.1921 270.432C-12.4801 272.544 -12.1921 274.752 -11.5201 276.768C-8.5441 285.888 -9.83556e-05 292.128 8.9279 295.488C22.3679 300.48 37.1519 299.904 51.4559 299.424C27.8399 302.592 4.7039 295.488 -19.2001 294.336Z" fill="#DFF2FD"/>
<path d="M200.928 329.664C196.512 332.448 193.632 338.304 195.744 343.008C198.048 348.096 204.48 349.44 210.048 350.112C278.208 357.696 347.04 353.184 415.488 348.672C440.16 347.04 464.832 345.408 489.408 343.776C502.752 342.912 519.168 339.648 522.816 326.784C524.832 319.392 521.376 311.328 515.52 306.336C518.208 311.616 515.904 318.144 511.872 322.56C507.744 326.88 501.984 329.184 496.32 331.008C470.4 339.264 442.656 338.208 415.488 337.056C424.128 335.904 432.096 330.336 436.224 322.56C401.76 337.92 362.976 339.168 325.344 340.224C302.496 340.8 279.264 341.472 256.992 336.288C267.744 336.48 278.4 333.216 287.136 327.072C258.144 333.024 229.536 337.248 200.928 329.664Z" fill="#DFF2FD"/>
<path d="M215.808 325.824C184.608 325.824 153.408 325.824 122.208 325.92C97.152 325.92 72.192 326.016 47.232 325.728C21.024 325.44 -5.85603 324.672 -30.432 315.552C-35.232 313.728 -40.512 310.944 -41.472 305.952C-42.336 301.056 -38.4 296.448 -33.696 294.816C-33.888 298.56 -30.528 301.824 -27.264 303.84C-24.096 305.856 -20.256 306.72 -16.512 307.488C25.824 315.84 69.216 315.648 112.416 315.456C129.216 315.36 147.072 314.976 160.992 305.568C177.216 317.28 195.84 325.44 215.808 325.824Z" fill="#DFF2FD"/>
<path d="M2518.18 197.664C2489.28 188.064 2455.58 200.064 2436.29 223.584C2417.95 198.144 2383.58 185.376 2353.15 192.768C2322.72 200.16 2297.95 227.136 2293.34 258.144C2277.41 253.44 2259.94 252 2244.29 257.472C2228.64 263.04 2215.1 276.576 2212.99 293.088C2201.28 290.592 2189.38 288.192 2177.57 289.92C2165.76 291.552 2153.95 298.08 2149.34 309.024C2142.34 325.344 2154.62 344.928 2171.14 350.976C2187.74 357.024 2206.46 352.512 2222.3 344.736C2236.9 363.264 2258.98 375.456 2282.4 377.952C2305.73 380.448 2330.02 373.152 2348.06 358.272C2367.26 379.776 2396.06 392.448 2424.96 391.968C2453.76 391.488 2482.18 377.856 2500.61 355.68C2520.29 370.944 2565.31 389.184 2586.43 367.296C2595.26 358.08 2597.86 343.296 2592.58 331.68C2605.54 331.776 2618.11 323.328 2622.91 311.424C2627.71 299.424 2624.54 284.64 2615.14 275.712C2596.13 257.76 2575.87 270.144 2562.05 286.272C2562.24 250.56 2558.88 210.432 2518.18 197.664Z" fill="white"/>
<path d="M2293.34 258.144C2277.41 253.44 2259.94 252 2244.29 257.472C2228.64 263.04 2215.1 276.576 2212.99 293.088C2201.28 290.592 2189.38 288.192 2177.57 289.92C2165.76 291.552 2153.95 298.08 2149.34 309.024C2142.34 325.344 2154.62 344.928 2171.14 350.976C2187.74 357.024 2206.46 352.512 2222.3 344.736C2236.9 363.264 2258.98 375.456 2282.4 377.952C2305.73 380.448 2330.02 373.152 2348.06 358.272C2367.26 379.776 2396.06 392.448 2424.96 391.968C2453.76 391.488 2482.18 377.856 2500.61 355.68C2520.29 370.944 2565.31 389.184 2586.43 367.296C2595.26 358.08 2597.86 343.296 2592.58 331.68C2605.54 331.776 2618.11 323.328 2622.91 311.424C2627.71 299.424 2624.54 284.64 2615.14 275.712C2596.13 257.76 2575.87 270.144 2562.05 286.272C2562.14 258.528 2560.22 228.192 2540.35 210.048C2542.18 230.112 2538.62 250.752 2527.68 267.552C2515.01 287.04 2491.49 300 2468.54 296.736C2459.42 295.392 2450.4 291.36 2444.64 284.256C2437.15 274.848 2437.54 261.12 2430.05 251.904C2424.1 244.608 2413.82 241.344 2405.76 236.928C2414.88 241.92 2418.82 253.728 2416.42 263.712C2413.92 273.792 2406.24 281.856 2397.22 286.848C2383.78 294.24 2366.98 295.392 2352.86 289.248C2338.85 283.104 2328.19 269.664 2325.89 254.496C2323.49 237.984 2330.88 221.184 2342.21 208.992C2348.93 201.696 2356.9 195.936 2365.34 190.848C2361.22 191.136 2357.18 191.808 2353.15 192.768C2322.72 200.16 2297.95 227.136 2293.34 258.144Z" fill="#F5FBFF"/>
<path d="M2500.61 355.68C2520.29 370.944 2565.31 389.184 2586.43 367.296C2595.26 358.08 2597.86 343.296 2592.58 331.68C2605.54 331.776 2618.11 323.328 2622.91 311.424C2627.71 299.424 2624.54 284.64 2615.14 275.712C2616.38 284.544 2614.37 292.32 2610.14 300.192C2606.02 308.064 2598.14 314.208 2589.22 314.784C2580.38 315.36 2571.07 309.504 2569.15 300.768C2566.46 305.952 2569.06 312.192 2572.51 316.8C2575.87 321.408 2580.29 325.632 2581.92 331.2C2584.22 339.552 2578.94 348.672 2571.55 353.184C2564.06 357.792 2555.04 358.752 2546.4 359.136C2530.08 359.808 2515.97 361.152 2500.61 355.68Z" fill="#DFF2FD"/>
<path d="M2424.96 391.968C2396.06 392.448 2367.26 379.776 2348.06 358.272C2330.02 373.152 2305.73 380.448 2282.4 377.952C2258.98 375.456 2236.9 363.264 2222.3 344.736C2206.46 352.512 2187.74 357.024 2171.14 350.976C2154.62 344.928 2142.34 325.344 2149.34 309.024C2149.92 323.136 2164.51 334.56 2178.14 338.304C2191.68 342.144 2206.27 339.744 2220 336.48C2217.02 328.128 2216.35 319.008 2218.08 310.272C2228.64 325.056 2241.31 339.456 2258.4 345.504C2268.48 349.152 2279.42 349.44 2290.18 349.632C2303.23 349.728 2316.58 349.536 2329.15 345.696C2341.63 341.856 2353.44 333.792 2359.01 321.984C2350.66 339.744 2376.38 363.072 2388.48 371.712C2400.77 380.544 2414.69 386.784 2428.51 392.832L2424.96 391.968Z" fill="#DFF2FD"/>
<path d="M463.104 251.328C479.904 246.72 498.432 250.752 511.584 265.92C526.944 258.24 545.952 258.432 561.216 266.304C576.48 274.176 587.616 289.536 590.4 306.432C599.328 305.28 608.64 304.128 617.376 306.432C626.112 308.736 634.368 315.456 635.616 324.48C646.464 324.768 657.888 335.328 653.856 345.504C651.552 351.168 645.216 354.336 639.168 355.2C633.024 356.064 626.784 355.2 620.64 355.392C607.392 355.872 595.008 361.536 582.336 365.568C571.968 368.928 560.448 370.56 549.504 368.544C541.056 367.008 532.8 362.592 528.48 355.2C516.576 365.376 500.16 368.16 484.512 368.928C472.896 369.504 460.992 369.024 450.144 364.8C439.296 360.576 429.6 352.032 426.624 340.8C411.264 346.176 393.408 343.488 381.312 332.448C372.288 324.192 372.576 309.024 380.928 300.384C387.552 293.472 398.112 292.992 407.616 293.184C414.24 293.376 421.248 293.76 426.624 297.6C425.184 287.712 429.12 277.728 435.264 269.952C442.656 260.64 452.544 254.304 463.104 251.328Z" fill="white"/>
<path d="M463.104 251.328C452.544 254.304 442.656 260.64 435.264 269.952C429.12 277.728 425.184 287.712 426.624 297.6C427.776 305.088 430.464 311.616 436.224 316.512C442.08 321.408 449.28 324.288 456.48 326.592C445.92 302.304 447.84 273.024 463.104 251.328Z" fill="#F5FBFF"/>
<path d="M381.312 332.448C393.408 343.488 411.264 346.176 426.624 340.8C429.6 352.032 439.296 360.576 450.144 364.8C460.992 369.024 472.896 369.504 484.512 368.928C500.16 368.16 516.576 365.376 528.48 355.2C532.8 362.592 541.056 367.008 549.504 368.544C560.448 370.56 571.968 368.928 582.336 365.568C595.008 361.536 607.392 355.872 620.64 355.392C626.784 355.2 633.024 356.064 639.168 355.2C645.216 354.336 651.552 351.168 653.856 345.504C657.888 335.328 646.464 324.768 635.616 324.48C635.52 323.424 635.232 322.368 634.944 321.408C630.624 320.928 626.208 321.12 621.984 321.696C600 324.768 580.512 338.208 558.528 340.992C552.672 341.664 546.528 341.664 540.864 339.648C535.968 337.92 531.552 334.848 527.712 331.296C520.416 324.576 514.848 316.128 511.488 306.72C514.848 320.064 504.384 333.888 491.424 338.496C478.464 343.008 464.16 340.512 451.008 336.672C442.656 334.272 433.44 330.24 430.944 321.984C421.248 330.048 405.6 331.2 396.288 322.752C385.632 313.152 391.008 303.744 394.944 293.76C389.664 294.624 384.672 296.544 380.928 300.384C372.576 309.024 372.288 324.192 381.312 332.448Z" fill="#F5FBFF"/>
</g>
</g>
<defs>
<clipPath id="clip0_46_319">
<rect width="2560.03" height="325.344" fill="white"/>
</clipPath>
</defs>
</svg>
