<svg width="1243" height="1182" viewBox="0 0 1243 1182" fill="none" xmlns="http://www.w3.org/2000/svg">
<mask id="mask0_21_2" style="mask-type:luminance" maskUnits="userSpaceOnUse" x="0" y="0" width="1243" height="1182">
<path d="M25.152 0H1217.38C1231.2 0 1242.53 11.328 1242.53 25.152V1156.22C1242.53 1170.05 1231.2 1181.38 1217.38 1181.38H25.152C11.328 1181.38 0 1170.05 0 1156.22V25.152C0 11.328 11.328 0 25.152 0Z" fill="white"/>
</mask>
<g mask="url(#mask0_21_2)">
<path d="M521.952 1162.08C504.48 1181.86 438.336 1117.54 359.136 1128.38C349.728 1129.63 304.992 1135.78 296.544 1163.62C291.84 1179.17 299.904 1198.75 312.096 1209.12C320.544 1216.22 333.408 1216.32 357.696 1218.24C367.68 1219.1 377.184 1219.2 382.656 1226.02C386.208 1230.43 384.192 1233.79 387.36 1238.69C393.888 1248.86 408.768 1253.18 423.552 1254.72C451.392 1257.79 497.184 1262.69 535.296 1241.95C541.248 1238.78 552.864 1231.78 566.784 1233.89C575.232 1235.23 575.136 1238.4 587.904 1242.62C602.688 1247.52 615.552 1247.52 624.576 1247.62C655.392 1247.81 662.88 1238.02 683.808 1237.92C708 1237.73 719.904 1252.7 742.656 1260.86C822.72 1289.38 938.208 1283.33 973.056 1246.75C977.664 1241.86 978.624 1238.02 984.48 1233.6C1003.2 1219.39 1022.98 1222.66 1075.1 1220.64C1109.95 1219.3 1118.59 1216.8 1126.37 1210.56C1141.63 1198.27 1144.32 1178.88 1144.7 1175.9C1149.02 1141.15 1117.25 1112.83 1104.86 1101.89C1081.34 1080.96 1055.04 1069.82 1009.63 1058.4C969.984 1048.51 865.248 1023.26 765.6 1045.44C738.528 1051.49 717.312 1056.38 695.328 1072.8C672.672 1089.79 671.136 1102.46 651.456 1109.28C623.712 1118.88 614.688 1097.18 582.72 1105.34C559.296 1111.39 535.392 1130.3 525.312 1153.82C522.624 1160.16 523.68 1160.16 521.952 1162.08Z" fill="#E9F4F6"/>
<path d="M1320.86 1191.65C1263.17 1236.19 1042.94 1208.64 1044.19 1196.06C1044.86 1188.77 1117.82 1199.52 1131.46 1167.74C1135.87 1157.28 1133.57 1143.17 1128.58 1133.18C1121.86 1119.74 1110.34 1113.89 1101.89 1109.57C1097.76 1107.46 1080.1 1098.91 1054.94 1100.35C1028.06 1101.89 1019.42 1113.22 1008.38 1106.98C997.536 1101.02 1003.68 1088.16 991.872 1072.32C973.056 1047.46 936.096 1047.74 933.504 1047.84C913.344 1048.32 896.832 1057.15 889.056 1061.38C884.736 1063.68 878.4 1068.77 866.304 1075.97C856.992 1081.63 852.288 1084.42 849.6 1085.09C834.72 1089.22 823.296 1076.64 805.056 1067.9C805.056 1067.9 780 1055.81 749.28 1057.63C709.632 1060.03 682.368 1085.95 674.496 1093.44C657.696 1109.47 648.48 1126.46 643.776 1136.93C639.744 1131.65 631.488 1122.05 617.76 1116.19C593.952 1106.11 571.68 1114.94 565.92 1117.15C537.024 1128.1 526.464 1153.73 523.392 1151.71C519.936 1149.5 529.536 1117.44 554.784 1092.48C581.472 1065.98 612.864 1060.03 620.448 1058.78C649.248 1053.98 672.384 1060.9 682.944 1064.83C685.632 1057.34 706.08 1003.78 756.576 988.32C779.136 981.408 799.584 984.48 802.56 984.96C827.904 989.184 844.896 1002.05 852.096 1008.29C853.632 1006.85 866.016 995.712 883.584 998.496C899.424 1000.99 907.584 1012.8 908.928 1014.82C914.304 1004.74 923.712 990.048 939.264 976.32C949.92 966.912 974.592 945.6 1012.22 943.2C1053.22 940.416 1082.69 961.728 1091.9 969.024C1134.43 1002.91 1137.31 1053.6 1137.6 1061.57C1141.73 1056.86 1151.52 1046.78 1167.55 1041.6C1176.29 1038.72 1193.95 1035.17 1212.48 1043.33C1235.52 1053.31 1244.54 1075.87 1245.31 1077.89C1252.03 1095.55 1245.31 1104.77 1252.7 1110.43C1262.59 1118.02 1276.42 1102.75 1301.38 1108.13C1305.79 1109.09 1316.16 1111.49 1325.57 1119.84C1327.3 1121.38 1345.25 1137.6 1342.46 1159.68C1340.26 1176.58 1326.34 1187.33 1320.86 1191.65Z" fill="white"/>
<path d="M1116.86 1163.62C1083.46 1152.29 1086.62 1143.65 1060.22 1135.97C992.736 1116.38 947.232 1178.02 885.408 1157.38C865.824 1150.75 852.48 1138.56 845.28 1130.88C839.616 1138.08 798.336 1188.96 732.576 1188.29C701.568 1188 677.952 1176.38 665.472 1168.9C645.12 1198.27 609.408 1211.23 578.112 1201.54C540.672 1190.02 528.672 1152 527.712 1148.83C526.848 1150.46 525.984 1152.19 525.312 1153.82C522.624 1160.16 523.68 1160.16 521.952 1162.08C504.48 1181.86 438.336 1117.54 359.136 1128.38C349.728 1129.63 304.992 1135.78 296.544 1163.62C291.84 1179.17 299.904 1198.75 312.096 1209.12C320.544 1216.22 333.408 1216.32 357.696 1218.24C367.68 1219.1 377.184 1219.2 382.656 1226.02C386.208 1230.43 384.192 1233.79 387.36 1238.69C393.888 1248.86 408.768 1253.18 423.552 1254.72C451.392 1257.79 497.184 1262.69 535.296 1241.95C541.248 1238.78 552.864 1231.78 566.784 1233.89C575.232 1235.23 575.136 1238.4 587.904 1242.62C602.688 1247.52 615.552 1247.52 624.576 1247.62C655.392 1247.81 662.88 1238.02 683.808 1237.92C708 1237.73 719.904 1252.7 742.656 1260.86C822.72 1289.38 938.208 1283.33 973.056 1246.75C977.664 1241.86 978.624 1238.02 984.48 1233.6C1012.51 1212.19 1051.2 1217.28 1075.1 1220.64C1122.53 1227.46 1194.24 1237.25 1262.88 1222.75C1262.88 1222.75 1327.78 1209.5 1340.45 1178.59C1346.98 1162.66 1343.62 1149.22 1343.62 1149.22C1342.37 1144.13 1340.35 1140.29 1338.82 1137.79C1337.66 1140.29 1323.84 1170.24 1291.01 1176C1265.95 1180.32 1247.04 1167.46 1243.2 1164.77C1211.9 1173.12 1165.63 1180.22 1116.86 1163.62Z" fill="#CEEAF0"/>
<path d="M1030.37 1154.88C1052.16 1148.64 1073.47 1155.55 1079.71 1157.57C1105.44 1165.92 1121.09 1183.97 1127.23 1179.07C1129.82 1176.96 1128.1 1173.31 1128.86 1165.44C1128.86 1165.44 1130.4 1148.16 1143.55 1133.86C1157.95 1118.4 1183.87 1113.89 1204.51 1121.47C1227.84 1129.92 1237.44 1151.04 1240.51 1157.66C1259.04 1198.18 1233.02 1238.02 1231.3 1240.42C1228.42 1244.74 1217.47 1260 1196.06 1270.75C1186.46 1275.55 1171.58 1281.12 1067.71 1272.77C1037.47 1270.37 1022.3 1269.12 1011.07 1267.58C992.256 1264.9 985.344 1262.88 971.136 1263.07C948.384 1263.17 945.696 1268.26 928.608 1268.06C922.368 1268.06 880.896 1267.68 871.488 1243.39C865.248 1227.46 874.944 1206.72 888.864 1196.45C899.136 1188.96 910.176 1188.19 919.104 1187.71C946.656 1186.27 951.744 1199.42 969.792 1197.79C996.48 1195.39 996.96 1164.48 1030.37 1154.88Z" fill="white"/>
<path d="M584.064 1183.39C582.24 1194.24 562.656 1198.18 560.832 1198.46C546.816 1201.15 539.52 1195.87 519.744 1191.07C484.608 1182.43 476.64 1183.2 470.592 1185.7C462.72 1188.77 463.008 1191.84 453.792 1194.91C449.952 1196.16 435.84 1200.67 420.768 1194.05C416.352 1192.13 402.816 1186.18 399.744 1172.83C397.728 1164.1 401.568 1156.7 402.528 1154.98C406.656 1146.91 413.568 1143.55 418.272 1141.15C421.152 1139.71 427.68 1136.64 436.608 1136.83C442.752 1136.93 447.648 1138.66 450.624 1139.9C451.776 1135.68 454.08 1129.82 458.784 1124.35C472.704 1108.03 502.272 1101.41 522.624 1115.9C539.904 1128.29 541.536 1149.6 541.728 1152.86C547.872 1153.34 560.16 1155.07 571.296 1164C575.904 1167.65 585.408 1175.23 584.064 1183.39Z" fill="white"/>
<path d="M574.08 1166.02C554.88 1174.08 532.032 1173.31 516.48 1158.91C510.624 1161.31 498.624 1165.25 483.36 1163.52C471.744 1162.18 462.912 1158.05 457.728 1155.07C456.096 1157.95 452.448 1163.04 446.208 1166.98C444.384 1168.13 433.152 1174.85 418.944 1171.2C408.768 1168.61 402.72 1161.98 400.608 1159.39C399.648 1162.27 398.496 1167.26 399.744 1172.83C402.72 1186.08 416.256 1192.03 420.768 1194.05C435.84 1200.67 449.952 1196.16 453.792 1194.91C463.008 1191.84 462.72 1188.77 470.592 1185.7C476.64 1183.2 484.608 1182.43 519.744 1191.07C539.52 1195.87 546.816 1201.15 560.832 1198.46C562.656 1198.18 582.24 1194.24 584.064 1183.39C585.216 1176.29 578.208 1169.47 574.08 1166.02Z" fill="#E9F4F6"/>
<path d="M1243.2 1164.77C1241.38 1169.38 1222.37 1214.78 1172.54 1227.36C1129.63 1238.02 1095.94 1216.42 1090.46 1212.77C1065.12 1239.36 1006.75 1250.69 977.664 1227.17C974.016 1229.38 947.04 1245.22 916.032 1234.08C894.72 1226.4 883.776 1210.27 880.32 1204.8C877.632 1206.62 872.64 1210.75 869.856 1217.66C864.864 1229.76 870.432 1241.38 871.488 1243.39C883.2 1266.82 921.312 1267.97 926.112 1268.06C927.168 1268.06 928.032 1268.06 928.608 1268.06C945.696 1268.26 948.384 1263.17 971.136 1263.07C985.344 1262.88 992.256 1264.9 1011.07 1267.58C1022.3 1269.12 1037.47 1270.37 1067.71 1272.77C1171.58 1281.12 1186.46 1275.55 1196.06 1270.75C1216.9 1260.29 1228.7 1244.26 1231.3 1240.42C1234.46 1235.81 1250.98 1210.85 1246.46 1178.88C1245.7 1172.93 1244.26 1168.03 1243.2 1164.77Z" fill="#CEEAF0"/>
<path d="M411.072 1152C381.408 1173.31 349.824 1150.46 321.6 1171.49C309.984 1180.13 308.64 1189.06 301.632 1200.38C265.056 1258.94 140.544 1277.95 53.28 1241.18C28.512 1230.72 15.168 1208.93 -10.944 1211.23C-34.368 1213.25 -41.568 1223.42 -74.592 1230.91C-100.608 1236.77 -120.864 1234.85 -149.088 1231.87C-196.608 1226.88 -210.624 1216.9 -244.128 1210.56C-338.496 1192.51 -381.408 1242.43 -422.688 1210.37C-441.984 1195.39 -452.064 1169.57 -450.624 1146.53C-448.224 1108.7 -415.2 1087.3 -411.264 1084.9C-392.352 1073.09 -373.152 1072.03 -364.704 1071.74C-330.72 1070.21 -320.16 1086.05 -302.976 1079.33C-286.272 1072.7 -289.44 1054.94 -271.872 1022.11C-265.44 1010.3 -233.28 953.376 -180.192 943.2C-169.056 941.088 -152.544 937.92 -137.28 946.272C-117.216 957.312 -112.128 978.336 -103.008 976.32C-97.44 975.072 -98.4 967.488 -89.952 962.784C-81.408 957.984 -69.696 960 -62.016 964.128C-45.6 973.152 -46.368 992.352 -39.264 992.736C-30.336 993.12 -29.472 962.784 -10.464 937.824C16.32 902.4 63.168 898.848 66.624 898.656C69.696 898.464 117.024 896.256 149.376 929.664C165.984 946.848 173.76 968.352 175.584 974.016C184.8 1001.28 180 1017.89 189.216 1022.02C199.584 1026.62 208.8 1006.46 238.752 997.44C246.624 995.04 266.304 989.088 287.232 997.152C312.576 1006.94 323.328 1030.85 324.192 1032.86C332.352 1051.68 325.536 1061.86 333.792 1067.71C344.736 1075.39 358.944 1058.21 386.112 1062.91C390.912 1063.78 402.144 1065.79 412.8 1074.34C414.72 1075.87 434.784 1092.67 432.864 1116.58C431.04 1137.22 413.856 1149.98 411.072 1152Z" fill="#F2F7F8"/>
<path d="M-7.20002 1210.56C1.72798 1210.85 12.384 1214.02 29.472 1226.3C36.768 1231.49 44.352 1236.86 53.472 1240.7C95.232 1258.37 147.36 1263.94 196.416 1256.06C245.76 1248.19 283.968 1227.74 301.152 1200.19C303.36 1196.74 304.896 1193.57 306.432 1190.5C310.08 1183.3 313.152 1177.15 321.312 1171.1C335.52 1160.54 350.88 1160.93 365.664 1161.41C380.544 1161.79 396 1162.18 410.784 1151.62C415.392 1148.26 430.752 1135.87 432.384 1116.48C434.304 1093.06 414.72 1076.54 412.512 1074.72C401.76 1066.08 390.336 1064.16 386.016 1063.39C372.288 1060.99 361.152 1064.64 352.896 1067.23C331.2 1074.24 327.936 1083.84 320.544 1081.34C308.256 1077.41 315.84 1051.1 297.792 1031.9C285.312 1018.56 268.032 1016.45 263.136 1015.87C236.64 1012.7 209.184 1028.06 192.48 1054.56C170.976 1008.77 149.664 996.768 133.92 994.56C96.096 989.376 72 1037.76 20.64 1037.18C-3.26402 1036.99 -22.752 1026.14 -35.232 1017.22C-35.712 1019.42 -40.032 1038.34 -56.544 1045.15C-59.616 1046.5 -71.712 1051.78 -83.232 1045.15C-92.544 1039.87 -95.424 1030.18 -96 1027.97C-96.768 1032.67 -107.904 1094.21 -165.024 1119.46C-211.68 1140.1 -254.976 1121.47 -263.04 1117.82C-287.328 1106.88 -302.208 1090.37 -309.6 1080.96C-314.88 1089.98 -323.52 1101.22 -336.864 1105.06C-352.32 1109.38 -361.344 1100.16 -378.624 1098.62C-403.008 1096.42 -436.416 1110.24 -446.88 1137.12C-458.592 1167.36 -436.32 1202.21 -412.224 1216.99C-398.208 1225.63 -385.344 1226.02 -361.632 1226.4C-318.24 1226.98 -214.368 1217.18 -209.088 1218.91C-209.088 1218.91 -208.896 1219.01 -208.512 1219.1C-207.36 1219.39 -204.864 1220.26 -201.6 1221.22C-196.896 1222.56 -190.752 1224.29 -183.456 1225.92C-174.048 1228.03 -163.104 1229.95 -148.992 1231.39C-122.304 1234.18 -101.184 1236.48 -74.688 1230.43C-68.256 1228.99 -62.88 1227.46 -58.08 1225.92C-49.824 1223.14 -45.12 1220.93 -40.608 1219.1C-29.28 1214.5 -18.528 1210.18 -7.20002 1210.56ZM152.256 1260.48C117.216 1260.48 82.56 1254.05 53.088 1241.57C43.872 1237.73 36.288 1232.26 28.896 1227.07C16.8 1218.43 5.37598 1210.27 -10.848 1211.71C-23.136 1212.77 -31.104 1216.13 -40.32 1219.97C-48.96 1223.71 -58.752 1227.84 -74.496 1231.39C-101.088 1237.44 -122.304 1235.14 -149.088 1232.35C-177.984 1229.28 -193.92 1224.48 -209.376 1219.78C-220.032 1216.61 -230.112 1213.54 -244.128 1210.94C-287.904 1203.07 -319.008 1209.89 -343.968 1215.36C-372.096 1221.5 -382.176 1221.7 -396.672 1218.72C-403.392 1217.28 -412.224 1215.55 -421.344 1209.6C-442.176 1196.16 -452.064 1169.47 -451.104 1146.53C-449.76 1110.91 -423.264 1088.74 -413.952 1082.78C-409.344 1079.81 -380.544 1057.25 -341.376 1061.57C-330.72 1062.72 -322.176 1065.6 -316.512 1067.9C-318.432 1057.92 -326.688 1008.67 -295.104 966.912C-263.04 924.384 -200.544 903.936 -152.16 926.784C-123.744 940.128 -109.056 964.32 -103.104 975.84C-102.528 974.112 -99.168 963.168 -87.936 957.696C-74.688 951.264 -62.208 957.984 -60.864 958.752C-46.656 966.72 -45.6 982.944 -45.6 984C-25.728 933.696 18.528 899.808 66.624 898.176C111.84 896.64 143.424 924.288 149.376 929.664C188.736 965.472 189.408 1013.66 189.408 1021.54C192.96 1015.78 206.592 995.424 233.856 986.592C240.48 984.384 264.672 976.992 291.072 989.28C295.2 991.2 319.008 1002.72 329.76 1030.56C335.712 1046.21 334.944 1060.13 334.08 1067.23C338.88 1064.26 346.464 1060.42 356.352 1058.5C359.328 1057.92 389.664 1052.74 413.088 1074.05C418.08 1078.56 435.168 1094.02 433.248 1116.58C431.616 1136.35 416.064 1149.02 411.36 1152.38C396.288 1163.14 380.736 1162.75 365.664 1162.27C350.304 1161.89 335.808 1161.5 321.888 1171.87C313.92 1177.82 310.848 1183.87 307.296 1190.88C305.76 1194.05 304.128 1197.22 302.016 1200.67C284.64 1228.51 246.24 1249.06 196.512 1257.02C181.92 1259.33 167.04 1260.48 152.256 1260.48Z" fill="white"/>
<path d="M30.048 1175.71C-0.48003 1179.74 -26.976 1168.61 -43.296 1159.78C-56.064 1174.94 -76.416 1194.24 -100.512 1193.09C-121.728 1192.03 -124.32 1176.19 -147.168 1169.09C-183.168 1157.86 -200.64 1189.82 -273.888 1202.3C-303.168 1207.2 -319.392 1209.98 -339.264 1202.88C-364.32 1193.86 -373.152 1176.96 -396.096 1175.14C-414.24 1173.7 -429.792 1182.43 -440.16 1190.11C-435.84 1197.41 -428.736 1207.87 -417.504 1217.86C-389.664 1242.62 -357.12 1246.37 -335.904 1248.86C-301.632 1252.9 -274.656 1247.14 -245.76 1240.99C-224.064 1236.38 -206.304 1230.82 -193.728 1226.4C-184.32 1229.76 -170.688 1234.46 -154.08 1239.07C-111.36 1251.07 -73.92 1256.06 -23.232 1259.62C14.592 1262.3 76.992 1265.47 157.248 1261.82C211.584 1259.33 248.16 1254.91 282.624 1229.86C295.776 1220.26 305.088 1210.27 311.04 1203.07C320.352 1206.34 340.032 1211.71 362.016 1204.8C391.488 1195.49 416.928 1166.59 411.072 1152C409.152 1147.2 402.72 1141.44 359.04 1139.81C290.304 1137.12 273.888 1150.18 228.96 1146.62C172.8 1142.3 175.104 1120.13 137.952 1125.12C89.856 1131.55 78.144 1169.38 30.048 1175.71Z" fill="#CEEAF0"/>
<path d="M505.44 1156.51C500.736 1151.62 493.44 1144.99 482.976 1139.33C477.504 1136.35 468 1131.26 455.52 1129.73C434.88 1127.23 418.272 1135.97 411.36 1140.29C406.272 1134.82 376.224 1103.71 327.744 1103.33C283.296 1102.94 254.304 1128.48 248.064 1134.24C242.976 1131.55 232.704 1127.14 219.648 1128C192.768 1129.82 177.792 1152.58 175.968 1155.46C171.84 1153.06 165.504 1149.7 157.152 1147.1C148.704 1144.42 131.808 1139.14 113.952 1145.57C107.808 1147.78 94.464 1152.58 91.392 1164.38C91.296 1164.77 88.896 1174.56 94.368 1181.38C103.776 1193.09 129.216 1185.79 135.36 1185.79C194.496 1185.89 544.8 1223.14 555.072 1175.14C556.224 1169.76 553.44 1161.31 548.16 1156.51C536.352 1145.47 512.832 1153.63 505.44 1156.51Z" fill="white"/>
<path d="M502.08 1168.22C497.856 1163.81 491.136 1157.76 481.344 1153.63C465.12 1146.82 449.76 1149.31 442.176 1150.66C372.288 1162.94 366.816 1173.02 340.992 1171.3C302.592 1168.8 293.376 1146.91 249.6 1146.05C235.488 1145.76 221.088 1146.82 205.92 1152.38C192.672 1157.18 182.784 1163.81 176.544 1168.8C166.368 1164.77 139.68 1155.74 112.992 1167.36C107.712 1169.66 93.792 1175.62 94.368 1181.38C95.712 1195.1 177.312 1188.38 297.408 1200.19C297.408 1200.19 477.12 1217.76 539.136 1189.34C543.456 1187.33 555.36 1181.86 555.072 1175.14C554.88 1170.24 548.256 1166.88 545.664 1165.54C529.248 1157.18 509.664 1164.77 502.08 1168.22Z" fill="#CEEAF0"/>
</g>
</svg>
