<svg width="532" height="326" viewBox="0 0 532 326" fill="none" xmlns="http://www.w3.org/2000/svg">
<g clip-path="url(#clip0_45_2)">
<path d="M467.904 189.6C467.904 209.184 452.64 225.216 433.248 226.368C433.152 226.368 433.056 226.368 432.96 226.368C432.384 226.464 431.712 226.464 431.04 226.464C430.56 226.464 429.984 226.464 429.504 226.368C429.408 226.368 429.216 226.368 429.12 226.368C409.728 225.408 394.176 209.28 394.176 189.6C394.176 169.248 410.688 152.736 431.04 152.736C451.392 152.736 467.904 169.248 467.904 189.6Z" fill="#EAEAE9"/>
<path d="M431.232 178.176L434.112 304.704H427.968L430.848 178.176H431.232Z" fill="#D3D0D0"/>
<path d="M403.392 192.96L432.384 220.416H430.272L458.592 194.688L458.784 194.784L432.384 222.624L431.232 223.776L430.176 222.528L403.392 192.96Z" fill="#D3D0D0"/>
<path d="M418.944 185.76L432 197.28H430.464L443.136 186.048L443.232 186.144L432 198.912L431.232 199.776L430.464 198.912L418.944 185.76Z" fill="#D3D0D0"/>
<path d="M60.384 303.264H137.184V154.944H60.384V303.264Z" fill="#EAEAE9"/>
<path d="M68.832 190.464H131.328V167.712H68.832V190.464Z" fill="#FEFEFE"/>
<path d="M68.832 228.096H131.328V205.248H68.832V228.096Z" fill="#FEFEFE"/>
<path d="M62.88 157.632C62.208 157.632 61.728 157.056 61.728 156.48V146.496C61.728 145.824 62.208 145.344 62.88 145.344H137.184C137.856 145.344 138.336 145.824 138.336 146.496C138.336 147.168 137.856 147.744 137.184 147.744H64.128V156.48C64.128 157.056 63.552 157.632 62.88 157.632Z" fill="#EAEAE9"/>
<path d="M69.024 158.688C68.352 158.688 67.776 158.112 67.776 157.536V146.496C67.776 145.824 68.352 145.344 69.024 145.344C69.696 145.344 70.176 145.824 70.176 146.496V157.536C70.176 158.112 69.696 158.688 69.024 158.688Z" fill="#EAEAE9"/>
<path d="M76.32 158.4C75.648 158.4 75.072 157.92 75.072 157.248V147.072C75.072 146.4 75.648 145.824 76.32 145.824C76.896 145.824 77.472 146.4 77.472 147.072V157.248C77.472 157.92 76.896 158.4 76.32 158.4Z" fill="#EAEAE9"/>
<path d="M83.808 158.784C83.136 158.784 82.656 158.304 82.656 157.632V147.072C82.656 146.4 83.136 145.824 83.808 145.824C84.48 145.824 85.056 146.4 85.056 147.072V157.632C85.056 158.304 84.48 158.784 83.808 158.784Z" fill="#EAEAE9"/>
<path d="M92.448 158.688C91.776 158.688 91.2 158.112 91.2 157.536V146.88C91.2 146.208 91.776 145.728 92.448 145.728C93.12 145.728 93.6 146.208 93.6 146.88V157.536C93.6 158.112 93.12 158.688 92.448 158.688Z" fill="#EAEAE9"/>
<path d="M99.456 157.92C98.784 157.92 98.208 157.344 98.208 156.672V147.456C98.208 146.784 98.784 146.208 99.456 146.208C100.128 146.208 100.608 146.784 100.608 147.456V156.672C100.608 157.344 100.128 157.92 99.456 157.92Z" fill="#EAEAE9"/>
<path d="M106.368 158.4C105.696 158.4 105.12 157.92 105.12 157.248V147.168C105.12 146.496 105.696 146.016 106.368 146.016C106.944 146.016 107.52 146.496 107.52 147.168V157.248C107.52 157.92 106.944 158.4 106.368 158.4Z" fill="#EAEAE9"/>
<path d="M115.296 158.112C114.624 158.112 114.144 157.632 114.144 156.96V146.88C114.144 146.208 114.624 145.728 115.296 145.728C115.968 145.728 116.544 146.208 116.544 146.88V156.96C116.544 157.632 115.968 158.112 115.296 158.112Z" fill="#EAEAE9"/>
<path d="M122.112 157.92C121.44 157.92 120.864 157.344 120.864 156.672V147.744C120.864 147.072 121.44 146.496 122.112 146.496C122.784 146.496 123.264 147.072 123.264 147.744V156.672C123.264 157.344 122.784 157.92 122.112 157.92Z" fill="#EAEAE9"/>
<path d="M130.56 157.632C129.888 157.632 129.408 157.056 129.408 156.48V147.456C129.408 146.784 129.888 146.208 130.56 146.208C131.232 146.208 131.712 146.784 131.712 147.456V156.48C131.712 157.056 131.232 157.632 130.56 157.632Z" fill="#EAEAE9"/>
<path d="M136.608 303.264H213.408V108.864H136.608V303.264Z" fill="#EAEAE9"/>
<path d="M142.176 135.648H160.992V116.832H142.176V135.648Z" fill="#FEFEFE"/>
<path d="M165.312 135.648H184.032V116.832H165.312V135.648Z" fill="#FEFEFE"/>
<path d="M187.776 135.648H206.592V116.832H187.776V135.648Z" fill="#FEFEFE"/>
<path d="M142.176 158.4H160.992V139.584H142.176V158.4Z" fill="#FEFEFE"/>
<path d="M165.312 158.4H184.032V139.584H165.312V158.4Z" fill="#FEFEFE"/>
<path d="M187.776 158.4H206.592V139.584H187.776V158.4Z" fill="#FEFEFE"/>
<path d="M142.176 180.96H160.992V162.144H142.176V180.96Z" fill="#FEFEFE"/>
<path d="M165.312 180.96H184.032V162.144H165.312V180.96Z" fill="#FEFEFE"/>
<path d="M187.776 180.96H206.592V162.144H187.776V180.96Z" fill="#FEFEFE"/>
<path d="M142.176 203.712H160.992V184.896H142.176V203.712Z" fill="#FEFEFE"/>
<path d="M165.312 203.712H184.032V184.896H165.312V203.712Z" fill="#FEFEFE"/>
<path d="M187.776 203.712H206.592V184.896H187.776V203.712Z" fill="#FEFEFE"/>
<path d="M142.176 226.464H160.992V207.648H142.176V226.464Z" fill="#FEFEFE"/>
<path d="M165.312 226.464H184.032V207.648H165.312V226.464Z" fill="#FEFEFE"/>
<path d="M187.776 226.464H206.592V207.648H187.776V226.464Z" fill="#FEFEFE"/>
<path d="M142.176 249.024H160.992V230.208H142.176V249.024Z" fill="#FEFEFE"/>
<path d="M165.312 249.024H184.032V230.208H165.312V249.024Z" fill="#FEFEFE"/>
<path d="M187.776 249.024H206.592V230.208H187.776V249.024Z" fill="#FEFEFE"/>
<path d="M299.136 303.264H386.4V82.176H299.136V303.264Z" fill="#EAEAE9"/>
<path d="M305.376 112.608H326.784V91.2H305.376V112.608Z" fill="#FEFEFE"/>
<path d="M331.68 112.608H353.088V91.2H331.68V112.608Z" fill="#FEFEFE"/>
<path d="M357.216 112.608H378.624V91.2H357.216V112.608Z" fill="#FEFEFE"/>
<path d="M305.376 138.528H326.784V117.12H305.376V138.528Z" fill="#FEFEFE"/>
<path d="M331.68 138.528H353.088V117.12H331.68V138.528Z" fill="#FEFEFE"/>
<path d="M357.216 138.528H378.624V117.12H357.216V138.528Z" fill="#FEFEFE"/>
<path d="M305.376 164.064H326.784V142.752H305.376V164.064Z" fill="#FEFEFE"/>
<path d="M331.68 164.064H353.088V142.752H331.68V164.064Z" fill="#FEFEFE"/>
<path d="M357.216 164.064H378.624V142.752H357.216V164.064Z" fill="#FEFEFE"/>
<path d="M305.376 189.984H326.784V168.576H305.376V189.984Z" fill="#FEFEFE"/>
<path d="M331.68 189.984H353.088V168.576H331.68V189.984Z" fill="#FEFEFE"/>
<path d="M357.216 189.984H378.624V168.576H357.216V189.984Z" fill="#FEFEFE"/>
<path d="M305.376 215.904H326.784V194.496H305.376V215.904Z" fill="#FEFEFE"/>
<path d="M331.68 215.904H353.088V194.496H331.68V215.904Z" fill="#FEFEFE"/>
<path d="M357.216 215.904H378.624V194.496H357.216V215.904Z" fill="#FEFEFE"/>
<path d="M305.376 241.536H326.784V220.128H305.376V241.536Z" fill="#FEFEFE"/>
<path d="M331.68 241.536H353.088V220.128H331.68V241.536Z" fill="#FEFEFE"/>
<path d="M357.216 241.536H378.624V220.128H357.216V241.536Z" fill="#FEFEFE"/>
<path d="M476.64 300V325.056H96.96V291.072H474.144C475.392 293.856 476.256 296.832 476.64 300Z" fill="#404EED"/>
<path d="M215.808 292.416C215.808 304.512 212.256 315.744 206.016 325.056H106.752C100.608 315.744 96.96 304.512 96.96 292.416C96.96 292.032 96.96 291.552 96.96 291.072C97.728 258.912 124.032 233.088 156.384 233.088C188.736 233.088 215.04 258.912 215.808 291.072C215.808 291.552 215.808 292.032 215.808 292.416Z" fill="#404EED"/>
<path d="M338.208 282.048C338.208 297.984 333.504 312.768 325.344 325.056H194.4C186.24 312.768 181.536 297.984 181.536 282.048C181.536 281.472 181.536 280.896 181.536 280.224C182.496 237.792 217.248 203.712 259.872 203.712C302.496 203.712 337.152 237.792 338.112 280.224C338.208 280.896 338.208 281.472 338.208 282.048Z" fill="#404EED"/>
<path d="M429.888 298.176C429.888 308.064 427.008 317.376 421.92 325.056H339.84C334.752 317.376 331.776 308.064 331.776 298.176C331.776 297.792 331.776 297.408 331.776 297.024C332.448 270.432 354.144 249.12 380.832 249.12C407.52 249.12 429.312 270.432 429.888 297.024C429.888 297.408 429.888 297.792 429.888 298.176Z" fill="#404EED"/>
<path d="M477.024 305.184C477.024 306.912 476.928 308.736 476.64 310.368C475.872 315.744 473.952 320.736 471.072 325.056H410.496C406.752 319.392 404.64 312.576 404.64 305.184C404.64 304.896 404.64 304.608 404.64 304.32C404.736 299.616 405.696 295.2 407.424 291.072C412.992 278.112 425.856 268.992 440.832 268.992C455.808 268.992 468.672 278.112 474.144 291.072C475.392 293.856 476.256 296.832 476.64 300C476.832 301.344 477.024 302.88 477.024 304.32C477.024 304.608 477.024 304.896 477.024 305.184Z" fill="#404EED"/>
<path d="M189.408 312.576V325.056H0V308.064H188.16C188.448 308.736 188.64 309.504 188.928 310.176C189.024 310.656 189.12 311.232 189.216 311.808C189.312 312 189.312 312.288 189.408 312.576Z" fill="#404EED"/>
<path d="M59.232 308.832C59.232 309.216 59.232 309.696 59.232 310.176C59.232 310.752 59.136 311.232 59.136 311.808C58.944 313.248 58.752 314.592 58.368 316.032C58.08 317.088 57.792 318.144 57.408 319.2C56.64 321.312 55.584 323.232 54.432 325.056H4.8C3.648 323.232 2.592 321.312 1.824 319.2C1.44 318.144 1.152 317.088 0.864 316.032C0.48 314.592 0.288 313.248 0.096 311.808C0.096 311.232 0 310.752 0 310.176C0 309.696 0 309.216 0 308.832C0 308.544 0 308.352 0 308.064C0 306.72 0.192 305.28 0.384 303.936C0.48 303.648 0.48 303.36 0.576 303.072C3.168 289.44 15.168 279.168 29.664 279.168C36.096 279.168 42.144 281.28 47.04 284.832C52.992 289.152 57.216 295.584 58.752 303.072C58.752 303.36 58.848 303.648 58.848 303.936C59.04 305.28 59.232 306.72 59.232 308.064C59.232 308.352 59.232 308.544 59.232 308.832Z" fill="#404EED"/>
<path d="M120.288 303.648C120.288 311.52 117.984 318.912 113.952 325.056H48.576C44.544 318.912 42.144 311.52 42.144 303.648C42.144 303.36 42.144 302.976 42.144 302.688C42.624 281.568 60 264.576 81.216 264.576C102.528 264.576 119.808 281.568 120.288 302.688C120.288 302.976 120.288 303.36 120.288 303.648Z" fill="#404EED"/>
<path d="M166.08 311.616C166.08 316.608 164.64 321.216 162.048 325.056H121.152C118.56 321.216 117.12 316.608 117.12 311.616C117.12 311.424 117.12 311.232 117.12 311.04C117.408 297.792 128.256 287.136 141.6 287.136C154.944 287.136 165.792 297.792 166.08 311.04C166.08 311.232 166.08 311.424 166.08 311.616Z" fill="#404EED"/>
<path d="M189.6 315.168C189.6 316.032 189.504 316.896 189.408 317.76C189.024 320.448 188.064 322.944 186.624 325.056H156.384C154.56 322.176 153.408 318.816 153.408 315.168C153.408 314.976 153.408 314.88 153.408 314.688C153.504 312.384 153.984 310.176 154.848 308.064C157.632 301.632 164.064 297.12 171.552 297.12C179.04 297.12 185.376 301.632 188.16 308.064C188.736 309.504 189.216 310.944 189.408 312.576C189.504 313.248 189.6 314.016 189.6 314.688C189.6 314.88 189.6 314.976 189.6 315.168Z" fill="#404EED"/>
<path d="M531.936 308.064V325.056H342.528V312.576C342.624 312.288 342.624 312 342.72 311.808C342.816 311.232 342.912 310.656 343.008 310.176C343.296 309.504 343.488 308.736 343.776 308.064H531.936Z" fill="#404EED"/>
<path d="M531.936 308.832C531.936 309.216 531.936 309.696 531.936 310.176C531.936 310.752 531.84 311.232 531.84 311.808C531.648 313.248 531.456 314.592 531.072 316.032C530.784 317.088 530.496 318.144 530.112 319.2C529.344 321.312 528.288 323.232 527.136 325.056H477.504C477.216 324.576 476.928 324.096 476.64 323.616C475.872 322.176 475.104 320.736 474.528 319.2C474.528 319.008 474.432 318.912 474.432 318.72C474.048 317.856 473.76 316.992 473.568 316.032C473.184 314.592 472.992 313.248 472.8 311.808C472.8 311.232 472.704 310.752 472.704 310.176C472.704 309.696 472.704 309.216 472.704 308.832C472.704 308.544 472.704 308.352 472.704 308.064C472.704 306.72 472.896 305.28 473.088 303.936C473.088 303.648 473.184 303.36 473.184 303.072C473.76 300.48 474.624 297.984 475.776 295.584C477.888 291.36 481.056 287.616 484.896 284.832C489.792 281.28 495.84 279.168 502.272 279.168C516.768 279.168 528.768 289.44 531.36 303.072C531.456 303.36 531.552 303.648 531.552 303.936C531.744 305.28 531.936 306.72 531.936 308.064C531.936 308.352 531.936 308.544 531.936 308.832Z" fill="#404EED"/>
<path d="M411.648 303.648C411.648 311.52 413.952 318.912 418.08 325.056H483.36C487.392 318.912 489.792 311.52 489.792 303.648C489.792 303.36 489.792 302.976 489.792 302.688C489.312 281.568 471.936 264.576 450.72 264.576C429.408 264.576 412.128 281.568 411.648 302.688C411.648 302.976 411.648 303.36 411.648 303.648Z" fill="#404EED"/>
<path d="M365.856 311.616C365.856 316.608 367.296 321.216 369.888 325.056H410.784C413.376 321.216 414.816 316.608 414.816 311.616C414.816 311.424 414.816 311.232 414.816 311.04C414.528 297.792 403.68 287.136 390.336 287.136C376.992 287.136 366.144 297.792 365.856 311.04C365.856 311.232 365.856 311.424 365.856 311.616Z" fill="#404EED"/>
<path d="M342.336 315.168C342.336 316.032 342.432 316.896 342.528 317.76C342.912 320.448 343.872 322.944 345.312 325.056H375.552C377.376 322.176 378.528 318.816 378.528 315.168C378.528 314.976 378.528 314.88 378.528 314.688C378.432 312.384 377.952 310.176 377.088 308.064C374.304 301.632 367.872 297.12 360.384 297.12C352.992 297.12 346.56 301.632 343.776 308.064C343.2 309.504 342.816 310.944 342.528 312.576C342.432 313.248 342.336 314.016 342.336 314.688C342.336 314.88 342.336 314.976 342.336 315.168Z" fill="#404EED"/>
<path d="M531.936 311.808H531.84C531.84 311.232 531.936 310.752 531.936 310.176V311.808Z" fill="#5A8DC9"/>
<path d="M333.696 311.808H332.352C332.544 311.232 332.736 310.752 333.024 310.176H333.312C333.408 310.752 333.6 311.232 333.696 311.808Z" fill="#5A8DC9"/>
<path d="M0.096 311.808H0V310.176C0 310.752 0.096 311.232 0.096 311.808Z" fill="#5A8DC9"/>
<path d="M214.752 160.608C214.752 184.992 195.744 204.96 171.744 206.4C171.552 206.4 171.456 206.4 171.36 206.4C170.496 206.4 169.728 206.496 168.96 206.496C168.288 206.496 167.616 206.4 166.944 206.4C166.848 206.4 166.656 206.4 166.56 206.4C142.368 205.152 123.168 185.184 123.168 160.608C123.168 135.36 143.616 114.816 168.96 114.816C194.208 114.816 214.752 135.36 214.752 160.608Z" fill="#404EED"/>
<path d="M172.8 303.936C172.8 303.936 172.8 303.84 172.8 303.744L169.152 146.496C169.152 146.4 169.056 146.304 168.96 146.304C168.864 146.304 168.768 146.4 168.672 146.496L165.12 303.744V303.936H172.8Z" fill="#2D2E48"/>
<path d="M134.592 164.928L170.592 199.008H167.904L203.232 166.944H203.424V167.136L170.592 201.696C169.824 202.368 168.672 202.464 168 201.792L167.904 201.696L134.592 164.928Z" fill="#2D2E48"/>
<path d="M153.888 155.904L170.112 170.304H168.192L183.936 156.288H184.128V156.384L170.112 172.224C169.632 172.8 168.864 172.8 168.288 172.32L168.192 172.224L153.888 155.904Z" fill="#2D2E48"/>
<path d="M130.176 151.776C130.368 149.376 131.04 147.072 131.904 144.864C132.672 142.56 133.728 140.352 134.976 138.336C137.472 134.208 140.832 130.464 144.864 127.68C145.344 127.296 145.824 126.912 146.304 126.624L147.84 125.664C148.416 125.28 148.896 125.088 149.472 124.8C150.048 124.416 150.528 124.224 151.104 123.936C153.312 122.88 155.616 122.208 158.016 121.536C162.72 120.48 167.52 120.192 172.224 120.672V120.96C167.52 121.344 162.912 122.112 158.496 123.552C154.176 124.896 150.048 127.008 146.4 129.696C144.576 131.136 142.848 132.672 141.216 134.304C139.68 135.936 138.24 137.664 136.896 139.584C134.208 143.328 131.904 147.36 130.176 151.776Z" fill="#60C7D0"/>
<path d="M168.96 87.456L155.424 69.6C157.92 64.416 159.36 58.656 159.36 52.512C159.36 30.912 141.888 13.44 120.288 13.44C98.6879 13.44 81.2159 30.912 81.2159 52.512C81.2159 74.112 98.6879 91.584 120.288 91.584C129.888 91.584 138.528 88.128 145.344 82.464L168.96 87.456Z" fill="#EDEDEE"/>
<path d="M291.84 296.928L405.216 92.736C405.408 92.448 405.888 92.256 406.272 92.448C406.656 92.64 406.752 93.12 406.56 93.504L302.4 302.496C300.864 305.472 297.312 306.624 294.336 305.184C291.456 303.648 290.208 300.096 291.648 297.216C291.744 297.12 291.744 297.024 291.84 296.928Z" fill="#2D2E48"/>
<path d="M452.64 51.936C475.488 77.472 473.28 116.64 447.744 139.488C422.208 162.336 383.04 160.128 360.192 134.592C337.44 109.056 339.552 69.888 365.088 47.04C390.624 24.288 429.792 26.4 452.64 51.936Z" fill="#60C7D0"/>
<path d="M406.368 42.24C393.792 42.24 381.792 46.752 372.384 55.2C362.208 64.32 356.16 76.8 355.392 90.432C354.624 104.064 359.232 117.216 368.352 127.392C377.472 137.568 389.952 143.52 403.584 144.288C417.216 145.056 430.272 140.448 440.448 131.328C461.472 112.608 463.296 80.256 444.48 59.232C435.36 49.056 422.88 43.008 409.248 42.24C408.288 42.24 407.328 42.24 406.368 42.24ZM406.464 149.184C405.408 149.184 404.352 149.088 403.296 149.088C388.416 148.224 374.688 141.696 364.8 130.56C354.816 119.424 349.824 105.12 350.688 90.144C351.456 75.264 358.08 61.632 369.216 51.648C380.256 41.664 394.656 36.672 409.536 37.536C424.416 38.304 438.144 44.928 448.032 56.064C458.016 67.2 463.008 81.504 462.144 96.384C461.376 111.264 454.752 124.992 443.616 134.88C433.344 144.192 420.192 149.184 406.464 149.184Z" fill="#FEFEFE"/>
<path d="M414.624 144.384L445.056 113.856L378.72 47.52C375.936 49.248 373.248 51.168 370.752 53.472C361.536 61.632 355.872 72.384 353.856 83.616L414.624 144.384Z" fill="#EAEAE9"/>
<path d="M371.904 134.112L383.808 122.112L352.992 91.296C352.512 104.64 356.928 118.176 366.528 128.928C368.256 130.848 369.984 132.48 371.904 134.112Z" fill="#D3D0D0"/>
<path d="M425.568 85.92L449.664 61.824C448.608 60.384 447.456 58.944 446.304 57.6C430.272 39.744 405.024 35.136 384.288 44.64L425.568 85.92Z" fill="#D3D0D0"/>
<path d="M453.024 67.008L429.792 90.144L455.136 115.392C462.048 100.032 461.472 81.984 453.024 67.008Z" fill="#EAEAE9"/>
<path d="M408.48 146.688L388.128 126.336L376.704 137.76C386.208 144.096 397.344 147.168 408.48 146.688Z" fill="#EAEAE9"/>
<path d="M452.16 120.96L449.376 118.08L423.456 144C430.176 141.696 436.512 138.144 442.08 133.152C446.112 129.504 449.472 125.376 452.16 120.96Z" fill="#D3D0D0"/>
<path d="M408.48 146.688L388.128 126.336L389.472 124.992L385.248 120.768L383.808 122.112L352.992 91.296C353.088 88.704 353.376 86.112 353.856 83.616L414.624 144.384L412.608 146.4C411.168 146.592 409.824 146.688 408.48 146.688Z" fill="#FEFEFE"/>
<path d="M452.16 120.96L449.376 118.08L452.448 115.008L448.224 110.784L445.056 113.856L378.72 47.52C380.544 46.464 382.368 45.408 384.288 44.64L425.568 85.92L423.744 87.744L427.968 91.968L429.792 90.144L455.136 115.392C454.272 117.312 453.312 119.136 452.16 120.96Z" fill="#FEFEFE"/>
<path d="M453.024 67.008L429.792 90.144L425.568 85.92L449.664 61.824C450.912 63.456 451.968 65.184 453.024 67.008Z" fill="#FEFEFE"/>
<path d="M423.744 87.744L427.968 91.968L429.792 90.144L425.568 85.92L423.744 87.744Z" fill="#FEFEFE"/>
<path d="M423.456 144L449.376 118.08L445.056 113.856L414.624 144.384L416.064 145.92C418.56 145.44 421.056 144.768 423.456 144Z" fill="#FEFEFE"/>
<path d="M416.064 145.92L414.624 144.384L412.512 146.4C413.76 146.304 414.912 146.112 416.064 145.92Z" fill="#FEFEFE"/>
<path d="M452.448 115.008L448.224 110.784L445.056 113.856L449.376 118.08L452.448 115.008Z" fill="#FEFEFE"/>
<path d="M388.128 126.336L376.704 137.76C375.072 136.608 373.44 135.456 371.904 134.112L383.808 122.112L388.128 126.336Z" fill="#FEFEFE"/>
<path d="M389.472 124.992L385.248 120.768L383.808 122.112L388.128 126.336L389.472 124.992Z" fill="#FEFEFE"/>
<path d="M405.792 33.984C391.2 33.984 377.376 39.264 366.432 49.056C354.624 59.52 347.616 74.112 346.752 89.856C345.888 105.6 351.168 120.864 361.728 132.576C372.288 144.384 386.784 151.392 402.624 152.256C418.368 153.12 433.536 147.84 445.344 137.28C457.152 126.72 464.16 112.224 465.024 96.48C465.888 80.64 460.512 65.472 450.048 53.664C439.488 41.856 424.992 34.944 409.152 33.984C408.096 33.984 406.944 33.984 405.792 33.984ZM405.984 157.92C404.736 157.92 403.488 157.92 402.24 157.824C384.96 156.864 369.12 149.184 357.6 136.32C346.08 123.456 340.224 106.848 341.184 89.568C342.144 72.288 349.824 56.448 362.688 44.832C375.552 33.312 392.256 27.552 409.44 28.512C426.72 29.472 442.656 37.056 454.176 49.92C465.696 62.88 471.552 79.488 470.592 96.768C469.632 114.048 461.952 129.888 449.088 141.408C437.088 152.16 421.92 157.92 405.984 157.92Z" fill="#2D2E48"/>
<path d="M452.064 51.84C457.728 57.696 462.144 64.8 464.928 72.48C467.808 80.16 468.96 88.416 468.576 96.672C468.096 104.832 465.984 112.992 462.336 120.288C458.688 127.68 453.504 134.208 447.168 139.392C453.024 133.728 457.824 127.008 461.184 119.712C464.544 112.416 466.56 104.544 467.04 96.576C467.232 92.544 467.04 88.512 466.56 84.576C465.984 80.544 465.12 76.608 463.872 72.864C461.28 65.184 457.248 58.08 452.064 51.84Z" fill="#FEFEFE"/>
<path d="M383.136 73.728C383.136 70.272 386.016 67.392 389.472 67.392C392.928 67.392 395.808 70.272 395.712 73.728C395.712 77.184 392.928 80.064 389.472 80.064C386.016 80.064 383.136 77.184 383.136 73.728ZM379.488 80.544V80.64C379.392 80.64 379.488 80.544 379.488 80.544ZM379.392 80.448C379.488 80.352 379.392 80.448 379.488 80.544L379.392 80.448ZM398.4 67.2C398.496 67.296 398.592 67.392 398.592 67.488C398.4 67.488 398.304 67.488 398.304 67.296L398.4 67.2ZM402.816 73.44C402.816 72.864 402.72 72.384 402.624 71.904C401.184 64.704 394.848 60.096 387.552 61.056C379.2 62.208 374.208 70.752 376.704 77.952C377.76 80.832 379.008 83.616 380.448 86.4C382.176 89.664 384.096 92.928 386.112 96.096C387.072 97.728 388.128 99.168 389.088 100.8C389.376 101.184 389.472 101.184 389.76 100.8C392.448 96.768 395.04 92.64 397.44 88.32C399.264 84.96 400.992 81.6 402.144 77.856C402.624 76.416 403.008 74.976 402.816 73.44Z" fill="#F1664A"/>
<path d="M398.4 67.2L398.304 67.296C398.304 67.488 398.4 67.488 398.592 67.488C398.592 67.392 398.496 67.296 398.4 67.2Z" fill="#2A62AC"/>
<path d="M379.392 80.448L379.488 80.544C379.392 80.448 379.488 80.352 379.392 80.448Z" fill="#2A62AC"/>
<path d="M379.488 80.64V80.544C379.488 80.544 379.392 80.64 379.488 80.64Z" fill="#2A62AC"/>
<path d="M398.688 67.68V67.584H398.592H398.688V67.68Z" fill="#2A62AC"/>
<path d="M411.936 19.392C411.936 14.112 416.256 9.792 421.536 9.792C426.816 9.888 431.136 14.208 431.04 19.488C431.04 24.672 426.72 28.992 421.44 28.992C416.256 28.992 411.936 24.672 411.936 19.392ZM406.272 29.76L406.464 29.952C406.272 29.952 406.368 29.76 406.272 29.76ZM406.176 29.568C406.368 29.472 406.272 29.664 406.272 29.76L406.176 29.568ZM435.072 9.504C435.264 9.6 435.36 9.792 435.36 9.984C435.168 9.984 434.976 9.888 434.88 9.696C434.88 9.6 434.976 9.504 435.072 9.504ZM441.792 18.912C441.792 18.144 441.696 17.376 441.504 16.608C439.296 5.76 429.696 -1.248 418.656 0.191999C405.984 1.92 398.4 14.88 402.144 25.728C403.68 30.24 405.6 34.464 407.808 38.592C410.496 43.68 413.376 48.576 416.448 53.376C417.888 55.776 419.52 58.08 420.96 60.48C421.44 61.056 421.536 61.152 422.016 60.48C426.048 54.336 429.984 48.096 433.536 41.664C436.416 36.48 439.008 31.296 440.832 25.728C441.504 23.52 442.08 21.312 441.792 18.912Z" fill="#FAD83B"/>
<path d="M435.072 9.504C434.976 9.504 434.88 9.6 434.88 9.696C434.976 9.888 435.168 9.984 435.36 9.984C435.36 9.792 435.264 9.6 435.072 9.504Z" fill="#FEFEFE"/>
<path d="M406.176 29.568L406.272 29.76C406.272 29.664 406.368 29.472 406.176 29.568Z" fill="#FEFEFE"/>
<path d="M406.464 29.952L406.272 29.76C406.368 29.76 406.272 29.952 406.464 29.952Z" fill="#FEFEFE"/>
<path d="M435.552 10.176L435.36 9.984L435.552 10.176Z" fill="#FEFEFE"/>
<path d="M199.104 127.392L185.76 101.664L180.096 102.144L192.48 138.048L199.104 127.392Z" fill="#F58E6B"/>
<path d="M216.096 103.68C213.6 105.312 198.528 123.84 198.528 123.84L186.72 103.68C186.24 103.968 178.56 110.208 178.56 110.208L192.48 138.048C193.536 141.216 199.296 144.288 203.712 140.736C205.44 139.872 224.736 117.12 224.736 117.12C224.736 117.12 219.648 101.28 216.096 103.68Z" fill="#ECB13A"/>
<path d="M184.224 99.264L183.84 91.104C183.744 90.336 183.072 89.76 182.304 89.856L176.64 90.816C176.256 90.816 175.968 91.2 176.064 91.584L176.928 101.568C176.928 102.336 177.696 102.912 178.464 102.72L183.168 101.856C183.84 101.76 184.224 101.184 184.224 100.512V99.36V99.264Z" fill="#2D2E48"/>
<path d="M182.976 100.8L182.784 90.816L176.832 91.488L177.888 101.664L182.976 100.8Z" fill="#FEFEFE"/>
<path d="M175.776 94.176C175.968 94.176 180.48 94.272 180.384 95.424C180.288 96.48 176.064 95.712 175.488 95.52C174.816 95.328 174.624 94.176 175.776 94.176Z" fill="#F58E6B"/>
<path d="M175.68 95.904C175.872 95.904 179.232 96 179.424 96.672C179.616 97.344 176.832 97.344 175.584 97.248C174.432 97.056 175.008 96 175.68 95.904Z" fill="#F58E6B"/>
<path d="M176.16 97.44C176.16 97.44 178.848 97.056 178.944 97.632C179.04 98.208 176.448 98.784 175.68 98.4C174.912 98.112 175.392 97.44 176.16 97.44Z" fill="#F58E6B"/>
<path d="M176.352 98.784C176.352 98.784 178.656 98.496 178.752 98.88C178.848 99.36 176.64 99.936 175.968 99.552C175.296 99.264 175.68 98.784 176.352 98.784Z" fill="#F58E6B"/>
<path d="M185.472 102.24C185.472 102.24 187.488 100.512 187.392 99.072C187.296 97.632 185.184 96.672 184.416 95.232C183.648 93.792 183.744 92.832 183.744 92.832C183.744 92.832 182.208 94.176 182.88 95.424C183.552 96.672 184.416 97.92 184.416 97.92C184.416 97.92 182.112 99.36 182.784 101.76C183.456 104.16 185.472 102.24 185.472 102.24Z" fill="#F58E6B"/>
<path d="M203.712 124.032L199.2 156.192C203.04 157.824 205.632 157.728 207.936 157.056L207.36 133.824L203.712 124.032Z" fill="#FAD83B"/>
<path d="M225.216 97.728C214.368 97.824 205.92 104.736 205.92 104.736L209.376 112.128C209.376 112.224 201.12 119.136 201.12 119.136C201.12 119.136 205.344 134.208 206.304 139.776C207.936 133.248 209.568 126.72 211.968 120.48C214.368 114.144 217.632 108.192 222.144 103.2C223.392 101.76 224.832 100.416 225.504 98.592L225.216 97.728Z" fill="#FAD83B"/>
<path d="M210.528 117.504C210.528 117.504 206.688 128.544 206.304 139.392C205.92 150.144 205.344 157.536 205.344 157.536L207.936 157.056L212.928 121.152L210.528 117.504Z" fill="#FAD83B"/>
<path d="M210.048 144.48L196.512 297.888L205.056 299.328L247.872 149.664L210.048 144.48Z" fill="#F8A17A"/>
<path d="M244.32 163.008L231.264 213.12L230.976 214.368L228.288 224.448L228 225.6L225.024 237.12L224.736 238.176L221.568 250.272L221.28 251.424L217.632 265.44L217.344 266.592L214.848 276.288L214.56 277.344L212.256 285.984C211.68 285.984 211.2 285.888 210.624 285.792C208.608 285.024 206.496 284.736 204.288 284.448C204.192 284.448 204.096 284.448 204 284.352C203.712 284.256 203.52 284.352 203.424 284.352C200.832 284.16 198.144 284.16 195.648 283.872C195.744 283.296 195.744 282.72 195.84 282.144C195.84 281.856 195.84 281.568 195.84 281.28C195.36 244.896 199.872 204.288 203.616 177.504C205.248 165.792 206.688 156.672 207.552 151.68C207.936 148.992 208.224 147.552 208.224 147.552L213.12 150.048L220.416 153.696L220.992 153.888C220.992 153.888 220.8 155.424 220.416 158.112C220.224 159.84 219.936 162.048 219.552 164.64L220.416 164.544L244.32 163.008Z" fill="#D3D0D0"/>
<path d="M207.648 152.832L246.336 301.92L254.88 300.384L245.088 145.056L207.648 152.832Z" fill="#F8A17A"/>
<path d="M249.408 148.128L244.224 148.896L249.6 149.376L249.408 148.128Z" fill="#EAEAE9"/>
<path d="M256.8 281.952V280.8L256.224 268.704L256.128 267.648L255.552 254.4L255.456 253.248L254.784 237.792L254.688 236.64L254.208 225.024L254.112 223.872L253.44 209.472V208.224L252.864 196.128L252.768 194.88L252.192 182.112V180.96L251.52 167.424V166.176L250.944 161.472C248.16 162.048 244.224 162.72 239.52 163.104L248.64 285.504L247.872 285.6L233.952 163.488C229.248 163.68 224.544 163.392 220.416 162.912V182.496L214.176 180.672C214.176 180.768 214.176 180.864 214.176 181.056L214.272 181.536C220.512 218.688 228.864 254.976 241.344 289.632L241.632 290.592L241.92 291.936L257.184 290.976L256.8 281.952Z" fill="#EAEAE9"/>
<path d="M235.968 163.392C235.296 163.392 234.624 163.488 233.952 163.488L247.872 285.6L248.64 285.504L239.52 163.104C238.368 163.2 237.216 163.296 235.968 163.392Z" fill="#F1664A"/>
<path d="M209.376 161.376L209.76 155.232L207.168 154.176C206.304 159.36 204.96 167.52 203.616 177.504C204.288 177.792 205.056 178.08 205.92 178.272L211.008 179.712L211.968 180L214.176 180.672C214.368 176.064 216.48 168.768 218.496 162.72C213.12 162.144 209.376 161.376 209.376 161.376Z" fill="#EAEAE9"/>
<path d="M220.416 162.912C219.744 162.912 219.072 162.816 218.496 162.72C216.48 168.768 214.368 176.064 214.176 180.672L220.416 182.496V162.912Z" fill="#EAEAE9"/>
<path d="M233.952 163.488L233.184 156.288L238.944 155.808L239.52 163.104C244.224 162.72 248.16 162.048 250.944 161.472L249.6 149.376L244.224 148.896L222.336 152.16C222.336 152.16 221.568 154.176 220.416 157.248V162.912C224.544 163.392 229.248 163.68 233.952 163.488Z" fill="#D3D0D0"/>
<path d="M233.184 156.288L233.952 163.488C234.624 163.488 235.296 163.392 235.968 163.392C237.216 163.296 238.368 163.2 239.52 163.104L238.944 155.808L233.184 156.288Z" fill="#F05942"/>
<path d="M209.376 161.376C209.376 161.376 213.12 162.144 218.496 162.72C219.168 160.704 219.84 158.88 220.416 157.248V148.704L213.888 149.856L213.12 150.048H212.832L207.936 150.912C207.744 151.2 207.648 151.488 207.552 151.68C207.36 152.448 207.264 153.216 207.168 154.176L209.76 155.232L209.376 161.376Z" fill="#D3D0D0"/>
<path d="M220.416 162.912V157.248C219.84 158.88 219.168 160.704 218.496 162.72C219.072 162.816 219.744 162.912 220.416 162.912Z" fill="#D3D0D0"/>
<path d="M204.768 302.112L195.168 299.04C194.016 299.04 181.824 298.752 180.864 300.096C179.904 301.632 203.136 309.216 203.136 309.216L204.768 302.112Z" fill="#F1664A"/>
<path d="M206.016 297.024L195.84 295.584L195.168 299.04L204.768 302.112L206.016 297.024Z" fill="#FEFEFE"/>
<path d="M255.552 303.168L245.472 303.456C244.32 303.84 232.8 307.584 232.416 309.216C231.936 310.944 256.32 310.272 256.32 310.272L255.552 303.168Z" fill="#F1664A"/>
<path d="M254.976 297.888L244.992 300L245.472 303.456L255.552 303.168L254.976 297.888Z" fill="#FEFEFE"/>
<path d="M241.92 105.024C239.808 103.968 237.696 102.912 235.584 101.952C235.392 101.856 235.296 101.76 235.2 101.664C234.912 101.664 234.72 101.568 234.432 101.568C234.144 101.472 233.952 101.28 233.952 101.088C233.28 100.992 232.704 100.896 232.128 100.896C232.032 100.896 231.936 100.896 231.84 100.896C231.264 100.896 230.88 100.992 230.88 100.992L229.632 100.8C224.928 100.8 220.512 101.856 220.512 101.856C220.512 101.856 210.432 113.664 209.952 115.584C208.32 119.232 211.392 121.92 211.392 121.92C211.392 121.92 206.784 141.12 206.304 146.304C206.208 147.168 206.112 147.936 206.112 148.512C206.304 148.896 206.592 149.28 206.88 149.664C209.088 152.928 213.408 153.6 217.056 153.888C223.104 154.272 229.344 154.176 235.488 154.464C240.48 154.752 245.568 154.656 248.64 150.72C246.624 134.016 243.744 112.512 241.92 105.024Z" fill="#FEFEFE"/>
<path d="M253.152 156L243.072 108.288C242.016 107.04 241.152 105.696 240 104.544L232.896 106.944C226.464 106.752 220.896 119.136 215.328 130.944C212.928 134.016 211.296 155.904 211.68 156.48C213.696 159.36 254.496 158.88 253.152 156Z" fill="#ECB13A"/>
<path d="M259.104 291.456L238.368 292.512L237.984 284.448L258.72 283.392L259.104 291.456Z" fill="#E1D1DB"/>
<path d="M213.216 291.552L192.768 288.096L194.112 280.128L214.56 283.68L213.216 291.552Z" fill="#EAEAE9"/>
<path d="M230.688 102.72C231.168 101.952 231.744 101.28 232.416 100.704L231.168 100.512C227.424 100.512 223.968 100.992 220.512 101.856C223.488 103.296 227.04 103.392 230.688 102.72Z" fill="#F8A17A"/>
<path d="M230.688 100.896L229.536 100.992L224.064 101.568L224.16 99.36V97.152L224.256 92.064L228.96 89.088L230.304 97.92L230.688 100.896Z" fill="#F8A17A"/>
<path d="M230.496 95.808C229.632 96.384 228.576 96.768 227.424 96.864C223.008 97.344 221.28 97.248 220.416 95.808C220.128 95.328 219.936 94.656 219.84 93.792C219.648 92.928 219.552 91.776 219.36 90.432C219.168 88.32 219.84 86.4 220.992 84.96H221.088C221.28 84.576 221.568 84.288 221.856 84.096V84C223.008 83.136 224.352 82.56 225.792 82.368C227.232 82.176 228.48 82.464 229.632 82.944C231.936 84 233.664 86.112 233.952 88.8C234.24 91.68 232.8 94.368 230.496 95.808Z" fill="#F8A17A"/>
<path d="M219.552 89.28L217.248 92.736L220.32 93.12L219.552 89.472V89.28Z" fill="#F8A17A"/>
<path d="M228.288 89.088C228.288 89.088 230.016 86.976 231.072 89.088C232.224 91.296 230.4 93.408 228.384 92.832L228.288 89.088Z" fill="#F8A17A"/>
<path d="M224.448 88.608L224.256 88.512C222.144 87.264 220.896 88.224 220.896 88.224C220.704 88.32 220.608 88.32 220.416 88.224C220.32 88.032 220.416 87.84 220.512 87.744C220.512 87.744 222.048 86.496 224.544 88.032C224.736 88.128 224.736 88.32 224.64 88.416C224.64 88.512 224.544 88.608 224.448 88.608Z" fill="#2D2E48"/>
<path d="M230.496 95.808L230.304 95.904C230.112 95.424 230.016 94.848 230.016 94.368C230.016 94.176 230.016 93.984 230.112 93.792C230.208 93.6 230.4 93.504 230.592 93.408C231.36 93.024 232.128 92.352 232.32 91.488C232.512 90.624 231.936 89.664 231.072 89.376C230.208 89.184 229.152 89.664 228.864 90.432C228.672 90.912 228.672 91.488 228.384 91.968C228.192 92.352 227.424 92.64 227.136 92.256C227.424 90.816 227.712 89.376 228 87.936C228 87.744 228 87.552 228 87.456C227.904 87.264 227.712 87.168 227.52 87.072C226.944 86.784 226.272 86.688 225.6 86.688C225.216 86.784 224.832 86.784 224.544 86.688C224.16 86.688 223.776 86.4 223.776 86.016C223.776 85.824 223.872 85.536 223.68 85.344C223.584 85.152 223.488 85.152 223.296 85.152C222.528 85.056 221.76 84.96 220.992 84.96H221.28C221.184 84.96 221.088 84.96 221.088 84.96H220.992C220.992 84.864 220.896 84.864 220.8 84.864C221.088 84.576 221.472 84.288 221.856 84.096V84C223.968 82.848 226.944 82.848 229.632 82.944C231.936 84 233.664 86.112 233.952 88.8C234.24 91.68 232.8 94.368 230.496 95.808Z" fill="#2D2E48"/>
<path d="M220.8 94.848C220.512 94.848 220.128 94.752 219.84 94.656C219.648 94.56 219.648 94.368 219.648 94.176C219.744 94.08 219.936 93.984 220.032 94.08C220.608 94.368 221.184 94.272 221.952 93.984C222.144 93.888 222.24 93.984 222.336 94.176C222.432 94.272 222.336 94.464 222.144 94.56C221.664 94.752 221.28 94.848 220.8 94.848Z" fill="#F26C5C"/>
<path d="M221.664 89.472H221.568C220.8 89.472 220.8 90.72 221.568 90.72H221.664C222.432 90.72 222.432 89.472 221.664 89.472Z" fill="#2D2E48"/>
<path d="M230.592 92.352C230.4 92.352 230.304 92.256 230.304 92.16C230.208 92.064 230.304 91.872 230.4 91.776C230.592 91.776 231.168 91.392 230.88 90.72C230.784 90.528 230.688 90.432 230.592 90.432C230.4 90.432 230.016 90.72 229.92 90.816C229.824 90.912 229.632 90.912 229.536 90.816C229.344 90.72 229.344 90.528 229.44 90.432C229.536 90.336 230.112 89.76 230.688 89.856C230.88 89.952 231.168 90.048 231.36 90.528C231.84 91.488 231.072 92.16 230.688 92.352H230.592Z" fill="#F26C5C"/>
<path d="M223.872 90.336L220.704 89.856C220.512 89.76 220.416 89.664 220.416 89.472C220.416 89.28 220.608 89.184 220.8 89.28L223.968 89.76C224.16 89.76 224.256 89.952 224.16 90.048C224.16 90.24 224.064 90.336 223.872 90.336Z" fill="#2D2E48"/>
<path d="M230.688 88.224C228.96 88.992 226.944 89.088 225.12 88.512C225.312 88.704 225.408 89.088 225.408 89.376C223.776 88.992 222.24 87.936 221.28 86.592C221.184 86.4 220.896 86.208 220.8 86.4C220.704 86.4 220.8 86.592 220.8 86.688C220.896 87.168 220.992 87.648 221.184 88.224C219.744 87.36 218.784 85.728 218.784 84C218.784 83.52 218.88 82.944 219.168 82.56C219.648 81.888 220.416 81.6 221.184 81.408C222.336 81.12 223.68 81.024 224.928 81.024C226.464 81.024 228.096 81.024 229.728 81.024C231.072 81.024 235.008 81.984 235.968 86.016C235.968 86.016 236.832 91.392 236.544 92.832C236.064 95.328 227.808 97.824 227.52 97.152L230.112 93.792L232.032 92.928L233.376 91.488L232.8 89.088L230.688 88.224Z" fill="#2D2E48"/>
<path d="M225.12 113.664L228.288 120.192L212.928 140.448C212.928 140.448 217.632 113.856 226.944 106.56C232.128 100.704 230.688 100.896 230.688 100.896L230.304 97.92C237.12 98.016 238.944 103.776 238.944 103.776L225.12 113.664Z" fill="#FAD83B"/>
<path d="M254.112 141.792L219.072 135.552L217.536 140.16C217.536 140.16 249.024 157.92 259.104 154.464C261.696 151.488 254.112 141.792 254.112 141.792Z" fill="#F8A17A"/>
<path d="M236.352 103.2C229.152 105.504 231.168 111.648 232.512 119.232C232.608 120 232.896 120.864 233.184 121.824C233.568 122.976 233.952 124.032 234.528 125.184C236.736 129.888 240.384 135.36 243.264 139.488C234.816 137.952 224.544 136.512 224.544 136.512L223.2 147.072C223.2 147.072 250.944 157.92 259.2 155.136C260.832 153.792 260.928 151.776 261.024 150.912C261.792 143.904 246.912 99.552 236.352 103.2Z" fill="#FAD83B"/>
<path d="M220.032 136.992C220.032 136.992 216.576 132.096 216.096 131.808C215.712 131.52 215.04 131.328 214.176 131.616C213.216 131.904 209.568 133.92 208.608 133.824C207.648 133.728 208.512 134.784 210.72 134.4C212.928 134.112 214.272 132.864 214.848 133.536C214.944 133.728 211.296 135.36 211.584 135.936C211.872 136.512 212.736 138.24 214.08 137.952C215.424 137.76 215.616 137.088 215.616 137.088C215.616 137.088 215.04 138.336 215.52 139.296C216.096 140.16 218.112 140.352 218.112 140.352L220.032 136.992Z" fill="#F8A17A"/>
<path d="M215.04 135.648C215.04 135.648 212.64 137.856 213.024 138.432C213.312 139.008 214.272 140.16 215.04 140.064C215.712 139.872 214.944 139.104 214.944 139.104L214.272 138.528L216.192 136.8L215.04 135.648Z" fill="#F8A17A"/>
<path d="M213.504 137.952C214.272 137.376 215.136 136.896 215.904 136.32C216.288 136.032 215.904 135.36 215.52 135.648C214.656 136.128 213.888 136.704 213.12 137.28C212.736 137.472 213.12 138.24 213.504 137.952Z" fill="#F26C5C"/>
<path d="M212.64 136.512C213.504 135.936 214.368 135.456 215.232 134.88C215.616 134.592 215.232 133.92 214.752 134.208C213.984 134.784 213.12 135.264 212.256 135.84C211.776 136.032 212.16 136.8 212.64 136.512Z" fill="#F26C5C"/>
<path d="M225.12 113.568L238.56 104.352C238.752 104.256 239.04 104.256 239.136 104.448C239.232 104.64 239.232 104.832 239.04 105.024L225.216 113.856L225.024 113.76L225.12 113.568Z" fill="#ECB13A"/>
<path d="M229.344 152.064H229.248C229.056 152.064 228.864 151.872 228.96 151.584L230.784 136.416C230.784 136.224 230.976 136.032 231.264 136.032C231.456 136.032 231.552 136.32 231.552 136.512L229.728 151.68C229.728 151.872 229.536 152.064 229.344 152.064Z" fill="#ECB13A"/>
<path d="M238.368 105.408C239.616 107.04 240.576 108.672 241.536 110.4C242.496 112.128 243.456 113.856 244.32 115.584C246.048 119.04 247.488 122.688 248.832 126.336C250.08 129.984 251.232 133.632 252.288 137.376C253.344 141.12 254.304 144.864 254.976 148.704C255.072 148.896 254.88 149.088 254.688 149.184H254.496L230.4 143.424C230.208 143.424 230.112 143.232 230.112 142.944C230.208 142.752 230.4 142.656 230.592 142.656L254.688 148.416L254.208 148.8C253.344 145.152 252.288 141.408 251.04 137.76C249.888 134.112 248.544 130.56 247.104 127.008C245.664 123.456 244.032 120 242.208 116.64C241.248 115.008 240.288 113.376 239.328 111.744C238.272 110.208 237.216 108.576 236.16 107.136H236.064C235.584 106.464 235.68 105.6 236.352 105.12C236.928 104.544 237.888 104.736 238.368 105.312V105.408Z" fill="#ECB13A"/>
<path d="M226.848 97.056L224.16 99.36V97.152C224.544 97.152 226.848 97.056 226.848 97.056Z" fill="#F58E6B"/>
<path d="M262.176 310.08C262.176 309.888 262.176 309.696 262.176 309.504L262.272 309.216C262.272 309.024 262.368 308.832 262.368 308.64L262.656 307.584L263.136 305.472L264.192 301.344L266.4 293.088L270.816 276.672L279.936 243.744V243.648C280.416 242.208 281.952 241.536 283.296 241.92C284.16 242.208 284.832 242.976 285.024 243.84L301.344 308.64C301.44 309.12 301.248 309.504 300.768 309.6C300.384 309.696 300 309.504 299.808 309.12L279.936 245.28H285.024L274.176 277.632L268.8 293.856L266.208 301.92L264.864 305.952L264.288 307.968L264 309.024C263.904 309.216 263.904 309.312 263.808 309.504V309.696L263.712 309.6C263.904 310.08 263.616 310.464 263.232 310.656C262.848 310.752 262.368 310.56 262.176 310.08Z" fill="#D3D0D0"/>
<path d="M262.944 279.936C266.112 279.36 269.184 279.072 272.256 278.784C275.424 278.592 278.496 278.592 281.664 278.592C284.736 278.592 287.808 278.688 290.976 278.88C294.048 279.072 297.12 279.36 300.288 279.936C297.12 280.512 294.048 280.8 290.976 280.992C287.808 281.28 284.736 281.28 281.664 281.376C278.496 281.376 275.424 281.28 272.256 281.088C269.184 280.896 266.112 280.512 262.944 279.936Z" fill="#D3D0D0"/>
<path d="M310.752 279.36L309.216 300.192L315.936 302.88L320.064 281.568L310.752 279.36Z" fill="#644345"/>
<path d="M308.544 297.408L307.968 309.6C307.968 309.6 331.68 308.832 331.104 307.2C330.624 305.664 319.2 302.592 318.048 302.304L318.432 298.944L308.544 297.408Z" fill="#2D2E48"/>
<path d="M307.872 290.4C309.216 290.4 321.024 291.744 321.024 291.744C321.024 291.744 328.992 244.224 329.664 239.904C330.336 235.584 332.256 221.76 316.128 221.088C299.904 220.416 265.248 216.192 265.248 216.192C265.248 216.192 261.312 236.64 283.392 240.576C305.568 244.512 309.504 243.84 309.504 243.84L307.872 290.4Z" fill="#F05942"/>
<path d="M324.192 226.08C321.984 226.464 304.224 236.64 279.552 239.616C280.704 240 282.048 240.288 283.392 240.576C305.568 244.512 309.504 243.84 309.504 243.84L307.872 290.4C309.216 290.4 321.024 291.744 321.024 291.744C321.024 291.744 328.992 244.224 329.664 239.904C330.048 237.216 330.912 230.88 327.744 226.368C326.688 225.984 325.536 225.888 324.192 226.08Z" fill="#F05942"/>
<path d="M301.92 245.376H263.424C261.216 245.376 259.392 243.648 259.392 241.44V240.864C259.392 238.656 261.216 236.832 263.424 236.832H301.92C304.128 236.832 305.856 238.656 305.856 240.864V241.44C305.856 243.648 304.128 245.376 301.92 245.376Z" fill="#FAD83B"/>
<path d="M321.984 160.224C321.024 159.648 293.76 147.36 289.44 147.36C285.024 147.36 289.536 164.16 289.536 164.16C289.536 164.16 317.76 174.048 320.544 172.704C330.528 169.92 325.632 162.624 321.984 160.224Z" fill="#2D2E48"/>
<path d="M315.072 160.512C316.224 159.552 317.472 158.592 318.624 157.536L293.952 140.64L291.264 145.056L311.136 163.584C312.384 162.528 313.728 161.472 315.072 160.512Z" fill="#644345"/>
<path d="M300.864 143.328C299.328 144.672 295.968 146.784 294.336 147.936L312.672 165.024C318.144 166.272 325.824 165.024 324.48 162.528C323.04 160.032 300.864 143.328 300.864 143.328Z" fill="#2D2E48"/>
<path d="M290.4 144.192L283.584 141.792C282.72 141.504 282.336 140.64 282.72 139.776L284.448 135.936C284.832 135.264 285.6 134.88 286.368 135.168L293.952 138.048C294.72 138.336 295.104 139.296 294.72 140.064L292.992 143.616C292.704 144.288 291.936 144.672 291.264 144.48L290.496 144.192H290.4Z" fill="#2D2E48"/>
<path d="M292.32 143.424L283.392 140.736L285.504 135.648L294.336 139.008L292.32 143.424Z" fill="#FEFEFE"/>
<path d="M287.616 135.36C287.616 135.552 286.56 139.68 287.616 139.968C288.576 140.16 288.96 135.936 289.056 135.36C289.056 134.784 287.904 134.208 287.616 135.36Z" fill="#644345"/>
<path d="M289.248 135.744C289.248 135.936 288.48 139.104 289.056 139.392C289.632 139.68 290.4 137.088 290.592 135.936C290.688 134.88 289.536 135.072 289.248 135.744Z" fill="#644345"/>
<path d="M290.688 136.512C290.688 136.512 289.632 139.008 290.112 139.2C290.592 139.392 291.84 137.184 291.648 136.32C291.552 135.552 290.88 135.84 290.688 136.512Z" fill="#644345"/>
<path d="M291.84 137.088C291.84 137.088 290.976 139.104 291.36 139.296C291.744 139.488 292.8 137.568 292.704 136.896C292.608 136.224 291.936 136.416 291.84 137.088Z" fill="#644345"/>
<path d="M292.224 145.536C292.224 145.536 290.304 146.784 289.152 146.4C288 145.92 287.712 144 286.656 143.136C285.696 142.176 284.832 141.984 284.832 141.984C284.832 141.984 286.272 141.024 287.136 141.792C288.096 142.656 288.96 143.712 288.96 143.712C288.96 143.712 290.592 142.176 292.416 143.232C294.24 144.288 292.224 145.536 292.224 145.536Z" fill="#644345"/>
<path d="M266.304 156.384L266.4 152.064L266.304 152.16C265.728 153.408 265.248 154.848 264.768 156.384C265.344 156.384 265.824 156.384 266.304 156.384Z" fill="#FEFEFE"/>
<path d="M296.736 157.056C296.448 155.52 295.968 154.08 295.488 152.736C293.28 149.184 290.4 146.4 285.12 145.824C282.144 145.536 279.168 145.824 276.288 146.592L277.152 156.576C283.68 156.672 290.208 156.864 296.736 157.056Z" fill="#FEFEFE"/>
<path d="M266.304 173.952H262.272C262.176 174.144 262.176 174.336 262.176 174.624C262.176 175.2 262.08 175.776 262.08 176.352C262.08 177.6 261.984 178.848 261.984 180.096C263.328 180.096 264.768 180.096 266.208 180.096L266.304 173.952Z" fill="#FEFEFE"/>
<path d="M266.304 165.12C265.248 165.024 264.192 164.928 263.04 164.832C263.04 165.408 262.944 165.984 262.848 166.56C262.656 168.384 262.464 170.304 262.368 172.224H266.304V165.12Z" fill="#FEFEFE"/>
<path d="M266.304 158.016C265.632 158.016 265.056 158.016 264.384 158.016C264.288 158.304 264.192 158.688 264.096 159.072C263.808 160.416 263.52 161.76 263.328 163.296C264.288 163.296 265.344 163.392 266.304 163.488V158.016Z" fill="#FEFEFE"/>
<path d="M277.728 164.16C284.64 164.544 291.456 164.832 298.368 165.024C298.08 163.2 297.792 161.472 297.408 159.84C297.312 159.456 297.216 159.072 297.216 158.688C290.496 158.496 283.872 158.4 277.248 158.208L277.728 164.16Z" fill="#FEFEFE"/>
<path d="M279.168 181.632L279.744 189.504C286.656 189.504 293.664 189.504 300.576 189.408C300.48 187.776 300.384 186.24 300.288 184.608C300.192 184.032 300.192 183.456 300.192 182.88C300.096 182.4 300.096 181.92 300.096 181.536C293.088 181.536 286.08 181.632 279.168 181.632Z" fill="#FEFEFE"/>
<path d="M279.936 191.232L280.32 195.84C287.136 195.744 294.048 195.648 300.864 195.648C300.864 195.456 300.864 195.264 300.864 195.072C300.864 194.4 300.768 193.824 300.768 193.248C300.768 192.576 300.672 191.808 300.672 191.04C293.76 191.136 286.848 191.136 279.936 191.136V191.232Z" fill="#FEFEFE"/>
<path d="M278.496 173.952L278.976 180C285.984 180 292.992 179.904 299.904 179.904C299.808 178.656 299.712 177.504 299.616 176.256C299.616 175.68 299.52 175.104 299.52 174.528C299.424 174.24 299.424 174.048 299.424 173.856C294.144 173.76 288.864 173.952 283.68 173.952H278.496Z" fill="#FEFEFE"/>
<path d="M277.824 165.792L278.4 172.224H283.68C288.864 172.224 294.048 172.128 299.232 172.128C299.136 170.88 298.944 169.728 298.848 168.48C298.752 167.904 298.656 167.328 298.56 166.752V166.656C291.648 166.464 284.736 166.176 277.824 165.792Z" fill="#FEFEFE"/>
<path d="M266.208 196.032V191.232C264.672 191.232 263.136 191.328 261.696 191.328C261.696 192 261.696 192.768 261.6 193.536C261.6 194.112 261.6 194.688 261.6 195.264C261.6 195.552 261.6 195.84 261.6 196.128C263.136 196.032 264.672 196.032 266.208 196.032Z" fill="#FEFEFE"/>
<path d="M301.248 201.792C301.152 201.216 301.152 200.64 301.152 200.064C301.056 199.104 301.056 198.144 300.96 197.28C294.144 197.28 287.232 197.376 280.416 197.472V197.568L289.44 203.424L288.48 206.88H301.536C301.44 205.248 301.344 203.52 301.248 201.792Z" fill="#FEFEFE"/>
<path d="M266.208 197.664C264.672 197.664 263.136 197.76 261.6 197.76C261.6 198.72 261.504 199.584 261.504 200.544C261.504 201.12 261.504 201.696 261.504 202.368C261.408 203.904 261.408 205.44 261.312 206.88H266.304H266.112L266.208 197.664Z" fill="#FEFEFE"/>
<path d="M266.208 181.728C264.768 181.728 263.328 181.728 261.888 181.728C261.888 182.208 261.888 182.688 261.888 183.072C261.792 183.744 261.792 184.32 261.792 184.896C261.792 186.432 261.696 188.064 261.696 189.6C263.232 189.6 264.672 189.6 266.208 189.6V181.728Z" fill="#FEFEFE"/>
<path d="M261.6 196.128H261.504C261.504 196.608 261.504 197.184 261.504 197.76H261.6C261.6 197.184 261.6 196.608 261.6 196.128Z" fill="#F2747D"/>
<path d="M300.96 197.28C301.056 197.28 301.152 197.28 301.248 197.28C301.152 196.704 301.152 196.224 301.152 195.648C301.056 195.648 300.96 195.648 300.864 195.648C300.96 196.224 300.96 196.704 300.96 197.28Z" fill="#F2747D"/>
<path d="M280.416 197.472C287.232 197.376 294.144 197.28 300.96 197.28C300.96 196.704 300.96 196.224 300.864 195.648C294.048 195.648 287.136 195.744 280.32 195.84L280.416 197.472Z" fill="#F2747D"/>
<path d="M266.208 197.664V196.032C264.672 196.032 263.136 196.032 261.6 196.128C261.6 196.608 261.6 197.184 261.6 197.76C263.136 197.76 264.672 197.664 266.208 197.664Z" fill="#F2747D"/>
<path d="M261.696 189.6H261.6C261.6 190.176 261.6 190.752 261.6 191.328H261.696C261.696 190.752 261.696 190.176 261.696 189.6Z" fill="#F2747D"/>
<path d="M300.672 191.04H300.864C300.864 190.464 300.768 189.984 300.768 189.408C300.672 189.408 300.672 189.408 300.576 189.408C300.576 189.984 300.576 190.56 300.672 191.04Z" fill="#F2747D"/>
<path d="M279.744 189.504L279.936 191.136C286.848 191.136 293.76 191.136 300.672 191.04C300.576 190.56 300.576 189.984 300.576 189.408C293.664 189.504 286.656 189.504 279.744 189.504Z" fill="#F2747D"/>
<path d="M266.208 189.6C264.672 189.6 263.232 189.6 261.696 189.6C261.696 190.176 261.696 190.752 261.696 191.328C263.136 191.328 264.672 191.232 266.208 191.232V189.6Z" fill="#F2747D"/>
<path d="M300.096 181.536H300.288C300.192 180.96 300.192 180.384 300.192 179.904H299.904C300 180.384 300 180.96 300.096 181.536Z" fill="#F2747D"/>
<path d="M261.984 180.096H261.888C261.792 180.672 261.792 181.152 261.792 181.728H261.888C261.888 181.152 261.888 180.672 261.984 180.096Z" fill="#F2747D"/>
<path d="M279.168 181.632C286.08 181.632 293.088 181.536 300.096 181.536C300 180.96 300 180.384 299.904 179.904C292.992 179.904 285.984 180 278.976 180L279.168 181.632Z" fill="#F2747D"/>
<path d="M266.208 180.096C264.768 180.096 263.328 180.096 261.984 180.096C261.888 180.672 261.888 181.152 261.888 181.728C263.328 181.728 264.768 181.728 266.208 181.728V180.096Z" fill="#F2747D"/>
<path d="M299.424 173.856C299.52 173.856 299.52 173.856 299.616 173.856C299.616 173.28 299.52 172.704 299.52 172.128C299.424 172.128 299.328 172.128 299.232 172.128C299.328 172.704 299.328 173.28 299.424 173.856Z" fill="#F2747D"/>
<path d="M262.368 172.224H262.176C262.176 172.8 262.08 173.376 262.08 173.952H262.272C262.272 173.376 262.272 172.8 262.368 172.224Z" fill="#F2747D"/>
<path d="M278.4 172.224L278.496 173.952H283.68C288.864 173.952 294.144 173.76 299.424 173.856C299.328 173.28 299.328 172.704 299.232 172.128C294.048 172.128 288.864 172.224 283.68 172.224H278.4Z" fill="#F2747D"/>
<path d="M266.304 172.224H262.368C262.272 172.8 262.272 173.376 262.272 173.952H266.304V172.224Z" fill="#F2747D"/>
<path d="M263.328 163.296C263.232 163.2 263.136 163.2 263.136 163.2C263.04 163.776 262.944 164.352 262.848 164.832C262.944 164.832 263.04 164.832 263.04 164.832L263.136 164.736C263.136 164.256 263.232 163.776 263.328 163.296Z" fill="#F2747D"/>
<path d="M298.56 166.656C298.656 166.656 298.752 166.656 298.848 166.656C298.752 166.08 298.656 165.6 298.56 165.024C298.464 165.024 298.464 165.024 298.368 165.024C298.464 165.6 298.464 166.08 298.56 166.656Z" fill="#F2747D"/>
<path d="M266.304 163.488C265.344 163.392 264.288 163.296 263.328 163.296C263.232 163.776 263.136 164.256 263.136 164.736L263.04 164.832C264.192 164.928 265.248 165.024 266.304 165.12V163.488Z" fill="#F2747D"/>
<path d="M277.728 164.16L277.824 165.792C284.736 166.176 291.648 166.464 298.56 166.656C298.464 166.08 298.464 165.6 298.368 165.024C291.456 164.832 284.64 164.544 277.728 164.16Z" fill="#F2747D"/>
<path d="M297.216 158.688C297.216 158.688 297.312 158.688 297.408 158.688C297.312 158.112 297.12 157.536 297.024 157.056C296.928 157.056 296.832 157.056 296.736 157.056C296.832 157.344 296.928 157.632 297.024 158.016C297.12 158.208 297.12 158.4 297.216 158.688Z" fill="#F2747D"/>
<path d="M264.768 156.384C264.672 156.288 264.576 156.288 264.576 156.288C264.384 156.864 264.192 157.44 264.096 157.92C264.192 158.016 264.288 158.016 264.384 158.016C264.384 157.728 264.48 157.536 264.576 157.248C264.576 156.96 264.672 156.672 264.768 156.384Z" fill="#F2747D"/>
<path d="M266.304 158.016V156.384C265.824 156.384 265.344 156.384 264.768 156.384C264.672 156.672 264.576 156.96 264.576 157.248C264.48 157.536 264.384 157.728 264.384 158.016C265.056 158.016 265.632 158.016 266.304 158.016Z" fill="#F2747D"/>
<path d="M277.152 156.576L277.248 158.208C283.872 158.4 290.496 158.496 297.216 158.688C297.12 158.4 297.12 158.208 297.024 158.016C296.928 157.632 296.832 157.344 296.736 157.056C290.208 156.864 283.68 156.672 277.152 156.576Z" fill="#F2747D"/>
<path d="M287.04 211.872L288.48 206.88H266.304L287.04 211.872Z" fill="#EAEAE9"/>
<path d="M277.824 165.792C273.984 165.6 270.144 165.312 266.304 165.12V172.224H278.4L277.824 165.792Z" fill="#EAEAE9"/>
<path d="M278.976 180L278.496 173.952H266.304L266.208 180.096C270.528 180.096 274.752 180.096 278.976 180Z" fill="#EAEAE9"/>
<path d="M277.248 158.208C273.6 158.112 269.952 158.112 266.304 158.016V163.488C270.144 163.68 273.888 163.968 277.728 164.16L277.248 158.208Z" fill="#EAEAE9"/>
<path d="M279.168 181.632C274.848 181.728 270.528 181.728 266.208 181.728V189.6C270.72 189.6 275.232 189.6 279.744 189.504L279.168 181.632Z" fill="#EAEAE9"/>
<path d="M280.416 197.568V197.472C275.616 197.472 270.912 197.568 266.208 197.664L266.112 206.88H266.304H288.48L289.44 203.424L280.416 197.568Z" fill="#EAEAE9"/>
<path d="M266.304 156.384C269.952 156.48 273.504 156.48 277.152 156.576L276.288 146.592C272.64 147.648 269.28 149.568 266.4 152.064L266.304 156.384Z" fill="#EAEAE9"/>
<path d="M280.32 195.84L279.936 191.232V191.136C275.328 191.232 270.72 191.232 266.208 191.232V196.032C270.912 195.936 275.616 195.84 280.32 195.84Z" fill="#EAEAE9"/>
<path d="M280.32 195.84C275.616 195.84 270.912 195.936 266.208 196.032V197.664C270.912 197.568 275.616 197.472 280.416 197.472L280.32 195.84Z" fill="#F0565F"/>
<path d="M279.744 189.504C275.232 189.6 270.72 189.6 266.208 189.6V191.232C270.72 191.232 275.328 191.232 279.936 191.136L279.744 189.504Z" fill="#F0565F"/>
<path d="M278.976 180C274.752 180.096 270.528 180.096 266.208 180.096V181.728C270.528 181.728 274.848 181.728 279.168 181.632L278.976 180Z" fill="#F0565F"/>
<path d="M278.4 172.224H266.304V173.952H278.496L278.4 172.224Z" fill="#F0565F"/>
<path d="M277.728 164.16C273.888 163.968 270.144 163.68 266.304 163.488V165.12C270.144 165.312 273.984 165.6 277.824 165.792L277.728 164.16Z" fill="#F0565F"/>
<path d="M277.248 158.208L277.152 156.576C273.504 156.48 269.952 156.48 266.304 156.384V158.016C269.952 158.112 273.6 158.112 277.248 158.208Z" fill="#F0565F"/>
<path d="M332.256 260.16L336 280.608L343.296 281.472L341.856 259.968L332.256 260.16Z" fill="#754C4F"/>
<path d="M333.984 276.768L335.232 288.864C335.232 288.864 358.56 284.448 357.792 282.912C357.024 281.472 345.312 280.224 344.16 280.128L343.968 276.672L333.984 276.768Z" fill="#343358"/>
<path d="M282.624 152.736C277.92 152.736 276.768 148.8 276.48 146.496C278.88 145.92 281.376 145.632 283.872 145.728C284.352 145.728 284.736 145.728 285.12 145.824C285.696 145.824 286.176 145.92 286.752 146.016C286.944 146.112 287.136 146.112 287.328 146.208C287.712 148.896 287.328 152.736 282.624 152.736Z" fill="#754C4F"/>
<path d="M278.208 136.224L277.824 147.84H284.256L283.104 138.624L278.208 136.224Z" fill="#754C4F"/>
<path d="M300.576 160.32C298.944 154.944 294.72 147.936 287.328 146.208C295.872 157.728 296.64 182.016 294.72 210.72C294.816 211.776 294.912 212.352 294.912 212.352C295.296 212.352 309.504 210.048 309.504 210.048C309.504 210.048 302.112 165.6 300.576 160.32Z" fill="#2D2E48"/>
<path d="M287.52 142.368C287.328 142.848 287.04 143.328 286.752 143.616C285.696 144.576 283.968 144.48 280.128 143.808C276.288 143.04 273.792 139.296 274.56 135.456C275.232 131.616 278.976 129.024 282.816 129.792C286.656 130.56 289.248 134.304 288.48 138.144C288.096 139.968 287.904 141.312 287.52 142.368Z" fill="#754C4F"/>
<path d="M289.056 142.176L286.08 141.6L286.944 138.432L288.48 138.336L289.056 142.176Z" fill="#754C4F"/>
<path d="M279.936 136.224C279.936 136.224 278.496 133.92 277.248 135.936C276 137.952 277.536 140.16 279.552 139.776L279.936 136.224Z" fill="#754C4F"/>
<path d="M283.68 136.608C283.584 136.608 283.488 136.608 283.392 136.512C283.2 136.32 283.2 136.128 283.392 135.936C285.024 134.304 287.616 135.552 287.712 135.552C288 135.648 288 135.936 287.904 136.128C287.808 136.32 287.616 136.416 287.424 136.32C287.424 136.32 285.216 135.264 283.968 136.512C283.872 136.608 283.776 136.608 283.68 136.608Z" fill="#2D2E48"/>
<path d="M294.336 200.448C296.544 199.488 298.848 198.624 301.056 197.856C302.4 200.352 303.744 202.848 305.088 205.248C303.36 205.152 301.536 205.152 299.808 205.248C299.712 204.672 299.232 204.288 298.752 204.192C298.272 204.096 297.792 204.192 297.312 204.288C295.968 204.48 294.528 204.192 293.376 203.52L294.336 200.448Z" fill="#754C4F"/>
<path d="M299.712 200.064C300 199.968 303.936 198.144 303.936 198.144L308.928 204.096C308.928 204.096 307.488 204.576 306.72 203.616C305.856 202.56 303.744 200.256 303.744 200.256L301.248 201.792L299.712 200.064Z" fill="#754C4F"/>
<path d="M300.288 205.728L314.784 182.688C314.784 182.688 314.88 181.92 316.896 181.92C319.008 181.92 346.368 181.92 346.368 181.92L347.712 182.784L310.848 205.728H300.288Z" fill="#60C7D0"/>
<path d="M301.632 205.248C302.208 204.672 315.072 182.784 315.936 182.784C316.704 182.784 347.712 182.784 347.712 182.784L334.176 204.768C334.176 204.768 300.96 205.92 301.632 205.248Z" fill="#404EED"/>
<path d="M285.504 205.248L285.408 206.784L301.536 206.88L301.632 205.248H285.504Z" fill="#4B64AC"/>
<path d="M334.176 204.768L333.984 206.016L301.536 206.88L301.632 205.248L334.176 204.768Z" fill="#3C57A4"/>
<path d="M329.28 194.208C329.76 195.648 328.8 197.088 327.264 197.568C325.728 197.952 324.192 197.28 323.808 195.84C323.424 194.496 324.288 193.056 325.824 192.576C327.36 192.096 328.896 192.864 329.28 194.208Z" fill="#3C57A4"/>
<path d="M344.16 270.624L333.6 270.24L323.712 226.368C323.712 226.368 285.696 243.552 268.224 238.56C257.76 235.584 255.84 223.872 255.936 215.04C256.032 208.992 256.992 204.288 256.992 204.288C256.992 204.288 272.64 206.208 289.824 206.208C298.176 206.208 307.008 205.632 314.496 204.288C337.248 199.968 344.16 211.872 343.872 218.784C343.488 225.696 344.16 270.624 344.16 270.624Z" fill="#F1664A"/>
<path d="M289.44 206.304C283.872 206.304 276.48 208.704 276.48 208.704L276.672 217.728L255.936 215.04C256.032 208.992 256.992 204.288 256.992 204.288C256.992 204.288 272.64 206.208 289.824 206.208C290.016 206.304 289.92 206.304 289.44 206.304Z" fill="#F05942"/>
<path d="M263.136 154.656C257.28 168.096 254.976 211.392 254.976 211.392L274.464 213.312C276.864 189.792 277.632 167.328 276.384 146.496C271.296 147.84 266.688 150.72 263.136 154.656Z" fill="#2D2E48"/>
<path d="M296.064 204.384C296.064 204.384 265.152 202.464 259.488 198.624C253.92 194.88 259.488 186.624 267.936 189.6C276.384 192.576 294.624 200.16 294.624 200.16L296.064 204.384Z" fill="#754C4F"/>
<path d="M271.104 190.752L273.024 157.536C270.048 152.736 266.784 151.872 263.136 154.656C260.16 161.664 254.592 185.76 254.592 187.968C254.592 190.08 252.768 196.8 259.488 198.624C263.712 201.504 291.168 206.016 291.168 206.016C291.168 206.016 291.264 200.544 291.552 198.912C286.848 196.896 277.632 193.152 271.104 190.752Z" fill="#343358"/>
<path d="M278.112 142.944C278.592 142.08 278.976 141.216 279.456 140.352C278.496 140.064 277.632 139.392 277.248 138.432C276.768 137.472 276.96 136.224 277.824 135.552C278.304 135.168 279.168 135.072 279.648 135.552C279.936 135.84 280.032 136.32 280.128 136.704C280.224 137.184 280.32 137.76 280.32 138.336C280.992 138.336 281.76 138.336 282.432 138.24C282.144 136.992 281.952 135.84 281.664 134.592C282.432 134.4 283.104 134.304 283.872 134.208C284.064 133.344 284.256 132.384 284.448 131.52C285.12 131.616 285.792 131.808 286.368 132C286.56 132.192 286.848 132.288 287.04 132.288C287.328 132.288 287.52 132.288 287.712 132.192C289.056 131.712 290.208 131.04 291.36 130.272C290.4 130.368 289.536 130.464 288.672 130.656C289.344 130.176 290.016 129.696 290.688 129.216C289.728 129.408 288.768 129.504 287.712 129.696C287.52 129.696 287.232 129.792 287.04 129.696C286.656 129.696 286.368 129.6 285.984 129.504C284.064 128.928 282.144 128.448 280.128 128.544C278.208 128.544 276.096 129.216 274.752 130.656C274.08 131.328 273.6 132.192 273.6 133.056C273.024 133.152 272.544 133.728 272.352 134.304C272.16 134.88 272.16 135.456 272.256 136.128C272.736 139.104 275.04 141.6 277.92 142.752L278.112 142.944Z" fill="#2D2E48"/>
<path d="M273.216 133.248C272.64 133.44 272.064 133.632 271.488 133.632C270.912 133.728 270.24 133.536 269.856 133.152C269.568 132.864 269.376 132.48 269.28 132.096C268.896 131.328 268.608 130.464 268.896 129.696C269.088 129.216 269.376 128.928 269.76 128.64C270.048 128.352 270.528 128.064 270.912 127.968C271.872 127.872 272.736 128.352 273.216 129.024C273.792 129.792 273.984 130.656 274.08 131.52C274.08 132.192 273.984 132.96 273.408 133.344L273.216 133.248Z" fill="#2D2E48"/>
<path d="M287.712 141.984C287.136 141.6 286.272 141.6 285.6 141.792C285.408 141.984 285.216 142.08 284.928 142.176C284.736 142.272 284.448 142.368 284.16 142.272C285.312 142.752 286.56 142.752 287.616 142.368L287.712 142.272V141.984Z" fill="#2D2E48"/>
<path d="M285.984 137.76H285.888C285.12 137.76 285.12 138.912 285.888 138.912H285.984C286.752 138.912 286.752 137.76 285.984 137.76Z" fill="#2D2E48"/>
<path d="M280.992 141.888C281.088 142.752 281.376 143.52 281.856 144.288C282.048 144.48 282.24 144.768 282.432 144.864C282.624 145.056 282.912 145.152 283.2 145.152C283.968 145.344 284.736 145.248 285.504 145.248C285.792 145.248 286.176 145.248 286.464 145.056C287.04 144.672 287.136 143.904 287.136 143.232C286.56 143.808 285.696 144.096 284.928 144C284.16 143.904 283.392 143.424 283.008 142.752C282.912 142.464 282.816 142.08 282.72 141.792C282.72 141.696 282.624 141.504 282.528 141.504L282.336 141.6C281.952 141.792 281.472 141.888 281.088 141.792L280.992 141.888Z" fill="#2D2E48"/>
<path d="M286.752 146.016L284.064 149.856L283.968 145.728C284.352 145.728 284.736 145.728 285.12 145.824C285.696 145.824 286.176 145.92 286.752 146.016Z" fill="#644345"/>
<path d="M269.568 153.6C268.032 159.36 266.592 165.216 265.248 170.976C264.48 173.856 263.808 176.736 263.136 179.616C262.464 182.592 261.888 185.472 261.408 188.352C261.312 189.024 261.12 189.792 261.12 190.368C261.12 190.368 261.216 190.464 261.312 190.56C261.504 190.752 261.888 190.944 262.176 191.136C263.424 191.808 264.768 192.384 266.112 192.96C268.8 194.112 271.584 195.168 274.368 196.128C280.032 198.144 285.696 200.064 291.36 201.888C291.552 201.984 291.648 202.176 291.552 202.464C291.552 202.656 291.264 202.752 291.072 202.656C285.312 201.024 279.648 199.296 273.984 197.472C271.104 196.608 268.32 195.648 265.44 194.592C264.096 194.016 262.656 193.44 261.216 192.768C260.928 192.576 260.544 192.384 260.16 192.096C259.968 192 259.776 191.808 259.584 191.52C259.488 191.52 259.296 191.04 259.296 190.944C259.2 190.848 259.2 190.656 259.2 190.464C259.2 189.6 259.296 188.832 259.392 188.064C259.776 185.088 260.352 182.112 260.832 179.136C261.408 176.256 261.984 173.28 262.656 170.4C263.808 164.544 265.056 158.688 266.4 152.832C266.592 151.968 267.456 151.392 268.32 151.584C269.184 151.872 269.76 152.736 269.568 153.6Z" fill="#2D2E48"/>
<path d="M279.072 139.488H278.976C278.88 139.488 276.96 138.624 277.44 137.088C277.536 136.512 277.824 136.224 278.208 136.032C278.784 135.84 279.264 136.032 279.264 136.032C279.456 136.128 279.552 136.32 279.456 136.416C279.36 136.608 279.264 136.608 279.072 136.608C279.072 136.608 278.784 136.416 278.4 136.608C278.208 136.704 278.112 136.896 278.016 137.184C277.824 137.856 278.304 138.432 278.784 138.72L278.688 138.528C278.688 138.336 278.88 138.144 278.976 138.144C279.168 138.144 279.264 138.24 279.36 138.432V139.2C279.36 139.296 279.36 139.392 279.264 139.488H279.072Z" fill="#4C333D"/>
<path fill-rule="evenodd" clip-rule="evenodd" d="M127.296 66.336C128.928 65.856 129.6 68.352 127.968 68.832C126.336 69.312 125.472 66.816 127.296 66.336ZM134.976 70.848H119.712C119.712 67.104 119.712 63.36 119.712 59.616C119.712 58.08 119.808 49.152 119.616 48.384H119.712C119.904 48.672 123.168 52.128 123.744 52.512C124.416 52.896 124.992 53.088 125.952 53.088C129.6 52.992 133.152 53.088 136.8 53.088V68.352C136.8 70.176 136.992 70.848 134.976 70.848ZM122.688 66.336C124.32 65.856 124.992 68.352 123.36 68.832C121.728 69.312 120.864 66.816 122.688 66.336Z" fill="#4FD8D6"/>
<path fill-rule="evenodd" clip-rule="evenodd" d="M104.928 66.336C105.216 66.144 108.192 66.24 108.768 66.24C109.536 66.24 109.824 66.432 109.824 67.2C109.824 69.216 109.92 68.928 105.504 68.832C104.736 68.832 104.544 68.64 104.544 67.872C104.448 67.104 104.352 66.624 104.928 66.336ZM119.712 70.848H104.256C102.336 70.848 102.528 69.984 102.528 68.256V53.088C106.08 53.088 109.728 52.992 113.28 53.088C114.24 53.088 114.816 52.992 115.488 52.512L116.928 51.168C117.216 50.88 119.424 48.864 119.616 48.384C119.808 49.152 119.712 58.08 119.712 59.616C119.712 63.36 119.712 67.104 119.712 70.848Z" fill="#92E5E5"/>
<path fill-rule="evenodd" clip-rule="evenodd" d="M105.888 48.384H107.328C107.136 47.52 105.792 43.68 105.792 43.104C105.792 42.144 107.712 42.528 108.576 42.528C109.632 42.528 110.976 42.432 112.032 42.528C112.224 41.28 111.36 41.376 111.36 40.32C111.36 39.84 111.552 39.648 111.84 39.36C112.128 39.168 112.416 38.88 112.608 38.592C113.376 37.728 114.048 38.208 114.624 38.592C115.296 39.072 116.448 38.688 116.832 38.304C116.832 37.728 116.352 36.672 116.16 36.288C115.872 35.712 115.488 35.04 115.104 34.656C114.144 33.696 113.376 32.928 111.84 32.352C110.4 31.872 108.96 31.68 107.232 32.16C105.6 32.544 104.064 33.504 103.008 34.656C102.432 35.424 101.856 36.384 101.568 37.344C100.8 39.552 101.088 41.856 102.24 43.872L103.488 45.408C103.776 45.792 104.064 45.984 104.832 46.752C105.216 47.328 105.504 47.904 105.888 48.384Z" fill="#D9D9D9"/>
<path fill-rule="evenodd" clip-rule="evenodd" d="M116.832 38.304C116.448 38.688 115.296 39.072 114.624 38.592C114.048 38.208 113.376 37.728 112.608 38.592C112.416 38.88 112.128 39.168 111.84 39.36C111.552 39.648 111.36 39.84 111.36 40.32C111.36 41.376 112.224 41.28 112.032 42.528C111.744 43.296 111.456 44.256 110.688 44.352C110.304 44.736 109.152 44.16 109.152 45.984C109.152 46.464 109.056 47.232 109.248 47.616C109.344 48.096 109.632 48.192 110.112 48.384H115.488C114.912 46.656 114.912 45.312 115.872 43.872C117.696 41.088 121.728 41.184 123.456 43.776C124.512 45.312 124.512 46.56 123.84 48.384H129.312C130.176 47.904 130.272 47.904 130.272 46.56C130.272 45.504 130.272 44.832 129.504 44.544C128.448 44.16 128.256 44.64 127.68 43.488C127.488 42.912 127.008 42.144 127.488 41.472C127.68 41.28 128.544 40.32 127.68 39.552C127.488 39.264 126.528 38.304 126.24 38.208C124.8 37.632 124.992 39.456 123.168 38.592C122.88 38.496 122.496 38.4 122.304 38.208C121.536 38.016 121.824 37.056 121.536 36.576C121.152 35.808 120.576 35.904 119.616 35.904C117.312 35.904 117.984 36.768 117.6 37.632C117.408 38.016 117.312 38.208 116.832 38.304Z" fill="#FFAC00"/>
<path fill-rule="evenodd" clip-rule="evenodd" d="M122.304 38.208C122.496 38.4 122.88 38.496 123.168 38.592C124.992 39.456 124.8 37.632 126.24 38.208C126.528 38.304 127.488 39.264 127.68 39.552C128.544 40.32 127.68 41.28 127.488 41.472C127.008 42.144 127.488 42.912 127.68 43.488C128.256 44.64 128.448 44.16 129.504 44.544C130.272 44.832 130.272 45.504 130.272 46.56C130.272 47.904 130.176 47.904 129.312 48.384H135.552V37.824C134.88 37.92 134.112 37.824 133.536 37.824C132.864 37.824 132.384 37.824 131.904 37.44C131.424 36.96 131.424 34.848 131.616 33.888C130.752 33.888 123.648 33.792 123.168 33.984C122.88 34.08 122.4 34.464 122.304 34.848C122.208 35.232 122.304 37.632 122.304 38.208Z" fill="#F2F2F2"/>
<path fill-rule="evenodd" clip-rule="evenodd" d="M136.8 53.088C137.376 53.088 139.104 53.088 139.488 52.992C139.968 52.992 140.352 52.416 139.776 51.84L136.896 48.384H135.552H129.312H123.84H119.712C119.904 48.672 123.168 52.128 123.744 52.512C124.416 52.896 124.992 53.088 125.952 53.088C129.6 52.992 133.152 53.088 136.8 53.088Z" fill="#00BEBD"/>
<path fill-rule="evenodd" clip-rule="evenodd" d="M102.528 53.088C106.08 53.088 109.728 52.992 113.28 53.088C114.24 53.088 114.816 52.992 115.488 52.512L116.928 51.168C117.216 50.88 119.424 48.864 119.616 48.384H115.488H110.112H108.768H107.328H105.888H102.432L99.36 52.128C99.168 52.512 99.456 52.896 99.744 52.992C100.032 53.088 102.048 53.088 102.528 53.088Z" fill="#50D9D6"/>
<path fill-rule="evenodd" clip-rule="evenodd" d="M115.488 48.384H119.616H119.712H123.84C124.512 46.56 124.512 45.312 123.456 43.776C121.728 41.184 117.696 41.088 115.872 43.872C114.912 45.312 114.912 46.656 115.488 48.384Z" fill="#F2F2F2"/>
<path fill-rule="evenodd" clip-rule="evenodd" d="M107.328 48.384H108.768L107.424 43.776H110.88L110.688 44.352C111.456 44.256 111.744 43.296 112.032 42.528C110.976 42.432 109.632 42.528 108.576 42.528C107.712 42.528 105.792 42.144 105.792 43.104C105.792 43.68 107.136 47.52 107.328 48.384Z" fill="#F2F2F2"/>
<path fill-rule="evenodd" clip-rule="evenodd" d="M104.928 66.336C104.352 66.624 104.448 67.104 104.544 67.872C104.544 68.64 104.736 68.832 105.504 68.832C109.92 68.928 109.824 69.216 109.824 67.2C109.824 66.432 109.536 66.24 108.768 66.24C108.192 66.24 105.216 66.144 104.928 66.336Z" fill="#F2F2F2"/>
<path fill-rule="evenodd" clip-rule="evenodd" d="M135.552 37.824L131.616 33.888C131.424 34.848 131.424 36.96 131.904 37.44C132.384 37.824 132.864 37.824 133.536 37.824C134.112 37.824 134.88 37.92 135.552 37.824Z" fill="#D9D9D9"/>
<path fill-rule="evenodd" clip-rule="evenodd" d="M108.768 48.384H110.112C109.632 48.192 109.344 48.096 109.248 47.616C109.056 47.232 109.152 46.464 109.152 45.984C109.152 44.16 110.304 44.736 110.688 44.352L110.88 43.776H107.424L108.768 48.384Z" fill="#D9D9D9"/>
<path fill-rule="evenodd" clip-rule="evenodd" d="M98.592 43.68C98.592 44.352 98.592 44.16 99.264 44.832L100.896 46.464C101.184 46.656 101.472 47.136 101.856 47.136C102.528 47.136 102.528 46.56 102.528 46.272C102.528 46.08 99.648 43.104 99.36 43.104C99.072 43.104 98.592 43.2 98.592 43.68Z" fill="#FFAC00"/>
<path fill-rule="evenodd" clip-rule="evenodd" d="M136.8 46.272C136.8 46.656 136.8 47.136 137.472 47.136C137.952 47.136 138.24 46.656 138.432 46.464L140.064 44.736C140.544 44.352 140.736 44.256 140.736 43.68C140.736 43.2 140.256 43.104 139.968 43.104C139.776 43.104 136.8 46.08 136.8 46.272Z" fill="#FFAC00"/>
<path fill-rule="evenodd" clip-rule="evenodd" d="M122.688 66.336C120.864 66.816 121.728 69.312 123.36 68.832C124.992 68.352 124.32 65.856 122.688 66.336Z" fill="#F2F2F2"/>
<path fill-rule="evenodd" clip-rule="evenodd" d="M127.296 66.336C125.472 66.816 126.336 69.312 127.968 68.832C129.6 68.352 128.928 65.856 127.296 66.336Z" fill="#F2F2F2"/>
<path fill-rule="evenodd" clip-rule="evenodd" d="M136.8 42.336C136.8 42.72 136.8 43.104 137.472 43.104C137.952 43.104 139.488 41.664 139.488 41.184C139.488 40.512 139.008 40.512 138.624 40.512C138.432 40.512 137.856 41.184 137.664 41.376C137.472 41.568 136.8 42.048 136.8 42.336Z" fill="#FFAC00"/>
<path fill-rule="evenodd" clip-rule="evenodd" d="M136.8 35.232C136.8 36.096 138.144 36.096 138.144 35.232C138.144 34.368 136.8 34.368 136.8 35.232Z" fill="#50D9D6"/>
<path fill-rule="evenodd" clip-rule="evenodd" d="M119.04 31.296C119.04 32.16 120.288 32.16 120.288 31.296C120.288 30.432 119.04 30.432 119.04 31.296Z" fill="#50D9D6"/>
<path fill-rule="evenodd" clip-rule="evenodd" d="M99.264 36.576C99.264 37.44 100.512 37.44 100.512 36.576C100.512 35.712 99.264 35.712 99.264 36.576Z" fill="#50D9D6"/>
<path fill-rule="evenodd" clip-rule="evenodd" d="M106.464 29.28C106.464 30.144 107.808 30.144 107.808 29.28C107.808 28.896 107.52 28.704 107.232 28.608H107.04C106.752 28.704 106.464 28.896 106.464 29.28Z" fill="#50D9D6"/>
<path fill-rule="evenodd" clip-rule="evenodd" d="M128.256 31.296C128.256 32.16 129.6 32.16 129.6 31.296C129.6 30.432 128.256 30.432 128.256 31.296Z" fill="#50D9D6"/>
</g>
<defs>
<clipPath id="clip0_45_2">
<rect width="531.936" height="325.056" fill="white"/>
</clipPath>
</defs>
</svg>
