<svg width="1167" height="346" viewBox="0 0 1167 346" fill="none" xmlns="http://www.w3.org/2000/svg">
<path d="M268.896 226.176C241.248 226.176 209.952 218.592 179.808 204.48C138.144 185.088 106.848 157.44 91.776 129.792L11.328 184.128C4.992 188.352 7.296 198.144 14.784 199.104L149.952 217.536C157.92 218.592 165.216 222.528 170.496 228.576L260.256 331.2C265.248 336.96 274.656 333.504 274.752 325.92L275.712 225.984C273.504 226.08 271.2 226.176 268.896 226.176Z" fill="white"/>
<path d="M268.896 211.968C241.248 211.968 209.952 204.288 179.808 190.272C108.768 157.152 67.68 100.032 86.304 60.096C104.928 20.256 175.104 14.88 246.144 48.096C269.28 58.848 290.304 72.96 306.912 88.704C310.56 92.064 310.656 97.728 307.296 101.28C303.84 104.928 298.272 105.12 294.624 101.664C279.456 87.264 260.064 74.304 238.464 64.32C178.656 36.384 116.352 37.92 102.528 67.68C88.608 97.44 127.488 146.208 187.296 174.048C217.632 188.16 248.928 195.264 275.424 193.824C300 192.576 316.896 184.32 323.328 170.688C329.952 156.384 323.52 140.064 316.896 128.928C314.4 124.608 315.84 119.232 320.064 116.64C324.384 114.144 329.856 115.584 332.352 119.808C344.736 140.832 347.328 161.568 339.552 178.176C330.24 198.24 307.776 210.048 276.384 211.776C273.984 211.872 271.392 211.968 268.896 211.968Z" fill="black"/>
<path fill-rule="evenodd" clip-rule="evenodd" d="M303.264 80.448L285.312 97.632C284.544 98.304 284.256 99.36 284.16 100.32C284.16 102.048 285.216 103.488 286.944 104.064C287.328 104.16 287.52 104.256 287.808 104.352L297.312 106.752C297.984 106.944 298.464 107.136 299.136 107.232C299.712 107.328 300.288 107.52 300.864 107.616L304.224 108.576C305.952 108.96 307.872 109.536 309.504 109.92C311.424 110.4 312.384 109.92 313.728 108.672C314.112 108.288 314.4 107.424 314.496 107.04C314.784 105.6 314.112 103.392 313.824 101.76C313.728 101.184 313.536 100.608 313.44 100.032L310.848 87.744C310.656 87.072 310.56 86.496 310.464 85.92L309.888 83.328C309.792 82.944 309.792 82.752 309.696 82.368C309.216 80.64 307.776 79.488 306.048 79.488C305.088 79.392 304.032 79.68 303.264 80.448Z" fill="white"/>
<path d="M566.976 166.08C566.976 188.064 560.352 207.552 547.2 224.448C533.376 242.112 515.808 252.384 494.496 255.072C497.568 264.288 503.04 272.544 510.816 280.032C511.296 280.416 511.584 280.992 511.584 281.568C511.584 283.776 508.8 285.12 503.136 285.6C503.232 285.6 499.488 285.6 491.904 285.6C481.92 285.6 476.16 285.408 474.624 285.024C470.496 284.064 468.096 273.984 467.616 254.784C446.592 250.656 429.504 240.192 416.64 223.296C403.968 206.88 397.632 187.776 397.632 166.08C397.632 141.792 405.696 120.768 421.632 103.008C438.048 84.576 458.4 75.36 482.304 75.36C506.4 75.36 526.656 84.576 543.168 103.008C559.008 120.768 566.976 141.792 566.976 166.08ZM537.216 166.08C537.216 149.856 532.128 135.744 521.952 123.84C511.296 111.264 498.048 105.12 482.016 105.12C466.272 105.12 453.12 111.456 442.464 124.224C432.48 136.128 427.392 150.24 427.392 166.368C427.392 182.496 432.48 196.608 442.464 208.608C453.024 221.472 466.176 227.808 482.016 227.808C498.144 227.808 511.488 221.472 522.144 208.8C532.224 196.704 537.216 182.496 537.216 166.08Z" fill="white"/>
<path d="M701.952 140.928C701.952 146.976 701.664 156.096 701.184 168.384C700.704 180.576 700.416 189.696 700.416 195.84C700.416 201.792 700.608 210.912 700.992 222.912C701.376 235.008 701.568 244.032 701.568 250.08C701.568 251.712 700.8 252.864 699.264 253.344C698.592 253.44 690.144 253.536 673.92 253.536C672.96 253.536 672.384 250.464 672.192 244.224C672 238.08 671.52 234.912 670.752 234.912C670.272 234.912 669.696 235.296 668.832 236.064C655.008 248.064 641.472 254.016 627.936 254.016C609.696 254.016 597.6 247.392 591.84 234.144C588.192 225.984 586.368 211.296 586.368 189.984C586.368 170.784 587.808 154.56 590.88 141.216C591.648 137.952 592.992 136.32 594.912 136.32C597.408 136.32 600.96 136.416 605.856 136.512C610.56 136.512 614.208 136.608 616.608 136.608C618.24 136.608 619.104 137.472 619.104 139.296C619.104 142.56 618.624 147.936 617.472 155.424C616.416 163.488 615.744 169.152 615.648 172.512C615.456 177.408 615.264 182.88 615.264 188.832C615.264 203.328 616.32 213.024 618.432 218.016C621.888 227.04 629.856 231.456 642.048 231.456C647.232 231.456 653.376 228.864 660.48 223.68C667.968 218.304 671.808 213.216 672.096 208.224C672.576 201.984 672.768 180.192 672.768 142.656C672.768 138.624 674.4 136.608 677.856 136.608H698.4C700.8 136.608 701.952 138.048 701.952 140.928Z" fill="white"/>
<path d="M759.648 105.12C759.648 115.296 753.888 120.384 742.56 120.384C731.04 120.384 725.376 115.296 725.376 105.12C725.376 100.512 727.104 96.768 730.656 93.888C733.92 91.008 737.952 89.568 742.56 89.568C747.264 89.568 751.296 91.008 754.56 93.888C757.92 96.864 759.648 100.512 759.648 105.12ZM758.592 138.72C758.592 145.056 758.208 154.656 757.44 167.616C756.672 180.48 756.288 190.08 756.288 196.608C756.288 202.56 756.48 211.68 756.672 223.68C756.96 235.68 757.056 244.704 757.056 250.656C757.056 252.384 756.288 253.344 754.848 253.344H730.56C728.832 253.344 727.968 251.616 727.968 248.16C727.968 242.496 728.16 233.856 728.448 222.432C728.736 211.008 728.832 202.368 728.832 196.608C728.832 190.08 728.352 180.384 727.488 167.52C726.528 154.656 726.144 144.96 726.144 138.432C726.144 137.088 726.912 136.32 728.64 136.32C730.176 136.32 732.384 136.512 735.552 136.992C738.624 137.376 740.928 137.568 742.464 137.568C744.096 137.568 746.4 137.376 749.472 136.992C752.64 136.512 754.944 136.32 756.48 136.32C757.92 136.32 758.592 137.184 758.592 138.72Z" fill="white"/>
<path d="M905.28 168.384C905.28 189.888 895.392 204.288 875.424 211.584C875.424 215.712 879.552 223.392 887.808 234.432C896.064 245.568 900.192 251.04 900.192 251.04C900.192 252.288 896.064 253.152 887.808 253.536C882.24 253.728 878.112 253.92 875.424 253.92C869.568 253.92 865.824 252.672 864.384 250.272C860.448 243.552 854.4 233.952 846.144 221.184C845.184 219.744 836.16 219.072 819.168 219.36L814.368 219.456V250.176C814.368 252.768 813.408 254.016 811.584 254.016C808.896 254.016 805.056 254.016 799.872 253.92C794.688 253.824 790.752 253.728 788.064 253.728C786.24 253.728 785.376 252.192 785.376 248.928V171.744C785.376 161.664 784.992 146.592 784.224 126.432C783.456 106.368 783.072 91.296 783.072 81.12C783.072 79.68 783.84 78.816 785.376 78.72C788.064 78.624 792.192 78.432 797.664 78.144C798.816 78.048 801.312 77.76 804.96 77.28C807.936 76.8 810.24 76.608 812.064 76.608C813.216 76.608 813.792 77.568 813.792 79.584C813.792 84.096 813.6 90.72 813.312 99.552C812.928 108.384 812.832 115.104 812.832 119.52V151.488C812.832 153.216 813.216 154.176 813.888 154.176C815.904 152.448 818.88 150.048 822.816 146.88C836.736 136.128 849.984 130.752 862.56 130.752C874.848 130.752 884.832 133.92 892.608 140.256C901.056 147.072 905.28 156.48 905.28 168.384ZM875.328 174.144C875.328 162.336 867.648 156.48 852.384 156.48C840.96 156.48 828.096 164.064 813.792 179.328V197.76C820.512 199.008 828.576 199.68 838.08 199.68C847.68 199.68 855.936 197.856 862.656 194.208C871.104 189.6 875.328 182.976 875.328 174.144Z" fill="white"/>
<path d="M953.568 81.408L953.376 83.04C951.648 113.76 950.784 140.256 950.784 162.336C950.784 172.128 950.976 186.912 951.264 206.592C951.648 226.272 951.744 240.864 951.744 250.752C951.744 252.576 951.168 253.536 949.824 253.536H926.112C924.576 253.536 923.808 252.576 923.808 250.752C923.808 240.864 923.904 226.272 924.096 206.592C924.288 186.912 924.384 172.128 924.384 162.336C924.384 153.408 923.904 139.968 923.04 122.016C922.272 104.16 921.792 90.816 921.792 81.888C921.792 80.256 922.656 79.392 924.384 79.392C925.92 79.392 928.128 79.584 931.104 79.776C934.08 80.064 936.288 80.16 937.824 80.16C939.36 80.16 941.568 80.064 944.64 79.776C947.712 79.584 950.016 79.392 951.456 79.392C952.896 79.392 953.664 80.16 953.568 81.408Z" fill="white"/>
<path d="M1083.26 186.912C1083.26 192.96 1080.58 197.088 1075.3 199.2C1071.74 200.448 1046.11 202.848 998.304 206.496C999.36 213.792 1003.49 219.936 1010.4 225.12C1017.12 229.92 1024.22 232.416 1031.81 232.416C1044.96 232.416 1056.96 228.192 1067.9 219.936C1069.25 218.784 1070.59 217.728 1071.94 216.672C1072.61 216.672 1072.99 216.768 1073.18 216.96C1073.38 217.056 1075.01 219.936 1077.89 225.504C1080.77 231.072 1082.21 234.048 1082.21 234.432C1082.21 235.008 1081.54 235.872 1080.19 237.312C1068.1 250.176 1052.45 256.608 1033.44 256.608C1014.24 256.608 998.976 250.848 987.552 239.424C976.128 227.904 970.368 212.64 970.368 193.536C970.368 176.448 975.84 161.664 986.784 148.992C998.304 135.744 1012.32 129.216 1029.02 129.216C1044.67 129.216 1057.63 134.976 1068 146.4C1078.18 157.44 1083.26 170.976 1083.26 186.912ZM1053.79 179.328C1053.79 172.512 1051.01 166.368 1045.63 160.992C1040.16 155.808 1034.11 153.12 1027.3 153.12C1019.62 153.12 1012.9 156.192 1006.94 162.24C1001.09 168.384 998.112 175.2 998.112 182.88C998.112 184.608 999.552 185.472 1002.53 185.472C1014.82 185.472 1029.5 184.224 1046.5 181.728C1051.3 181.056 1053.79 180.288 1053.79 179.328Z" fill="white"/>
<path d="M1158.72 215.232C1158.72 227.52 1153.82 237.408 1143.94 244.896C1135.01 251.712 1124.06 255.072 1111.2 255.072C1106.21 255.072 1103.42 254.88 1102.75 254.688C1101.31 254.016 1100.64 252 1100.64 248.64C1100.64 246.816 1100.35 244.032 1099.87 240.384C1099.49 236.832 1099.3 234.144 1099.3 232.416C1099.3 231.36 1099.97 230.592 1101.5 230.304C1102.56 230.016 1104.1 230.016 1106.11 230.304C1108.7 230.496 1109.86 230.688 1109.86 230.688C1125.5 230.688 1133.28 225.888 1133.28 216.192C1133.28 211.68 1129.92 207.552 1123.1 203.712C1111.97 197.568 1105.54 193.824 1103.9 192.384C1097.09 186.624 1093.63 178.848 1093.63 169.344C1093.63 156.96 1098.43 147.264 1107.74 140.352C1116.19 134.112 1126.85 131.04 1139.81 131.04C1140.96 131.04 1141.82 131.616 1142.4 132.672C1142.88 133.728 1143.94 137.088 1145.47 142.752C1147.01 148.32 1147.78 151.68 1147.78 152.928C1147.78 153.792 1147.01 154.368 1145.47 154.656C1140.1 155.424 1134.82 156.096 1129.44 156.768C1123.01 158.496 1119.84 161.952 1119.84 167.136C1119.84 170.88 1123.2 174.624 1129.82 178.368C1139.71 183.936 1145.95 187.968 1148.64 190.464C1155.36 196.896 1158.72 205.152 1158.72 215.232Z" fill="white"/>
<path d="M187.296 188.256C217.632 202.464 248.928 209.472 275.424 208.128C275.616 208.128 275.712 208.032 275.904 208.032L277.824 19.872C277.92 13.248 270.528 9.216 264.96 12.96L106.656 119.808C119.52 144.192 149.088 170.496 187.296 188.256Z" fill="white"/>
<path fill-rule="evenodd" clip-rule="evenodd" d="M187.296 174.048C154.368 158.688 127.776 136.992 112.8 115.584L98.016 125.664C114.528 149.76 143.136 173.28 179.808 190.272C209.952 204.288 241.248 211.968 268.896 211.968C271.2 211.968 273.6 211.872 275.904 211.776L276.096 193.824C275.904 193.824 275.616 193.824 275.424 193.824C248.928 195.264 217.632 188.16 187.296 174.048Z" fill="black"/>
</svg>
