<svg width="143" height="138" viewBox="0 0 143 138" fill="none" xmlns="http://www.w3.org/2000/svg">
<g clip-path="url(#clip0_28_2)">
<path fill-rule="evenodd" clip-rule="evenodd" d="M111.072 91.2961C99.264 91.2961 86.016 88.0321 73.152 82.0801C55.488 73.8241 42.144 62.0161 35.712 50.3041L1.53596 73.4401C-1.15204 75.1681 -0.192042 79.3921 2.97596 79.7761L60.48 87.6481C63.84 88.0321 67.008 89.7601 69.216 92.3521L107.424 135.936C109.536 138.432 113.472 136.896 113.568 133.728L113.952 91.2001C112.992 91.2001 112.032 91.2961 111.072 91.2961Z" fill="#404EED"/>
<path fill-rule="evenodd" clip-rule="evenodd" d="M111.072 85.248C99.264 85.248 86.016 81.984 73.152 76.032C43.008 61.92 25.536 37.632 33.408 20.64C41.376 3.74404 71.136 1.44004 101.376 15.552C111.168 20.16 120.192 26.112 127.2 32.832C128.736 34.272 128.832 36.672 127.392 38.208C125.952 39.744 123.552 39.84 122.016 38.304C115.584 32.256 107.328 26.688 98.112 22.464C72.672 10.56 46.176 11.232 40.32 23.904C34.368 36.576 50.976 57.312 76.32 69.12C89.28 75.168 102.528 78.144 113.856 77.568C124.32 76.992 131.424 73.536 134.208 67.68C136.992 61.632 134.304 54.72 131.424 49.92C130.368 48.096 131.04 45.792 132.768 44.736C134.688 43.68 136.992 44.256 138.048 46.08C143.328 55.008 144.384 63.84 141.12 70.848C137.088 79.392 127.584 84.384 114.24 85.152C113.184 85.248 112.128 85.248 111.072 85.248Z" fill="#DEDEDE"/>
<path fill-rule="evenodd" clip-rule="evenodd" d="M126.24 28.3201L117.216 36.9601C116.832 37.3441 116.736 37.8241 116.64 38.3041C116.64 39.1681 117.216 39.9361 118.08 40.2241C118.272 40.2241 118.368 40.3201 118.464 40.3201L123.264 41.5681C123.648 41.6641 123.84 41.7601 124.224 41.7601C124.512 41.8561 124.8 41.9521 125.088 41.9521L126.72 42.4321C127.584 42.6241 128.544 42.9121 129.408 43.1041C130.368 43.3921 130.848 43.1041 131.52 42.5281C131.712 42.3361 131.808 41.8561 131.904 41.6641C132 40.9921 131.712 39.8401 131.52 39.0721C131.52 38.7841 131.424 38.4961 131.328 38.2081L130.08 31.9681C129.984 31.6801 129.888 31.3921 129.888 31.1041L129.6 29.7601C129.504 29.5681 129.504 29.4721 129.504 29.2801C129.216 28.4161 128.544 27.8401 127.68 27.8401C127.2 27.8401 126.624 27.9361 126.24 28.3201Z" fill="#404EED"/>
<path fill-rule="evenodd" clip-rule="evenodd" d="M76.32 75.168C89.28 81.216 102.528 84.192 113.856 83.616C113.952 83.616 113.952 83.616 114.048 83.616L114.816 3.55205C114.912 0.768045 111.744 -0.959955 109.344 0.672045L42.048 46.08C47.52 56.448 60.096 67.584 76.32 75.168Z" fill="#404EED"/>
<path fill-rule="evenodd" clip-rule="evenodd" d="M76.3199 69.1201C62.3999 62.5921 51.0719 53.3761 44.6399 44.2561L38.3999 48.5761C45.4079 58.7521 57.5999 68.8321 73.1519 76.0321C86.0159 81.9841 99.2639 85.2481 111.072 85.2481C112.032 85.2481 113.088 85.2481 114.048 85.1521L114.144 77.5681C114.048 77.5681 113.952 77.5681 113.856 77.5681C102.528 78.1441 89.2799 75.1681 76.3199 69.1201Z" fill="#DEDEDE"/>
</g>
<defs>
<clipPath id="clip0_28_2">
<rect width="142.944" height="137.184" fill="white"/>
</clipPath>
</defs>
</svg>
