<svg width="527" height="527" viewBox="0 0 527 527" fill="none" xmlns="http://www.w3.org/2000/svg">
<path fill-rule="evenodd" clip-rule="evenodd" d="M348.76 114.032C355.48 118.544 369.784 119.696 389.464 140.24L408.472 167.696C409.432 169.712 410.008 171.248 410.872 173.36C411.64 175.568 412.312 178.064 413.08 179.792C413.272 179.696 413.656 179.504 413.656 179.696L434.872 191.216C442.264 195.248 451.48 199.376 459.832 202.544C477.496 209.36 496.984 214.544 517.624 216.752V163.952H474.616C474.232 160.016 470.872 150.224 469.24 146.576C467.128 141.392 462.616 135.536 462.136 129.968L491.32 100.208L427.288 35.6L397.816 65.648C390.424 64.688 376.888 53.936 363.544 52.88V9.776H310.648C313.432 36.752 323.224 68.624 335.896 91.856L348.76 114.032Z" fill="#E8F0F1"/>
<path fill-rule="evenodd" clip-rule="evenodd" d="M287.896 409.616C291.064 408.08 309.016 407.984 312.76 409.616C319.576 412.592 319.48 422.96 312.76 425.936C309.304 427.472 290.872 427.472 287.416 425.936C280.12 422.768 280.024 413.456 287.896 409.616ZM211.096 421.232C215.896 423.632 228.856 432.272 229.816 432.56C249.976 440.816 264.76 444.56 288.664 444.944C312.376 445.328 336.376 445.04 360.088 445.04C365.464 444.08 364.888 434.576 382.744 424.496C395.992 417.104 403.672 418.448 419.512 417.872C432.952 419.024 436.6 416.912 449.368 422.576C460.12 427.28 463.672 432.944 469.816 437.936C490.84 441.584 503.512 445.04 526.744 445.04V435.92C516.568 435.92 499.672 438.8 499.672 426.896C499.672 414.896 516.568 417.776 526.744 417.776V407.6C520.792 407.12 474.616 384.848 463.288 381.392L326.872 381.488H326.488H182.296C185.464 392.72 197.464 410 206.488 417.2C207.544 417.968 208.12 418.352 209.176 419.312C210.616 420.656 209.944 419.888 211.096 421.232Z" fill="#F8654F"/>
<path fill-rule="evenodd" clip-rule="evenodd" d="M118.744 194.576L118.648 252.368C119.992 255.248 118.648 254 122.104 254.576H161.848C161.944 262.064 171.16 281.648 174.232 287.504L144.568 317.744L184.504 358.928C187.96 360.272 188.632 361.328 190.36 364.208C197.272 354.512 213.592 313.04 219.352 309.008L313.624 309.2C310.744 307.088 305.272 307.856 301.816 307.28C298.072 306.608 293.56 305.648 290.968 304.688C268.792 300.56 247.576 281.456 237.496 267.344C224.056 248.432 215.992 225.392 219.832 195.632L221.848 187.76L212.056 176.624C198.712 178.544 192.472 184.4 174.52 179.6C169.528 178.256 163 175.376 159.448 173.072C155.608 170.672 149.752 164.816 147.064 163.952H118.744V194.576Z" fill="#CFD6D9"/>
<path fill-rule="evenodd" clip-rule="evenodd" d="M410.584 245.552C409.432 257.552 390.904 278.864 384.184 284.336C376.504 290.672 353.848 306.992 339.736 305.552L331.672 307.664C326.872 308.144 324.664 306.992 321.592 309.104L327.64 309.2L328.312 309.104L436.12 309.008L454.168 356.336L491.896 318.32L461.848 287.696C465.208 281.648 474.424 262.064 474.616 254.576H517.624V216.752C496.984 214.544 477.496 209.36 459.832 202.544C451.48 199.376 442.264 195.248 434.872 191.216L413.656 179.696C413.656 179.504 413.272 179.696 413.08 179.792C417.208 198.992 420.088 208.784 415.192 230.288C413.848 236.336 412.984 240.368 410.584 245.552Z" fill="#D0D7DA"/>
<path fill-rule="evenodd" clip-rule="evenodd" d="M212.056 176.624L221.848 187.76L225.304 190.64L264.376 229.616L339.736 305.552C353.848 306.992 376.504 290.672 384.184 284.336C390.904 278.864 409.432 257.552 410.584 245.552C407.032 242.096 403.768 238.736 400.12 235.088C396.568 231.536 393.496 226.448 388.408 225.104C380.728 234.416 359.8 248.432 342.04 251.408C332.824 244.688 259.96 169.52 259.384 168.368C264.952 163.568 272.536 155.888 277.912 149.744C286.168 140.528 286.936 130.352 289.912 125.168L281.944 116.816L276.472 112.208C273.688 115.184 271.864 119.216 269.56 122.096L229.72 162.704C220.024 172.304 215.704 173.072 212.056 176.624Z" fill="#E59730"/>
<path fill-rule="evenodd" clip-rule="evenodd" d="M191.224 53.648C195.352 55.472 211.96 72.368 215.032 76.688C225.304 91.184 214.36 100.496 207.352 107.504C199.96 114.8 190.36 125.84 175.864 114.704C171.64 111.44 155.512 95.6 153.496 91.376L124.696 62.768C119.8 64.304 117.016 68.528 113.944 71.792C110.872 74.96 107.128 79.76 105.112 83.408C108.568 87.344 110.392 90.128 114.04 93.776L142.936 122.672C154.456 134.192 170.296 148.688 197.656 144.08C221.272 139.952 243.256 112.112 262.168 93.2C265.24 90.128 268.888 86.864 271.384 83.12C273.304 80.24 276.184 73.328 278.296 71.504C276.856 67.472 275.992 64.784 273.688 61.04C271.576 57.584 269.848 56.24 268.696 52.88L267.448 51.632C267.256 51.44 266.488 50.672 266.296 50.384C257.752 41.456 228.664 11.792 223.48 8.14401C213.688 1.32801 202.264 -2.51199 187.864 2.96001C179.896 6.03201 167.608 16.4 162.904 23.408C164.44 29.168 184.024 45.104 191.224 53.648Z" fill="#F9E009"/>
<path fill-rule="evenodd" clip-rule="evenodd" d="M55.192 423.44C55.576 415.184 58.36 410.864 64.504 407.504L91.288 400.88L182.296 381.488L190.36 364.208C188.632 361.328 187.96 360.272 184.504 358.928C176.056 364.016 167.416 370.064 154.936 371.216C140.44 372.56 131.032 371.6 119.512 366.032C100.6 357.008 84.088 336.56 83.608 317.168C74.392 312.848 62.2 302.768 55.768 297.2C50.872 292.976 48.568 289.712 44.344 284.72C40.792 280.592 37.624 275.216 33.784 272.048C32.728 275.696 31.576 277.04 31.48 281.84H0.855988V336.176H31.48C31.672 345.584 40.984 364.112 45.112 370.16L23.32 392.624L55.192 423.44Z" fill="#656B76"/>
<path fill-rule="evenodd" clip-rule="evenodd" d="M91.288 400.88C91.96 409.52 93.016 428.72 89.176 435.248C83.896 447.536 71.32 444.944 55.288 444.944V481.232H137.56C134.968 458.48 144.376 439.568 156.376 430.448C173.176 417.776 186.904 414.896 211.096 421.232C209.944 419.888 210.616 420.656 209.176 419.312C208.12 418.352 207.544 417.968 206.488 417.2C197.464 410 185.464 392.72 182.296 381.488L91.288 400.88Z" fill="#CB5144"/>
<path fill-rule="evenodd" clip-rule="evenodd" d="M388.408 225.104C383.896 218 360.088 197.456 351.544 187.184L315.064 150.032C307.192 142.16 298.168 131.984 289.912 125.168C286.936 130.352 286.168 140.528 277.912 149.744C272.536 155.888 264.952 163.568 259.384 168.368C259.96 169.52 332.824 244.688 342.04 251.408C359.8 248.432 380.728 234.416 388.408 225.104Z" fill="#FCBC04"/>
<path fill-rule="evenodd" clip-rule="evenodd" d="M105.112 83.408C103.192 85.712 103.576 85.232 102.328 88.592C89.752 123.152 132.856 143.024 147.064 163.952C149.752 164.816 155.608 170.672 159.448 173.072C163 175.376 169.528 178.256 174.52 179.6C192.472 184.4 198.712 178.544 212.056 176.624C215.704 173.072 220.024 172.304 229.72 162.704L269.56 122.096C271.864 119.216 273.688 115.184 276.472 112.208C278.584 98 285.304 89.168 278.296 71.504C276.184 73.328 273.304 80.24 271.384 83.12C268.888 86.864 265.24 90.128 262.168 93.2C243.256 112.112 221.272 139.952 197.656 144.08C170.296 148.688 154.456 134.192 142.936 122.672L114.04 93.776C110.392 90.128 108.568 87.344 105.112 83.408Z" fill="#FCBC04"/>
<path fill-rule="evenodd" clip-rule="evenodd" d="M33.784 272.048C37.624 275.216 40.792 280.592 44.344 284.72C48.568 289.712 50.872 292.976 55.768 297.2C62.2 302.768 74.392 312.848 83.608 317.168C83.128 311.12 81.88 311.6 83.032 303.92C83.992 298.256 84.472 294.896 85.624 290.576C87.736 282.608 92.248 275.6 96.28 269.36L96.088 202.448C91.48 203.504 88.12 205.808 84.76 208.112L62.296 186.32L23.224 225.968L45.304 247.472C39.832 255.632 37.336 262.736 33.784 272.048Z" fill="#929999"/>
<path fill-rule="evenodd" clip-rule="evenodd" d="M229.816 432.56C233.656 439.472 238.552 443.312 242.2 453.008C245.656 462.512 246.136 470.384 244.888 481.232H373.336C371.128 461.552 375.448 450.416 384.856 437.936C388.792 432.656 392.728 429.488 399.448 425.36C406.456 421.04 413.176 420.944 419.512 417.872C403.672 418.448 395.992 417.104 382.744 424.496C364.888 434.576 365.464 444.08 360.088 445.04C336.376 445.04 312.376 445.328 288.664 444.944C264.76 444.56 249.976 440.816 229.816 432.56Z" fill="#CC5144"/>
<path fill-rule="evenodd" clip-rule="evenodd" d="M190.36 364.208L182.296 381.488H326.488L219.352 309.008C213.592 313.04 197.272 354.512 190.36 364.208Z" fill="#57B7EB"/>
<path fill-rule="evenodd" clip-rule="evenodd" d="M462.808 477.872C459.448 496.208 442.648 511.76 420.856 507.92C373.72 499.664 386.104 428.24 433.144 436.4C450.616 439.472 466.744 456.944 462.808 477.872ZM373.336 481.232C374.584 492.752 381.976 506.288 390.52 513.2C423.832 539.696 466.648 524.624 478.456 490.736L480.664 481.232C481.72 472.112 481.624 464.912 479.032 456.464C476.536 448.208 472.504 444.08 469.816 437.936C463.672 432.944 460.12 427.28 449.368 422.576C436.6 416.912 432.952 419.024 419.512 417.872C413.176 420.944 406.456 421.04 399.448 425.36C392.728 429.488 388.792 432.656 384.856 437.936C375.448 450.416 371.128 461.552 373.336 481.232Z" fill="#464A51"/>
<path fill-rule="evenodd" clip-rule="evenodd" d="M186.136 436.304C233.56 429.392 243.448 501.392 196.504 508.112C149.08 514.928 138.808 443.12 186.136 436.304ZM137.56 481.232C141.304 516.368 188.248 544.688 227.704 513.2C236.248 506.384 243.64 492.848 244.888 481.232C246.136 470.384 245.656 462.512 242.2 453.008C238.552 443.312 233.656 439.472 229.816 432.56C228.856 432.272 215.896 423.632 211.096 421.232C186.904 414.896 173.176 417.776 156.376 430.448C144.376 439.568 134.968 458.48 137.56 481.232Z" fill="#464A51"/>
<path fill-rule="evenodd" clip-rule="evenodd" d="M268.696 52.88C269.848 56.24 271.576 57.584 273.688 61.04C275.992 64.784 276.856 67.472 278.296 71.504C285.304 89.168 278.584 98 276.472 112.208L281.944 116.816L297.112 112.304C325.72 105.872 338.776 113.84 348.76 114.032L335.896 91.856C323.224 68.624 313.432 36.752 310.648 9.776H272.824V52.88H268.696Z" fill="#D0D7DA"/>
<path fill-rule="evenodd" clip-rule="evenodd" d="M326.872 381.488L463.288 381.392L328.312 309.104L327.64 309.2L326.872 381.488Z" fill="#57B7EB"/>
<path fill-rule="evenodd" clip-rule="evenodd" d="M326.488 381.488H326.872L327.64 309.2L321.592 309.104L313.624 309.2L219.352 309.008L326.488 381.488Z" fill="#83D1F3"/>
<path fill-rule="evenodd" clip-rule="evenodd" d="M463.288 381.392C460.6 373.04 457.528 364.112 454.168 356.336L436.12 309.008L328.312 309.104L463.288 381.392Z" fill="#83D1F3"/>
<path fill-rule="evenodd" clip-rule="evenodd" d="M207.448 480.08C202.936 491.216 187.192 494.288 178.168 485.36C169.144 476.432 172.216 460.4 183.352 455.984C198.904 448.496 214.936 464.72 207.448 480.08ZM186.136 436.304C138.808 443.12 149.08 514.928 196.504 508.112C243.448 501.392 233.56 429.392 186.136 436.304Z" fill="#646A75"/>
<path fill-rule="evenodd" clip-rule="evenodd" d="M443.128 480.08C438.712 491.216 422.872 494.288 413.848 485.36C404.824 476.432 407.992 460.4 419.128 455.984C434.68 448.496 450.712 464.72 443.128 480.08ZM462.808 477.872C466.744 456.944 450.616 439.472 433.144 436.4C386.104 428.24 373.72 499.664 420.856 507.92C442.648 511.76 459.448 496.208 462.808 477.872Z" fill="#646A75"/>
<path fill-rule="evenodd" clip-rule="evenodd" d="M219.832 195.632C215.992 225.392 224.056 248.432 237.496 267.344C247.576 281.456 268.792 300.56 290.968 304.688V281.84H260.44C260.152 272.432 250.936 253.904 246.808 247.76L264.376 229.616L225.304 190.64L219.832 195.632Z" fill="#656B76"/>
<path fill-rule="evenodd" clip-rule="evenodd" d="M153.496 91.376C155.512 95.6 171.64 111.44 175.864 114.704C190.36 125.84 199.96 114.8 207.352 107.504C214.36 100.496 225.304 91.184 215.032 76.688C211.96 72.368 195.352 55.472 191.224 53.648L153.496 91.376Z" fill="#D0D7DA"/>
<path fill-rule="evenodd" clip-rule="evenodd" d="M480.664 481.232H526.744V445.04C503.512 445.04 490.84 441.584 469.816 437.936C472.504 444.08 476.536 448.208 479.032 456.464C481.624 464.912 481.72 472.112 480.664 481.232Z" fill="#CC5144"/>
<path fill-rule="evenodd" clip-rule="evenodd" d="M96.088 202.448L96.28 269.36C99.928 266.48 102.424 263.024 106.072 260.048C110.104 256.88 114.136 254.864 118.648 252.368L118.744 194.576C114.04 194.672 111.064 196.016 106.936 197.456L98.776 200.72C96.088 202.064 97.624 201.104 96.088 202.448Z" fill="#656B76"/>
<path fill-rule="evenodd" clip-rule="evenodd" d="M64.504 407.504C64.216 422.384 74.872 436.016 89.176 435.248C93.016 428.72 91.96 409.52 91.288 400.88L64.504 407.504Z" fill="#F9E009"/>
<path fill-rule="evenodd" clip-rule="evenodd" d="M55.192 423.44L55.288 444.944C71.32 444.944 83.896 447.536 89.176 435.248C74.872 436.016 64.216 422.384 64.504 407.504C58.36 410.864 55.576 415.184 55.192 423.44Z" fill="#FCBC04"/>
<path fill-rule="evenodd" clip-rule="evenodd" d="M287.896 409.616C280.024 413.456 280.12 422.768 287.416 425.936C290.872 427.472 309.304 427.472 312.76 425.936C319.48 422.96 319.576 412.592 312.76 409.616C309.016 407.984 291.064 408.08 287.896 409.616Z" fill="#F9E009"/>
<path fill-rule="evenodd" clip-rule="evenodd" d="M183.352 455.984C179.416 473.072 190.264 484.016 207.448 480.08C214.936 464.72 198.904 448.496 183.352 455.984Z" fill="#E8F0F1"/>
<path fill-rule="evenodd" clip-rule="evenodd" d="M419.128 455.984C415.192 473.072 425.944 484.016 443.128 480.08C450.712 464.72 434.68 448.496 419.128 455.984Z" fill="#E8F0F1"/>
<path fill-rule="evenodd" clip-rule="evenodd" d="M207.448 480.08C190.264 484.016 179.416 473.072 183.352 455.984C172.216 460.4 169.144 476.432 178.168 485.36C187.192 494.288 202.936 491.216 207.448 480.08Z" fill="#D0D7DA"/>
<path fill-rule="evenodd" clip-rule="evenodd" d="M443.128 480.08C425.944 484.016 415.192 473.072 419.128 455.984C407.992 460.4 404.824 476.432 413.848 485.36C422.872 494.288 438.712 491.216 443.128 480.08Z" fill="#D0D7DA"/>
<path fill-rule="evenodd" clip-rule="evenodd" d="M526.744 435.92V417.776C516.568 417.776 499.672 414.896 499.672 426.896C499.672 438.8 516.568 435.92 526.744 435.92Z" fill="#F9E009"/>
</svg>
