<svg width="547" height="523" viewBox="0 0 547 523" fill="none" xmlns="http://www.w3.org/2000/svg">
<path fill-rule="evenodd" clip-rule="evenodd" d="M433.448 409.632H452.36V456.864H433.448V409.632ZM433.544 372H452.36V390.912H433.448L433.544 372ZM264.968 409.728C276.2 409.728 302.504 408.288 312.008 409.92C324.872 412.128 320.168 435.36 320.456 447.36L329.768 485.088H480.68L491.336 386.208C492.296 376.32 494.792 362.784 494.792 352.704C482.888 353.856 473.672 348.768 472.52 338.976C467.528 341.76 470.12 346.368 461.288 350.688C449.288 356.832 436.04 349.44 434.792 338.976C429.896 341.76 432.392 346.368 423.56 350.688C411.56 356.832 398.312 349.44 397.064 338.976C391.976 341.856 394.76 346.464 385.832 350.688C374.984 356.448 364.328 350.592 360.2 342.72C356.648 335.904 358.088 315.36 358.088 306.048H254.312C254.312 327.168 264.584 391.104 264.968 409.728Z" fill="#4798CE"/>
<path fill-rule="evenodd" clip-rule="evenodd" d="M358.088 268.224V306.048C358.088 315.36 356.648 335.904 360.2 342.72C364.328 350.592 374.984 356.448 385.832 350.688L386.408 296.64H395.72C395.72 310.176 393.992 326.784 397.064 338.976C398.312 349.44 411.56 356.832 423.56 350.688L424.136 296.64H433.448C433.448 309.984 431.816 327.072 434.792 338.976C436.04 349.44 449.288 356.832 461.288 350.688L461.864 296.64H471.176C471.176 309.984 469.544 327.072 472.52 338.976C473.672 348.768 482.888 353.856 494.792 352.704C514.088 346.752 508.904 324 508.904 295.392C508.904 287.04 509.96 266.016 508.52 259.296C506.696 250.944 498.536 242.592 490.088 240.864L471.176 240C447.656 240 424.04 240 400.52 240C386.888 240 378.056 238.176 369.32 244.128C365.384 246.816 363.272 249.216 360.872 253.44C358.088 258.144 358.088 261.216 358.088 268.224Z" fill="#FC9326"/>
<path fill-rule="evenodd" clip-rule="evenodd" d="M56.36 447.36L93.992 447.456L131.528 447.36L169.448 447.456H207.176L245.096 447.36L282.728 447.456L320.456 447.36C320.168 435.36 324.872 412.128 312.008 409.92C302.504 408.288 276.2 409.728 264.968 409.728H207.176H169.448C144.392 409.728 119.24 409.728 94.088 409.728C50.696 409.728 56.36 403.968 56.36 447.36Z" fill="#C17450"/>
<path fill-rule="evenodd" clip-rule="evenodd" d="M282.632 268.224H301.544C301.544 253.632 300.2 231.552 301.64 217.728C304.04 195.648 310.088 179.616 323.624 164.256C363.176 119.424 444.68 129.792 466.376 194.112C471.272 208.8 471.176 220.8 471.176 240L490.088 240.864C490.088 218.784 490.952 202.944 484.52 186.624C473.384 157.92 453.992 136.704 425.96 124.992C363.464 98.784 293.384 138.72 283.112 207.456C280.904 221.856 282.632 252 282.632 268.224Z" fill="#428CC4"/>
<path fill-rule="evenodd" clip-rule="evenodd" d="M339.08 522.816H480.68V485.088H329.768L339.08 522.816Z" fill="#6CBAE5"/>
<path fill-rule="evenodd" clip-rule="evenodd" d="M254.312 306.048H358.088V268.224H301.544H282.632H244.904V305.952L254.312 306.048Z" fill="#6CBAE5"/>
<path fill-rule="evenodd" clip-rule="evenodd" d="M160.232 522.816H216.488L207.176 447.456H169.448L160.232 522.816Z" fill="#EA9D2D"/>
<path fill-rule="evenodd" clip-rule="evenodd" d="M113 522.816H160.232L169.448 447.456L131.528 447.36L113 522.816Z" fill="#FAB43F"/>
<path fill-rule="evenodd" clip-rule="evenodd" d="M216.488 522.816H263.72L245.096 447.36L207.176 447.456L216.488 522.816Z" fill="#FAB43F"/>
<path fill-rule="evenodd" clip-rule="evenodd" d="M75.368 522.816L93.992 447.456L56.36 447.36L37.256 522.816H75.368Z" fill="#FAB43F"/>
<path fill-rule="evenodd" clip-rule="evenodd" d="M301.256 522.816H339.08L329.768 485.088L320.456 447.36L282.728 447.456L301.256 522.816Z" fill="#FAB43F"/>
<path fill-rule="evenodd" clip-rule="evenodd" d="M75.368 522.816H113L131.528 447.36L93.992 447.456L75.368 522.816Z" fill="#EA9D2D"/>
<path fill-rule="evenodd" clip-rule="evenodd" d="M263.72 522.816H301.256L282.728 447.456L245.096 447.36L263.72 522.816Z" fill="#EA9D2D"/>
<path fill-rule="evenodd" clip-rule="evenodd" d="M472.424 116.256V118.56C486.92 122.016 504.392 139.392 507.752 153.984H510.152C513.608 138.816 533.096 119.712 546.632 118.56V116.256C533.192 115.104 513.608 96 510.152 80.832H507.752C504.392 95.424 486.92 112.8 472.424 116.256Z" fill="#FBB53F"/>
<path fill-rule="evenodd" clip-rule="evenodd" d="M57.512 229.344V231.744C72.104 235.104 89.48 252.576 92.84 267.072H95.24C98.792 252 118.28 232.896 131.816 231.744V229.344C118.28 228.288 98.792 209.184 95.24 194.016H92.84C89.48 208.608 72.104 225.984 57.512 229.344Z" fill="#FBB53F"/>
<path fill-rule="evenodd" clip-rule="evenodd" d="M0.967995 342.528V344.832C15.56 348.288 32.936 365.664 36.296 380.256H38.696C42.152 365.088 61.736 345.984 75.176 344.832V342.528C61.736 341.376 42.152 322.272 38.696 307.2H36.296C32.936 321.696 15.56 339.168 0.967995 342.528Z" fill="#FBB53F"/>
<path fill-rule="evenodd" clip-rule="evenodd" d="M433.448 456.864H452.36V409.632H433.448V456.864Z" fill="#6CBAE5"/>
<path fill-rule="evenodd" clip-rule="evenodd" d="M385.832 350.688C394.76 346.464 391.976 341.856 397.064 338.976C393.992 326.784 395.72 310.176 395.72 296.64H386.408L385.832 350.688Z" fill="#DF8122"/>
<path fill-rule="evenodd" clip-rule="evenodd" d="M461.288 350.688C470.12 346.368 467.528 341.76 472.52 338.976C469.544 327.072 471.176 309.984 471.176 296.64H461.864L461.288 350.688Z" fill="#DF8122"/>
<path fill-rule="evenodd" clip-rule="evenodd" d="M423.56 350.688C432.392 346.368 429.896 341.76 434.792 338.976C431.816 327.072 433.448 309.984 433.448 296.64H424.136L423.56 350.688Z" fill="#DF8122"/>
<path fill-rule="evenodd" clip-rule="evenodd" d="M433.448 390.912H452.36V372H433.544L433.448 390.912Z" fill="#6CBAE5"/>
<path d="M201.032 12.768C201.032 5.92848 195.487 0.383972 188.648 0.383972C181.808 0.383972 176.264 5.92848 176.264 12.768V412.032C176.264 418.871 181.808 424.416 188.648 424.416C195.487 424.416 201.032 418.871 201.032 412.032V12.768Z" fill="#B06543"/>
</svg>
