<svg width="541" height="541" viewBox="0 0 541 541" fill="none" xmlns="http://www.w3.org/2000/svg">
<path fill-rule="evenodd" clip-rule="evenodd" d="M218.096 200.904C222.8 210.696 221.36 214.056 229.136 222.6C248.528 243.624 272.816 237.768 309.776 237.768C323.024 237.672 327.824 236.904 335.696 244.68C345.296 253.992 378.224 288.552 383.6 291.912L384.08 262.152C383.216 247.848 392.144 238.344 405.776 237.768C420.656 237.096 437.168 237.768 452.24 237.768C491.888 237.768 513.488 244.968 513.392 207.336C513.296 176.424 513.392 145.416 513.392 114.504C513.392 99.24 512.336 86.664 504.368 77.16C492.464 62.856 487.856 65.352 476.24 59.688L323.504 59.88C303.056 59.976 281.744 59.304 261.296 59.88C242.96 60.552 229.424 71.496 223.472 83.016C215.408 98.472 218.096 120.936 218.096 139.848C218.096 160.2 218.192 180.552 218.096 200.904Z" fill="#FFD563"/>
<path fill-rule="evenodd" clip-rule="evenodd" d="M0.848022 142.344C4.01602 149.832 3.24802 154.152 8.52802 161.64C28.304 189.576 55.088 175.848 69.584 182.856C76.88 186.504 108.08 219.816 118.544 229.896C121.712 232.968 123.536 233.16 123.632 238.92C125.648 233.352 124.208 211.08 124.208 203.112H218.096V202.632H123.824C127.184 160.776 189.104 194.664 195.536 173.16C200.048 158.088 190.64 105.576 201.2 78.6C209.264 57.96 231.152 39.048 260.24 37.992C266.192 37.8 280.112 38.952 284.816 36.744C290 34.344 292.976 27.24 288.944 20.424C280.304 5.73601 267.056 4.58401 259.088 0.64801H256.016H252.848H249.776H246.704H243.536H240.464H237.296H234.224H231.056H227.984H224.912H221.744H218.672H215.504H212.432H209.264H206.192H203.12H199.952H196.88H193.712H190.64H187.472H184.4H181.328H178.16H175.088H171.92H168.848H165.68H162.608H159.536H156.368H153.296H150.128H147.056H143.888H140.816H137.744H134.576H131.504H128.336H125.264H122.096H119.024H115.952H112.784H109.712H106.544H103.472H100.304H97.232H94.16H90.992H87.92H84.752H81.68H78.512H75.44H72.368H69.2H66.128H62.96H59.888H51.824C33.008 0.74401 18.512 2.37601 6.51202 22.152C3.53602 27.048 1.13602 32.808 0.848022 40.104V142.344Z" fill="#8CAFFF"/>
<path fill-rule="evenodd" clip-rule="evenodd" d="M416.336 436.872C403.088 440.04 377.264 449.256 366.992 459.624L355.664 472.008C351.92 482.76 347.216 487.272 345.776 501.576C344.624 513.48 345.392 528.456 345.392 540.552H516.656C516.656 507.336 522.32 477.48 499.376 452.232C496.688 449.256 494.192 447.624 491.792 444.648C487.376 442.344 475.184 437.928 470.096 436.968L455.024 434.376C440.048 433.704 430.16 434.088 416.336 436.872Z" fill="#626262"/>
<path fill-rule="evenodd" clip-rule="evenodd" d="M0.848022 517.608H305.648C330.032 517.8 321.104 511.56 325.328 490.824C326.768 483.624 329.264 478.44 331.376 472.008L283.472 472.488L260.24 472.872C239.792 472.104 92.432 474.312 87.824 472.008C65.84 472.008 43.856 472.104 21.872 472.008C10.16 472.008 1.71202 471.912 0.848022 482.664V517.608Z" fill="#FE913A"/>
<path fill-rule="evenodd" clip-rule="evenodd" d="M147.44 372.744C141.68 373.512 124.88 380.424 119.216 383.784C111.248 388.392 103.664 395.688 98.672 403.272C92.624 412.2 89.648 419.208 87.728 432.36C86.768 438.792 86.672 465.768 87.824 472.008C92.432 474.312 239.792 472.104 260.24 472.872C256.112 465.48 259.952 427.176 257.072 414.024C252.944 395.112 242.96 385.992 233.36 376.104C230.096 374.856 225.392 373.512 222.608 371.88L184.976 437.256L147.44 372.744Z" fill="#636363"/>
<path fill-rule="evenodd" clip-rule="evenodd" d="M0.848022 527.688C1.04002 536.328 2.67202 539.496 12.272 540.552H69.392C161.36 540.552 253.424 540.552 345.392 540.552C345.392 528.456 344.624 513.48 345.776 501.576C347.216 487.272 351.92 482.76 355.664 472.008H331.376C329.264 478.44 326.768 483.624 325.328 490.824C321.104 511.56 330.032 517.8 305.648 517.608H0.848022V527.688Z" fill="#F27D26"/>
<path fill-rule="evenodd" clip-rule="evenodd" d="M384.08 262.152C419.12 262.152 454.064 262.152 489.104 262.152C514.16 262.152 531.344 253.992 538.544 232.488C539.984 228.168 540.56 224.808 540.752 221.16V207.336V205.704V204.072V202.344V200.712V199.08V197.448V195.816V194.088V192.456V190.824V189.192V187.56V185.928V184.2V182.568V100.104C540.176 85.608 531.248 73.608 522.416 67.464C508.976 58.248 497.84 59.688 476.24 59.688C487.856 65.352 492.464 62.856 504.368 77.16C512.336 86.664 513.392 99.24 513.392 114.504C513.392 145.416 513.296 176.424 513.392 207.336C513.488 244.968 491.888 237.768 452.24 237.768C437.168 237.768 420.656 237.096 405.776 237.768C392.144 238.344 383.216 247.848 384.08 262.152Z" fill="#F9C646"/>
<path fill-rule="evenodd" clip-rule="evenodd" d="M218.096 202.632V200.904C218.192 180.552 218.096 160.2 218.096 139.848C218.096 120.936 215.408 98.472 223.472 83.016C229.424 71.496 242.96 60.552 261.296 59.88C281.744 59.304 303.056 59.976 323.504 59.88C323.504 49.704 324.368 38.856 321.872 30.792C319.952 24.84 314.096 15.432 309.968 12.072C299.12 2.95201 291.92 0.93601 279.344 0.64801H259.088C267.056 4.58401 280.304 5.73601 288.944 20.424C292.976 27.24 290 34.344 284.816 36.744C280.112 38.952 266.192 37.8 260.24 37.992C231.152 39.048 209.264 57.96 201.2 78.6C190.64 105.576 200.048 158.088 195.536 173.16C189.104 194.664 127.184 160.776 123.824 202.632H218.096Z" fill="#669AF6"/>
<path fill-rule="evenodd" clip-rule="evenodd" d="M158 368.712C161.552 369.864 163.664 371.976 167.792 373.608C171.92 375.24 175.856 376.488 180.272 377.064L178.352 375.432C190.256 372.648 200.048 364.2 205.328 355.944C215.792 339.432 215.984 297.672 203.696 281.832C191.888 266.664 185.456 269.064 176.912 263.208C164.432 266.184 159.248 269.832 151.376 277.704C144.848 284.136 139.28 294.216 138.896 306.408C138.32 331.848 136.688 349.8 155.12 366.312C155.312 366.504 155.984 367.08 156.272 367.272L158 368.712Z" fill="#FECCC1"/>
<path fill-rule="evenodd" clip-rule="evenodd" d="M416.336 436.872C430.16 434.088 440.048 433.704 455.024 434.376C457.712 429 458.96 431.112 463.568 423.24C465.872 419.4 467.984 414.984 469.232 409.992C471.056 401.928 471.056 381.768 470.288 372.84C469.328 361.608 464.432 352.68 458.768 346.344C448.016 334.44 441.2 335.592 434.864 331.752C423.44 332.52 414.896 339.816 408.656 346.248C393.104 362.28 393.776 398.664 399.056 413.448C404.624 429.096 410.288 430.632 416.336 436.872Z" fill="#FECCC1"/>
<path fill-rule="evenodd" clip-rule="evenodd" d="M218.096 203.112C217.712 223.368 217.52 241.224 236.624 254.184C253.136 265.416 274.736 262.152 299.312 262.152C304.88 262.152 310.544 262.152 316.112 262.152C323.984 262.152 326.96 260.712 331.28 265.032L366.512 300.36C369.872 303.432 373.904 306.12 379.472 303.336C383.312 301.512 386.096 295.368 383.6 291.912C378.224 288.552 345.296 253.992 335.696 244.68C327.824 236.904 323.024 237.672 309.776 237.768C272.816 237.768 248.528 243.624 229.136 222.6C221.36 214.056 222.8 210.696 218.096 200.904V202.632V203.112Z" fill="#F9C646"/>
<path fill-rule="evenodd" clip-rule="evenodd" d="M123.632 238.92C123.536 233.16 121.712 232.968 118.544 229.896C108.08 219.816 76.88 186.504 69.584 182.856C55.088 175.848 28.304 189.576 8.52802 161.64C3.24802 154.152 4.01602 149.832 0.848022 142.344V162.696C1.42402 171.72 3.92002 180.168 12.08 188.616C23.792 200.712 32.624 203.112 55.664 203.112C73.808 203.112 67.568 201.864 91.28 225.48C101.36 235.56 116.048 256.2 123.632 238.92Z" fill="#669AF6"/>
<path fill-rule="evenodd" clip-rule="evenodd" d="M147.44 372.744L184.976 437.256L222.608 371.88C219.344 371.208 215.408 369.96 212.816 368.616C198.8 374.76 199.664 376.872 180.272 377.064C175.856 376.488 171.92 375.24 167.792 373.608C163.664 371.976 161.552 369.864 158 368.712L147.44 372.744Z" fill="#DCF4FE"/>
<path fill-rule="evenodd" clip-rule="evenodd" d="M176.912 263.208C185.456 269.064 191.888 266.664 203.696 281.832C215.984 297.672 215.792 339.432 205.328 355.944C200.048 364.2 190.256 372.648 178.352 375.432L180.272 377.064C199.664 376.872 198.8 374.76 212.816 368.616C233.264 352.2 235.568 323.304 230.48 298.248C226.064 276.84 207.44 264.744 187.184 262.44C182.096 261.768 181.52 263.112 176.912 263.208Z" fill="#F9B3A7"/>
<path fill-rule="evenodd" clip-rule="evenodd" d="M434.864 331.752C441.2 335.592 448.016 334.44 458.768 346.344C464.432 352.68 469.328 361.608 470.288 372.84C471.056 381.768 471.056 401.928 469.232 409.992C467.984 414.984 465.872 419.4 463.568 423.24C458.96 431.112 457.712 429 455.024 434.376L470.096 436.968C473.552 432.936 484.208 427.368 488.336 410.088C489.872 403.56 489.872 372.744 488.336 366.312C480.08 331.752 441.584 326.952 434.864 331.752Z" fill="#F9B3A7"/>
<path fill-rule="evenodd" clip-rule="evenodd" d="M260.24 472.872L283.472 472.488C283.472 442.728 285.584 428.52 274.64 408.072C270.512 400.296 264.368 393.384 257.744 388.104C250.64 382.536 242.672 378.984 233.36 376.104C242.96 385.992 252.944 395.112 257.072 414.024C259.952 427.176 256.112 465.48 260.24 472.872Z" fill="#494949"/>
<path fill-rule="evenodd" clip-rule="evenodd" d="M530.288 540.552C538.832 540.168 540.656 537.576 540.752 524.712V521.928C540.656 492.168 540.56 481.032 519.44 459.624C513.872 454.056 501.296 445.608 491.792 444.648C494.192 447.624 496.688 449.256 499.376 452.232C522.32 477.48 516.656 507.336 516.656 540.552H530.288Z" fill="#494949"/>
</svg>
