<svg width="362" height="384" viewBox="0 0 362 384" fill="none" xmlns="http://www.w3.org/2000/svg">
<path fill-rule="evenodd" clip-rule="evenodd" d="M263.368 293.664C259.528 295.392 256.264 298.944 251.368 299.808C244.456 305.568 226.792 307.68 216.232 307.392C204.232 307.104 190.888 303.456 182.056 298.368C179.656 299.712 158.92 299.328 156.424 298.368C156.328 305.664 152.776 304.128 145.576 304.032H112.072C104.392 304.128 100.648 305.76 101.416 297.6C101.224 297.696 100.936 297.696 100.84 297.984C100.168 299.52 93.352 299.04 92.296 299.04C92.2 307.488 91.816 313.248 82.504 313.824C74.824 314.304 64.36 314.88 60.904 309.984C57.832 305.664 58.216 293.28 61.48 289.536C65.608 284.736 75.016 286.176 82.6 286.176L68.872 285.696C68.776 261.984 70.024 258.912 93.832 258.912C110.536 258.912 129.928 257.952 146.344 259.008L142.312 245.472L109.768 245.568C105.64 245.568 102.088 246.24 101.224 242.784C99.496 235.008 112.744 237.408 118.216 237.408C125.8 237.408 133.384 237.408 141.064 237.408L140.872 224.256L140.296 229.44C128.392 229.44 98.344 230.88 88.456 228.96C90.184 231.552 92.104 233.376 92.296 238.272C92.776 253.152 90.76 256.992 68.68 255.36C58.984 254.592 58.792 247.776 59.08 238.272C59.368 227.808 66.088 227.712 75.688 227.616C72.328 224.832 69.544 222.912 68.968 216.192C68.488 210.72 68.872 203.616 68.872 197.952L83.272 197.664C85.192 197.088 84.232 197.472 85.48 196.608C75.592 197.28 62.152 198.912 59.656 190.464C58.792 187.776 58.696 178.56 59.56 175.872C60.808 171.84 63.976 169.536 68.872 169.056V139.392C71.56 139.392 74.344 139.392 77.128 139.488C77.992 139.488 80.2 139.584 80.968 139.488L85.48 138.048C75.304 138.72 61.672 140.544 59.464 131.328C57.064 121.44 58.984 111.744 68.872 110.784C68.872 82.464 68.968 81.408 97.672 81.408H213.928C238.408 81.312 233.896 94.848 233.896 120.384C237.256 120.48 240.904 120.384 240.52 124.896C240.136 128.448 237.544 128.544 233.896 128.544V148.608C194.632 148.608 150.472 149.184 111.304 148.512C110.44 148.512 108.232 148.416 107.464 148.416L102.952 149.952C123.88 148.32 150.568 149.76 172.168 149.76C182.824 149.76 234.28 148.224 239.848 150.816L240.616 154.848C250.216 158.784 255.784 160.608 263.464 165.984L263.368 75.072L209.992 74.88V21.984L49 21.6L48.904 336.768L263.08 336.864L263.368 293.664Z" fill="#E5EBF1"/>
<path fill-rule="evenodd" clip-rule="evenodd" d="M28.744 28.416C29.608 74.496 28.744 121.44 28.744 167.52C28.744 184.992 27.784 331.104 28.936 340.608C29.992 349.92 37.576 356.64 47.464 357.024C77.8 358.368 251.656 355.008 256.264 357.6C268.264 357.6 274.312 356.736 279.88 349.824C285.064 343.584 283.912 332.928 283.912 321.888V316.608L283.72 313.536L264.04 293.184L263.368 293.664L263.08 336.864L48.904 336.768L49 21.6L209.992 21.984V74.88L263.368 75.072L263.464 165.984C267.976 169.152 270.856 171.84 274.408 175.584C276.328 177.504 277.864 178.944 279.496 181.056C281.32 183.264 282.184 184.896 283.912 186.528L282.568 67.776C281.704 66.432 282.472 67.488 281.416 66.432L218.344 66.72C217.576 61.152 217.672 5.66399 218.536 3.45599C215.848 0.767994 210.664 1.05599 207.112 1.05599C182.248 1.24799 48.712 0.191994 43.336 1.53599C36.136 3.35999 31.24 7.96799 29.32 14.88C28.264 18.624 28.072 23.616 28.744 28.416Z" fill="#D1DDF2"/>
<path fill-rule="evenodd" clip-rule="evenodd" d="M256.264 357.6C251.656 355.008 77.8 358.368 47.464 357.024C37.576 356.64 29.992 349.92 28.936 340.608C27.784 331.104 28.744 184.992 28.744 167.52C28.744 121.44 29.608 74.496 28.744 28.416C20.68 28.416 15.688 27.648 10.312 30.816C6.27998 33.216 2.91999 37.44 1.67198 42.624C0.0399849 49.152 1.09598 318.336 1.09598 331.776C1.09598 342.72 -0.632015 363.648 2.63198 371.328C8.19999 384.768 21.16 382.752 32.968 382.752H198.76C210.568 382.752 228.712 383.808 239.752 382.656C245.32 382.08 250.12 378.816 252.808 375.168C255.688 371.136 257.32 365.184 256.264 357.6Z" fill="#B3C3F3"/>
<path fill-rule="evenodd" clip-rule="evenodd" d="M68.872 110.784C77.992 110.784 88.84 108.768 91.72 117.216C92.584 119.808 92.584 127.872 92.008 130.848C91.24 134.688 88.648 136.608 85.48 138.048L80.968 139.488C80.2 139.584 77.992 139.488 77.128 139.488C74.344 139.392 71.56 139.392 68.872 139.392V169.056C78.28 169.056 89.224 167.04 91.72 175.68C92.488 178.08 92.488 186.816 92.008 189.312C91.24 193.248 88.648 195.072 85.48 196.608C84.232 197.472 85.192 197.088 83.272 197.664L68.872 197.952C68.872 203.616 68.488 210.72 68.968 216.192C69.544 222.912 72.328 224.832 75.688 227.616C81.928 227.616 83.08 227.616 88.456 228.96C98.344 230.88 128.392 229.44 140.296 229.44L140.872 224.256L141.832 216.192C134.248 216.192 126.568 216.192 118.888 216.192C113.704 216.192 99.4 218.688 101.32 211.104C102.664 205.92 116.2 208.128 121.192 208.128C128.584 208.128 136.36 207.936 143.752 208.224L145 204.864C146.44 197.376 150.472 193.248 152.776 187.008C142.792 187.2 132.712 187.008 122.728 187.008C118.312 187.008 95.08 189.408 101.992 180.384C104.2 177.504 152.008 178.464 159.208 179.136C165.448 172.032 175.912 162.24 187.336 158.4L187.528 157.728C183.688 157.824 105.64 158.4 103.336 157.344C99.976 155.904 100.648 151.968 102.952 149.952L107.464 148.416C108.232 148.416 110.44 148.512 111.304 148.512C150.472 149.184 194.632 148.608 233.896 148.608V128.544H113.608C109 128.544 101.032 129.984 101.224 124.224C101.32 118.656 110.344 120.384 115.144 120.48L233.896 120.384C233.896 94.848 238.408 81.312 213.928 81.408H97.672C68.968 81.408 68.872 82.464 68.872 110.784Z" fill="#FEFEFE"/>
<path fill-rule="evenodd" clip-rule="evenodd" d="M211.624 238.944C213.928 237.696 226.504 223.776 228.424 221.568C231.208 218.496 233.896 216.192 236.68 213.024C240.808 208.224 246.376 209.856 245.032 215.136C244.456 217.536 224.872 237.024 220.648 241.92C211.048 252.768 211.912 251.424 200.776 238.56L196.072 233.28C192.328 228.288 197.512 218.016 211.624 238.944ZM211.144 190.848C191.944 194.784 175.432 212.544 179.752 236.64C183.304 256.032 202.312 273.024 226.408 268.128C244.936 264.384 261.832 246.048 257.32 222.336C253.672 203.04 235.24 185.952 211.144 190.848Z" fill="#FEFEFE"/>
<path fill-rule="evenodd" clip-rule="evenodd" d="M143.752 208.224L141.832 216.192L140.872 224.256L141.064 237.408L142.312 245.472L146.344 259.008L149.8 266.592C151.528 269.28 153.256 271.872 154.888 274.848C157.576 277.44 157.864 278.784 160.744 281.664C163.048 283.968 164.968 285.888 167.272 288.096C171.496 292.32 176.296 295.008 182.056 298.368C190.888 303.456 204.232 307.104 216.232 307.392C226.792 307.68 244.456 305.568 251.368 299.808C243.88 300.672 238.984 297.792 236.488 292.608C233.416 286.08 237.256 280.32 239.656 276.672C209.416 288.768 178.792 273.504 169.48 245.472C164.392 230.112 168.616 223.296 168.904 214.464C168.616 214.56 166.216 217.344 163.048 218.496C160.072 219.648 156.232 219.744 153.256 218.496C147.208 215.904 146.152 212.448 145 204.864L143.752 208.224Z" fill="#FFCA6E"/>
<path fill-rule="evenodd" clip-rule="evenodd" d="M187.528 157.728L187.336 158.4C188.392 159.456 204.424 160.032 201.64 175.008C201.256 177.12 200.776 177.312 200.104 178.848C198.76 181.728 197.704 179.616 199.816 181.344C224.2 174.816 238.984 178.656 253.96 192.192C267.304 204.192 272.872 221.856 267.784 245.472C271.048 242.976 275.08 237.408 283.816 240.672C289.096 242.688 291.976 247.488 291.976 254.208L293.896 250.464C296.776 239.808 297.352 228.576 295.624 217.44C294.664 210.72 293.32 206.208 291.112 200.64C288.808 194.976 286.408 191.424 283.912 186.528C282.184 184.896 281.32 183.264 279.496 181.056C277.864 178.944 276.328 177.504 274.408 175.584C270.856 171.84 267.976 169.152 263.464 165.984C255.784 160.608 250.216 158.784 240.616 154.848C231.304 152.448 222.952 151.2 212.872 151.968C208.072 152.256 203.272 153.12 199.144 154.176C195.016 155.232 191.272 157.152 187.528 157.728Z" fill="#FFCA6E"/>
<path fill-rule="evenodd" clip-rule="evenodd" d="M211.144 190.848C235.24 185.952 253.672 203.04 257.32 222.336C261.832 246.048 244.936 264.384 226.408 268.128C202.312 273.024 183.304 256.032 179.752 236.64C175.432 212.544 191.944 194.784 211.144 190.848ZM199.816 181.344C196.552 183.744 193.096 184.8 189.544 187.2C172.552 198.72 172.36 210.912 168.904 214.464C168.616 223.296 164.392 230.112 169.48 245.472C178.792 273.504 209.416 288.768 239.656 276.672C254.344 269.76 261.16 260.832 267.784 245.472C272.872 221.856 267.304 204.192 253.96 192.192C238.984 178.656 224.2 174.816 199.816 181.344Z" fill="#E9ECEE"/>
<path fill-rule="evenodd" clip-rule="evenodd" d="M82.6 286.176C90.472 286.848 92.2 291.072 92.296 299.04C93.352 299.04 100.168 299.52 100.84 297.984C100.936 297.696 101.224 297.696 101.416 297.6C107.368 294.144 120.616 295.968 128.776 295.968C133.864 295.968 138.952 295.968 144.04 295.968C149.992 295.968 153.16 294.816 156.424 298.368C158.92 299.328 179.656 299.712 182.056 298.368C176.296 295.008 171.496 292.32 167.272 288.096C164.968 285.888 163.048 283.968 160.744 281.664C157.864 278.784 157.576 277.44 154.888 274.848C145.576 274.56 135.88 274.848 126.568 274.848C120.904 274.848 102.952 277.056 101.416 272.256C98.632 263.904 117.544 266.688 122.728 266.688C131.464 266.688 141.16 267.168 149.8 266.592L146.344 259.008C129.928 257.952 110.536 258.912 93.832 258.912C70.024 258.912 68.776 261.984 68.872 285.696L82.6 286.176Z" fill="#FEFEFE"/>
<path fill-rule="evenodd" clip-rule="evenodd" d="M281.416 66.432C281.128 62.304 270.28 53.184 267.016 49.92L227.464 10.368C224.776 7.67999 222.664 4.12799 218.536 3.45599C217.672 5.66399 217.576 61.152 218.344 66.72L281.416 66.432Z" fill="#B3C3F3"/>
<path fill-rule="evenodd" clip-rule="evenodd" d="M159.208 179.136C157.096 181.056 154.984 184.704 152.776 187.008C150.472 193.248 146.44 197.376 145 204.864C146.152 212.448 147.208 215.904 153.256 218.496C156.232 219.744 160.072 219.648 163.048 218.496C166.216 217.344 168.616 214.56 168.904 214.464C172.36 210.912 172.552 198.72 189.544 187.2C193.096 184.8 196.552 183.744 199.816 181.344C197.704 179.616 198.76 181.728 200.104 178.848C200.776 177.312 201.256 177.12 201.64 175.008C204.424 160.032 188.392 159.456 187.336 158.4C175.912 162.24 165.448 172.032 159.208 179.136Z" fill="#FFE091"/>
<path fill-rule="evenodd" clip-rule="evenodd" d="M267.784 245.472C261.16 260.832 254.344 269.76 239.656 276.672C237.256 280.32 233.416 286.08 236.488 292.608C238.984 297.792 243.88 300.672 251.368 299.808C256.264 298.944 259.528 295.392 263.368 293.664L264.04 293.184C267.496 291.264 270.952 288.192 273.64 285.024C275.272 283.104 276.52 282.528 278.248 280.416C279.592 278.784 280.936 276.96 282.184 275.52C282.664 273.6 281.992 273.888 283.912 272.832C285.928 268.992 292.36 259.008 291.976 254.208C291.976 247.488 289.096 242.688 283.816 240.672C275.08 237.408 271.048 242.976 267.784 245.472Z" fill="#FEA64D"/>
<path fill-rule="evenodd" clip-rule="evenodd" d="M233.896 128.544C237.544 128.544 240.136 128.448 240.52 124.896C240.904 120.384 237.256 120.48 233.896 120.384L115.144 120.48C110.344 120.384 101.32 118.656 101.224 124.224C101.032 129.984 109 128.544 113.608 128.544H233.896Z" fill="#3C3264"/>
<path fill-rule="evenodd" clip-rule="evenodd" d="M187.528 157.728C191.272 157.152 195.016 155.232 199.144 154.176C203.272 153.12 208.072 152.256 212.872 151.968C222.952 151.2 231.304 152.448 240.616 154.848L239.848 150.816C234.28 148.224 182.824 149.76 172.168 149.76C150.568 149.76 123.88 148.32 102.952 149.952C100.648 151.968 99.976 155.904 103.336 157.344C105.64 158.4 183.688 157.824 187.528 157.728Z" fill="#3C3264"/>
<path fill-rule="evenodd" clip-rule="evenodd" d="M264.04 293.184L283.72 313.536L285.448 314.4L303.592 296.064L283.912 276.288L282.184 275.52C280.936 276.96 279.592 278.784 278.248 280.416C276.52 282.528 275.272 283.104 273.64 285.024C270.952 288.192 267.496 291.264 264.04 293.184Z" fill="#F0824B"/>
<path fill-rule="evenodd" clip-rule="evenodd" d="M73.192 294.24L84.04 294.528L84.136 299.04L83.752 304.224L68.008 305.28C67.912 305.184 67.816 304.896 67.816 304.8L67.24 302.88C67.144 302.304 67.144 300.48 67.144 299.904C67.144 298.08 67.144 296.544 67.432 294.528L73.192 294.24ZM92.296 299.04C92.2 291.072 90.472 286.848 82.6 286.176C75.016 286.176 65.608 284.736 61.48 289.536C58.216 293.28 57.832 305.664 60.904 309.984C64.36 314.88 74.824 314.304 82.504 313.824C91.816 313.248 92.2 307.488 92.296 299.04Z" fill="#3C3264"/>
<path fill-rule="evenodd" clip-rule="evenodd" d="M67.816 119.424C71.656 117.984 79.24 118.368 83.944 119.04L83.752 130.176L67.528 129.888L67.816 119.424ZM85.48 138.048C88.648 136.608 91.24 134.688 92.008 130.848C92.584 127.872 92.584 119.808 91.72 117.216C88.84 108.768 77.992 110.784 68.872 110.784C58.984 111.744 57.064 121.44 59.464 131.328C61.672 140.544 75.304 138.72 85.48 138.048Z" fill="#3C3264"/>
<path fill-rule="evenodd" clip-rule="evenodd" d="M69.544 188.736C66.568 188.256 67.24 188.064 67.144 184.416C67.144 182.208 67.24 179.904 67.528 177.696C71.368 176.736 79.912 176.928 83.944 177.504C84.328 180.576 84.808 185.664 83.464 188.448C81.352 188.928 72.04 189.216 69.544 188.736ZM85.48 196.608C88.648 195.072 91.24 193.248 92.008 189.312C92.488 186.816 92.488 178.08 91.72 175.68C89.224 167.04 78.28 169.056 68.872 169.056C63.976 169.536 60.808 171.84 59.56 175.872C58.696 178.56 58.792 187.776 59.656 190.464C62.152 198.912 75.592 197.28 85.48 196.608Z" fill="#3C3264"/>
<path fill-rule="evenodd" clip-rule="evenodd" d="M83.368 246.912C81.256 247.392 72.04 247.776 69.544 247.296C66.472 246.816 67.144 246.816 67.048 242.976C67.048 240.768 67.144 238.368 67.432 235.776L83.944 235.968C84.136 237.984 84.232 240.096 84.232 242.112L83.368 246.912ZM88.456 228.96C83.08 227.616 81.928 227.616 75.688 227.616C66.088 227.712 59.368 227.808 59.08 238.272C58.792 247.776 58.984 254.592 68.68 255.36C90.76 256.992 92.776 253.152 92.296 238.272C92.104 233.376 90.184 231.552 88.456 228.96Z" fill="#3C3264"/>
<path fill-rule="evenodd" clip-rule="evenodd" d="M303.592 296.064L285.448 314.4C284.776 315.552 284.776 315.648 283.912 316.608V321.888C284.008 322.08 284.2 322.08 284.296 322.368C284.296 322.56 284.584 322.656 284.584 322.752C286.6 325.056 290.056 328.896 292.552 330.24C295.912 326.112 301.576 321.12 305.608 316.992C309.064 313.632 317.224 306.528 319.144 302.88C314.632 297.888 311.272 292.608 303.592 296.064Z" fill="#FD4B54"/>
<path fill-rule="evenodd" clip-rule="evenodd" d="M325.768 363.84C328.264 367.104 333.64 373.536 338.344 372.576C341.8 372 360.52 353.184 361.288 349.728C362.344 344.16 355.432 339.072 352.744 336.384C351.496 339.84 348.616 341.568 346.216 343.968C343.816 346.368 341.896 348.288 339.4 350.784C336.04 354.144 329.32 361.824 325.768 363.84Z" fill="#FE4955"/>
<path fill-rule="evenodd" clip-rule="evenodd" d="M211.624 238.944C197.512 218.016 192.328 228.288 196.072 233.28L200.776 238.56C211.912 251.424 211.048 252.768 220.648 241.92C224.872 237.024 244.456 217.536 245.032 215.136C246.376 209.856 240.808 208.224 236.68 213.024C233.896 216.192 231.208 218.496 228.424 221.568C226.504 223.776 213.928 237.696 211.624 238.944Z" fill="#3AB67D"/>
<path fill-rule="evenodd" clip-rule="evenodd" d="M152.776 187.008C154.984 184.704 157.096 181.056 159.208 179.136C152.008 178.464 104.2 177.504 101.992 180.384C95.08 189.408 118.312 187.008 122.728 187.008C132.712 187.008 142.792 187.2 152.776 187.008Z" fill="#3C3264"/>
<path fill-rule="evenodd" clip-rule="evenodd" d="M297.64 335.616L306.376 344.736L333.352 317.472C331.816 314.88 327.496 310.464 325 309.216C320.872 313.344 301.192 334.176 297.64 335.616Z" fill="#FE4955"/>
<path fill-rule="evenodd" clip-rule="evenodd" d="M311.944 350.016L320.488 358.368C322.6 355.68 345.16 332.928 347.752 331.488L338.824 322.656C336.616 326.592 316.552 345.504 311.944 350.016Z" fill="#FE4955"/>
<path fill-rule="evenodd" clip-rule="evenodd" d="M101.416 297.6C100.648 305.76 104.392 304.128 112.072 304.032H145.576C152.776 304.128 156.328 305.664 156.424 298.368C153.16 294.816 149.992 295.968 144.04 295.968C138.952 295.968 133.864 295.968 128.776 295.968C120.616 295.968 107.368 294.144 101.416 297.6Z" fill="#3C3264"/>
<path fill-rule="evenodd" clip-rule="evenodd" d="M154.888 274.848C153.256 271.872 151.528 269.28 149.8 266.592C141.16 267.168 131.464 266.688 122.728 266.688C117.544 266.688 98.632 263.904 101.416 272.256C102.952 277.056 120.904 274.848 126.568 274.848C135.88 274.848 145.576 274.56 154.888 274.848Z" fill="#3C3264"/>
<path fill-rule="evenodd" clip-rule="evenodd" d="M141.832 216.192L143.752 208.224C136.36 207.936 128.584 208.128 121.192 208.128C116.2 208.128 102.664 205.92 101.32 211.104C99.4 218.688 113.704 216.192 118.888 216.192C126.568 216.192 134.248 216.192 141.832 216.192Z" fill="#3C3264"/>
<path fill-rule="evenodd" clip-rule="evenodd" d="M142.312 245.472L141.064 237.408C133.384 237.408 125.8 237.408 118.216 237.408C112.744 237.408 99.496 235.008 101.224 242.784C102.088 246.24 105.64 245.568 109.768 245.568L142.312 245.472Z" fill="#3C3264"/>
<path fill-rule="evenodd" clip-rule="evenodd" d="M320.488 358.368L325.768 363.84C329.32 361.824 336.04 354.144 339.4 350.784C341.896 348.288 343.816 346.368 346.216 343.968C348.616 341.568 351.496 339.84 352.744 336.384L347.752 331.488C345.16 332.928 322.6 355.68 320.488 358.368Z" fill="#E61F34"/>
<path fill-rule="evenodd" clip-rule="evenodd" d="M292.552 330.24C293.416 332.256 295.624 334.176 297.64 335.616C301.192 334.176 320.872 313.344 325 309.216L319.144 302.88C317.224 306.528 309.064 313.632 305.608 316.992C301.576 321.12 295.912 326.112 292.552 330.24Z" fill="#E61F34"/>
<path fill-rule="evenodd" clip-rule="evenodd" d="M306.376 344.736L311.944 350.016C316.552 345.504 336.616 326.592 338.824 322.656L333.352 317.472L306.376 344.736Z" fill="#E61F34"/>
<path fill-rule="evenodd" clip-rule="evenodd" d="M83.464 188.448C84.808 185.664 84.328 180.576 83.944 177.504C79.912 176.928 71.368 176.736 67.528 177.696C67.24 179.904 67.144 182.208 67.144 184.416C67.24 188.064 66.568 188.256 69.544 188.736C72.04 189.216 81.352 188.928 83.464 188.448Z" fill="#FDFDFD"/>
<path fill-rule="evenodd" clip-rule="evenodd" d="M83.368 246.912L84.232 242.112C84.232 240.096 84.136 237.984 83.944 235.968L67.432 235.776C67.144 238.368 67.048 240.768 67.048 242.976C67.144 246.816 66.472 246.816 69.544 247.296C72.04 247.776 81.256 247.392 83.368 246.912Z" fill="#E5EBF1"/>
<path fill-rule="evenodd" clip-rule="evenodd" d="M67.816 119.424L67.528 129.888L83.752 130.176L83.944 119.04C79.24 118.368 71.656 117.984 67.816 119.424Z" fill="#FDFDFD"/>
<path fill-rule="evenodd" clip-rule="evenodd" d="M84.136 299.04C81.064 298.944 77.704 298.56 75.112 296.544L73.192 294.24L67.432 294.528C67.144 296.544 67.144 298.08 67.144 299.904C67.144 300.48 67.144 302.304 67.24 302.88L67.816 304.8C67.816 304.896 67.912 305.184 68.008 305.28L83.752 304.224L84.136 299.04Z" fill="#E5EBF1"/>
<path fill-rule="evenodd" clip-rule="evenodd" d="M84.136 299.04L84.04 294.528L73.192 294.24L75.112 296.544C77.704 298.56 81.064 298.944 84.136 299.04Z" fill="#FEFEFE"/>
<path fill-rule="evenodd" clip-rule="evenodd" d="M282.184 275.52L283.912 276.288V272.832C281.992 273.888 282.664 273.6 282.184 275.52Z" fill="#D7DAE7"/>
</svg>
