<svg width="445" height="537" viewBox="0 0 445 537" fill="none" xmlns="http://www.w3.org/2000/svg">
<path fill-rule="evenodd" clip-rule="evenodd" d="M258.896 268.6C253.328 279.928 224.336 294.808 198.32 278.776C177.392 265.912 189.008 256.312 195.632 257.272C201.2 258.04 220.016 284.248 245.744 259.768C252.944 252.856 262.544 261.208 258.896 268.6ZM155.984 313.816L204.176 331.192C202.256 328.792 203.312 329.848 207.152 328.312C208.688 327.64 211.088 326.968 212.72 326.392C260.72 309.016 294.416 301.144 294.32 240.28C294.32 220.024 294.32 199.672 294.32 179.32C256.976 179.32 219.632 179.032 182.192 179.032C166.256 179.032 144.752 181.24 131.6 174.52C118.928 167.992 111.632 158.392 108.464 140.824H107.792C107.792 159.256 107.792 177.784 107.792 196.312C107.792 213.304 106.544 235.384 107.888 251.8C110.288 282.808 130.064 306.136 155.984 313.816Z" fill="#FCCEA4"/>
<path fill-rule="evenodd" clip-rule="evenodd" d="M107.792 105.016H294.8C298.352 92.056 309.392 78.136 309.392 63.16C309.392 28.12 273.104 24.376 244.688 16.312C237.2 14.2 206.672 6.136 202.256 3.448C194.768 5.08 187.664 7.576 180.944 9.496L115.472 28.888C103.664 34.168 93.008 46.264 93.008 63.16C93.008 78.52 105.104 93.688 107.792 105.016Z" fill="#334DB3"/>
<path fill-rule="evenodd" clip-rule="evenodd" d="M57.2 535.768V536.92H388.784V535.768H358.256C348.08 502.744 327.92 475.864 300.08 457.816C282.416 446.296 261.68 438.04 239.408 435.928C239.408 467.416 237.488 505.24 241.232 535.768H204.656C208.208 504.568 206.384 467.896 206.384 435.928C147.056 442.168 102.704 485.848 87.632 535.768H57.2Z" fill="#D5F1FD"/>
<path fill-rule="evenodd" clip-rule="evenodd" d="M203.12 402.808C183.632 405.592 168.752 409.624 152.144 416.728C128.816 426.808 124.208 434.104 111.92 441.208C110.48 452.056 108.176 461.56 102.128 468.376C94.832 476.536 91.568 477.208 77.648 479.512C71.984 488.728 65.936 498.808 61.712 509.848L53.072 535.576L57.2 535.768H87.632C102.704 485.848 147.056 442.168 206.384 435.928C206.384 467.896 208.208 504.568 204.656 535.768H241.232C237.488 505.24 239.408 467.416 239.408 435.928C261.68 438.04 282.416 446.296 300.08 457.816C327.92 475.864 348.08 502.744 358.256 535.768H388.784L392.336 535.864L384.368 509.56C382.256 506.2 371.6 482.488 368.24 479.896C365.456 477.784 339.056 482.488 334.16 441.496C331.568 440.152 327.536 436.792 324.464 434.488C297.104 413.752 274.544 410.296 243.44 402.712C228.752 402.52 218.192 401.656 203.12 402.808Z" fill="#8986A6"/>
<path fill-rule="evenodd" clip-rule="evenodd" d="M246.8 392.056L243.44 402.712C274.544 410.296 297.104 413.752 324.464 434.488C327.536 436.792 331.568 440.152 334.16 441.496C334.448 425.752 335.312 414.904 353.84 418.84C385.232 425.56 415.76 465.208 415.28 489.88C415.376 489.304 415.664 487.672 415.664 487.576L416.432 485.272C416.528 485.08 416.624 484.696 416.816 484.504L444.656 536.92C445.712 534.136 435.824 479.032 434.384 470.296C430.064 444.472 429.104 426.232 417.008 407.992C399.248 381.112 375.056 376.024 344.336 362.296C334.736 357.976 325.232 354.712 316.208 350.392L246.8 392.056Z" fill="#D5F1FD"/>
<path fill-rule="evenodd" clip-rule="evenodd" d="M0.848 536.248C1.04 536.056 1.328 535.48 1.424 535.672L30.224 484.216L31.088 491.608C28.4 472.408 49.52 445.048 62.096 434.584C69.392 428.536 79.184 422.2 90.608 419.224C110.288 414.04 111.056 424.984 111.92 441.208C124.208 434.104 128.816 426.808 152.144 416.728C168.752 409.624 183.632 405.592 203.12 402.808L199.088 392.248L131.312 351.928C128.912 350.008 130.928 351.64 129.584 350.392L102.608 361.912C93.296 366.04 84.464 369.784 74.672 373.912C22.928 395.512 20.24 419.512 12.08 468.472L0.848 536.248Z" fill="#D5F1FD"/>
<path fill-rule="evenodd" clip-rule="evenodd" d="M108.464 140.824C111.632 158.392 118.928 167.992 131.6 174.52C144.752 181.24 166.256 179.032 182.192 179.032C219.632 179.032 256.976 179.32 294.32 179.32C295.376 179.32 296.432 179.416 297.488 179.128C300.752 178.36 298.736 178.84 299.888 178.168L261.296 177.4C268.4 179.224 282.032 167.512 284.432 164.344C290 156.76 293.744 149.56 294.224 137.176H108.08L108.464 140.824Z" fill="#344DB3"/>
<path fill-rule="evenodd" clip-rule="evenodd" d="M299.888 178.168C298.736 178.84 300.752 178.36 297.488 179.128C296.432 179.416 295.376 179.32 294.32 179.32C294.32 199.672 294.32 220.024 294.32 240.28C294.416 301.144 260.72 309.016 212.72 326.392C211.088 326.968 208.688 327.64 207.152 328.312C203.312 329.848 202.256 328.792 204.176 331.192C209.072 333.592 217.232 332.344 221.936 335.128C223.184 336.376 221.936 335.224 223.856 336.088C226.064 333.784 222.224 335.32 227.888 333.88C229.328 333.496 234.416 333.496 241.904 331.384C251.888 328.6 277.904 317.848 290.192 313.816C315.728 306.52 337.136 280.408 337.424 254.008C337.712 217.912 337.328 181.624 337.328 145.528L336.56 147.064C334.736 151.576 334.736 153.688 331.856 158.392C325.904 168.088 311.792 179.992 299.888 178.168Z" fill="#FDC490"/>
<path fill-rule="evenodd" clip-rule="evenodd" d="M107.792 135.448H294.224L294.8 105.016H107.792V135.448Z" fill="#FFBE00"/>
<path fill-rule="evenodd" clip-rule="evenodd" d="M202.256 3.448C206.672 6.136 237.2 14.2 244.688 16.312C273.104 24.376 309.392 28.12 309.392 63.16C309.392 78.136 298.352 92.056 294.8 105.016H337.328L347.984 82.168C351.824 72.856 354.896 67.096 351.824 53.944C346.448 31.576 328.112 28.12 313.136 23.416C295.568 18.04 278.384 13.144 260.432 7.96C251.024 5.272 239.6 1.624 228.464 0.279999H212.336C208.784 0.855999 205.328 1.816 202.256 3.448Z" fill="#1C37A6"/>
<path fill-rule="evenodd" clip-rule="evenodd" d="M334.16 441.496C339.056 482.488 365.456 477.784 368.24 479.896C371.6 482.488 382.256 506.2 384.368 509.56C400.688 514.84 412.976 503.608 415.28 489.88C415.76 465.208 385.232 425.56 353.84 418.84C335.312 414.904 334.448 425.752 334.16 441.496Z" fill="#FCCEA4"/>
<path fill-rule="evenodd" clip-rule="evenodd" d="M31.088 491.608C34.256 505.912 45.104 512.632 61.712 509.848C65.936 498.808 71.984 488.728 77.648 479.512C91.568 477.208 94.832 476.536 102.128 468.376C108.176 461.56 110.48 452.056 111.92 441.208C111.056 424.984 110.288 414.04 90.608 419.224C79.184 422.2 69.392 428.536 62.096 434.584C49.52 445.048 28.4 472.408 31.088 491.608Z" fill="#FCCEA4"/>
<path fill-rule="evenodd" clip-rule="evenodd" d="M129.584 350.392C130.928 351.64 128.912 350.008 131.312 351.928L199.088 392.248L221.936 335.128C217.232 332.344 209.072 333.592 204.176 331.192L155.984 313.816C151.568 319.864 147.248 325.432 142.832 331.96C138.224 338.488 134 343.768 129.584 350.392Z" fill="#9EE3FF"/>
<path fill-rule="evenodd" clip-rule="evenodd" d="M223.856 336.088L246.8 392.056L316.208 350.392C314.96 348.088 311.792 343.864 309.776 341.176C307.28 337.912 305.744 335.512 303.248 332.056C298.448 325.72 294.608 319.96 290.192 313.816C277.904 317.848 251.888 328.6 241.904 331.384C234.416 333.496 229.328 333.496 227.888 333.88C222.224 335.32 226.064 333.784 223.856 336.088Z" fill="#9EE3FF"/>
<path fill-rule="evenodd" clip-rule="evenodd" d="M199.088 392.248L203.12 402.808C218.192 401.656 228.752 402.52 243.44 402.712L246.8 392.056L223.856 336.088C221.936 335.224 223.184 336.376 221.936 335.128L199.088 392.248Z" fill="#FFBE00"/>
<path fill-rule="evenodd" clip-rule="evenodd" d="M299.888 178.168C311.792 179.992 325.904 168.088 331.856 158.392C334.736 153.688 334.736 151.576 336.56 147.064L337.328 145.528L337.808 138.616L332.144 137.272C330.8 137.176 328.4 137.272 326.864 137.272L294.224 137.176C293.744 149.56 290 156.76 284.432 164.344C282.032 167.512 268.4 179.224 261.296 177.4L299.888 178.168Z" fill="#1C37A6"/>
<path fill-rule="evenodd" clip-rule="evenodd" d="M107.792 135.448V140.824H108.464L108.08 137.176H294.224L326.864 137.272C328.4 137.272 330.8 137.176 332.144 137.272L337.808 138.616C338.096 137.368 337.328 110.872 337.328 105.016H294.8L294.224 135.448H107.792Z" fill="#F0B300"/>
<path fill-rule="evenodd" clip-rule="evenodd" d="M0.848 536.248C1.52 536.536 2.672 536.728 4.112 536.92H57.2V535.768L53.072 535.576L61.712 509.848C45.104 512.632 34.256 505.912 31.088 491.608L30.224 484.216L1.424 535.672C1.328 535.48 1.04 536.056 0.848 536.248Z" fill="#9EE3FF"/>
<path fill-rule="evenodd" clip-rule="evenodd" d="M415.28 489.88C412.976 503.608 400.688 514.84 384.368 509.56L392.336 535.864L388.784 535.768V536.92H444.656L416.816 484.504C416.624 484.696 416.528 485.08 416.432 485.272L415.664 487.576C415.664 487.672 415.376 489.304 415.28 489.88Z" fill="#9EE3FF"/>
<path fill-rule="evenodd" clip-rule="evenodd" d="M258.896 268.6C262.544 261.208 252.944 252.856 245.744 259.768C220.016 284.248 201.2 258.04 195.632 257.272C189.008 256.312 177.392 265.912 198.32 278.776C224.336 294.808 253.328 279.928 258.896 268.6Z" fill="#DD9962"/>
</svg>
