<svg width="512" height="521" viewBox="0 0 512 521" fill="none" xmlns="http://www.w3.org/2000/svg">
<path fill-rule="evenodd" clip-rule="evenodd" d="M85.496 330.776L85.208 466.232V467.096C87.896 468.44 89.816 470.648 92.408 472.568C95.192 474.584 97.88 476.504 100.664 478.328C105.752 481.592 112.952 485.528 119.288 487.544V469.112C129.848 465.944 142.232 460.184 152.888 455.96C167.288 450.104 176.6 452.12 195.992 452.12C215.288 452.12 224.6 450.104 239 455.96C249.656 460.184 262.04 465.944 272.6 469.112V494.744H306.68L306.392 330.776C304.664 329.816 275.96 323.384 272.696 323.384L272.024 418.04H119.384L119.192 323.384C115.928 323.384 87.224 329.816 85.496 330.776Z" fill="#FEDA7F"/>
<path fill-rule="evenodd" clip-rule="evenodd" d="M119.192 323.384L119.384 418.04H272.024L272.696 323.384C269.72 322.04 242.744 315.992 238.424 315.896C237.56 338.456 219.032 356.504 195.992 356.504C172.856 356.504 154.232 338.36 153.464 315.896C150.104 315.992 121.496 322.328 119.192 323.384Z" fill="#FAB03A"/>
<path fill-rule="evenodd" clip-rule="evenodd" d="M127.832 222.2C128.12 246.968 136.568 261.176 153.368 275.768C159.128 278.744 163.256 282.68 171.608 285.944C179.096 288.824 187.448 290.36 195.992 290.36C218.168 290.36 224.792 282.872 238.52 275.768C255.128 261.08 263.768 247.352 264.056 222.2V188.12H127.832V222.2Z" fill="#FEDFD2"/>
<path fill-rule="evenodd" clip-rule="evenodd" d="M306.68 494.744L380.024 494.36L370.04 446.168C366.68 429.272 363.128 413.624 359.768 396.92C355.256 374.168 351.8 350.072 329.048 338.264C323.192 335.192 314.648 331.448 306.392 330.776L306.68 494.744Z" fill="#FAB03A"/>
<path fill-rule="evenodd" clip-rule="evenodd" d="M85.304 511.736L85.208 467.096V466.232C72.344 458.648 57.56 430.232 53.144 411.992C46.328 383.96 51.512 364.184 60.728 340.376C49.016 343.64 39.704 362.648 36.92 373.976L6.29598 488.12C5.33598 491.672 4.27998 495.512 3.12798 499.832C2.16798 503.192 0.439978 507.416 0.151978 511.736H85.304Z" fill="#9B6621"/>
<path fill-rule="evenodd" clip-rule="evenodd" d="M377.048 228.632L439.16 153.56C445.88 145.976 453.176 136.664 459.416 128.696C448.184 120.152 387.032 94.712 375.224 85.88C392.12 63.32 415.064 35.576 433.4 12.632C436.568 8.59998 439.448 5.52798 441.848 1.97598C438.584 2.74398 430.52 9.36798 427.064 11.768L383.096 43.256C379.16 45.848 327.608 83.864 323.672 84.92V87.032C327.992 88.088 365.912 109.112 369.656 111.32C373.4 113.624 411.992 135.032 416.216 135.992C416.12 141.56 408.824 154.424 406.328 160.184L377.048 228.632Z" fill="#F9CF23"/>
<path fill-rule="evenodd" clip-rule="evenodd" d="M377.048 228.632C380.216 227.672 390.584 218.264 393.752 215.672C396.632 213.368 399.032 211.544 402.104 209.144L444.248 174.68C459.32 161.912 480.632 146.072 494.744 133.688C497.528 131.288 500.024 129.368 503.096 127.064C509.24 122.168 509.912 123.032 510.968 119C506.168 118.616 504.056 116.888 499.64 115.448L418.424 85.976C418.52 80.792 422.456 70.424 424.088 65.144C426.392 57.464 428.216 51.32 430.424 43.832C432.632 36.44 434.456 30.392 436.568 23.384C438.584 16.76 441.272 8.69599 442.904 1.97599C441.464 0.247994 443.096 1.11199 441.848 1.97599C439.448 5.52799 436.568 8.59999 433.4 12.632C415.064 35.576 392.12 63.32 375.224 85.88C387.032 94.712 448.184 120.152 459.416 128.696C453.176 136.664 445.88 145.976 439.16 153.56L377.048 228.632Z" fill="#FAB03A"/>
<path fill-rule="evenodd" clip-rule="evenodd" d="M119.288 487.544V487.928C147.896 496.184 162.296 494.744 192.728 494.744C219.32 494.744 246.008 494.84 272.6 494.744V469.112C262.04 465.944 249.656 460.184 239 455.96C224.6 450.104 215.288 452.12 195.992 452.12C176.6 452.12 167.288 450.104 152.888 455.96C142.232 460.184 129.848 465.944 119.288 469.112V487.544Z" fill="#1860B5"/>
<path fill-rule="evenodd" clip-rule="evenodd" d="M148.472 102.008C150.296 107.48 156.248 109.016 159.032 115.256L148.376 125.624C141.848 122.84 140.6 116.408 134.168 114.104C130.904 117.848 127.352 122.744 124.952 127.832C122.168 133.976 121.208 138.584 119.288 145.208C128.408 146.456 233.144 145.592 253.4 145.592C256.664 145.592 259.832 145.592 263 145.688C271.352 145.784 271.16 145.976 271.928 143.48C270.872 137.528 268.952 131.672 266.552 127.16C265.496 125.144 263.864 122.456 262.52 120.536C260.696 117.944 259.736 117.368 257.72 114.296C252.536 116.024 248.6 121.784 244.856 125.528L232.856 113.912C236.504 110.168 240.632 107.192 242.744 103.064C234.392 97.4 222.872 94.52 208.568 94.52L204.536 111.512H187.256L183.32 94.52C174.392 94.52 171.032 94.232 163.544 96.152C157.112 97.88 153.464 100.568 148.472 102.008Z" fill="#F9CF23"/>
<path fill-rule="evenodd" clip-rule="evenodd" d="M110.84 179.672H127.832H264.056H281.048V154.136H272.6H119.288H110.84V179.672Z" fill="#F8CF22"/>
<path fill-rule="evenodd" clip-rule="evenodd" d="M153.464 315.896C154.232 338.36 172.856 356.504 195.992 356.504C219.032 356.504 237.56 338.456 238.424 315.896L238.52 298.808H153.368L153.464 315.896Z" fill="#FEDFD2"/>
<path fill-rule="evenodd" clip-rule="evenodd" d="M60.728 340.376C51.512 364.184 46.328 383.96 53.144 411.992C57.56 430.232 72.344 458.648 85.208 466.232L85.496 330.776C77.816 331.352 64.28 335.768 60.728 340.376Z" fill="#FAB03A"/>
<path fill-rule="evenodd" clip-rule="evenodd" d="M476.888 384.056H468.44H459.896V401.048C453.272 404.216 438.296 403.448 422.936 421.592C413.528 432.728 408.536 444.344 408.728 464.984C408.92 486.584 426.584 508.472 444.344 515.576C451.928 518.648 458.168 520.28 468.44 520.28V503.192C416.6 502.04 411.896 428.984 459.128 419.384C467.864 417.656 475.64 419.672 476.888 410.552C477.656 404.216 476.888 391.16 476.888 384.056Z" fill="#808080"/>
<path fill-rule="evenodd" clip-rule="evenodd" d="M468.44 384.056H476.888L486.872 380.12C491.384 378.008 491.768 377.72 495.32 374.744C515.864 358.232 510.968 335.672 510.968 307.352H493.976H476.888H468.44V384.056Z" fill="#FAB03A"/>
<path fill-rule="evenodd" clip-rule="evenodd" d="M459.896 384.056H468.44V307.352H459.896H442.904H425.816C425.816 324.632 423.512 346.904 429.368 359.192C435.512 372.344 444.632 378.392 456.92 382.712L459.128 383.672C459.32 383.768 459.704 383.864 459.896 384.056Z" fill="#F9CF23"/>
<path fill-rule="evenodd" clip-rule="evenodd" d="M119.288 511.736H272.6V494.744C246.008 494.84 219.32 494.744 192.728 494.744C162.296 494.744 147.896 496.184 119.288 487.928V511.736Z" fill="#114996"/>
<path fill-rule="evenodd" clip-rule="evenodd" d="M306.68 511.736H383.288C383.096 505.304 380.504 500.408 380.024 494.36L306.68 494.744V511.736Z" fill="#9A6621"/>
<path fill-rule="evenodd" clip-rule="evenodd" d="M119.288 145.208V154.136H272.6L271.928 143.48C271.16 145.976 271.352 145.784 263 145.688C259.832 145.592 256.664 145.592 253.4 145.592C233.144 145.592 128.408 146.456 119.288 145.208Z" fill="#FAB03A"/>
<path fill-rule="evenodd" clip-rule="evenodd" d="M127.832 222.2V188.12V179.672H110.84C100.472 182.072 89.048 193.976 94.808 208.472C96.92 213.944 100.664 217.88 106.136 220.568C111.608 223.256 120.152 222.2 127.832 222.2Z" fill="#E9A496"/>
<path fill-rule="evenodd" clip-rule="evenodd" d="M264.056 188.12V222.2C271.736 222.2 280.28 223.256 285.752 220.568C291.224 217.88 294.968 213.944 297.08 208.472C302.84 193.976 291.416 182.072 281.048 179.672H264.056V188.12Z" fill="#E9A496"/>
<path fill-rule="evenodd" clip-rule="evenodd" d="M127.832 188.12H264.056V179.672H127.832V188.12Z" fill="#EEB8AB"/>
<path fill-rule="evenodd" clip-rule="evenodd" d="M85.304 511.736H119.288V487.928V487.544C112.952 485.528 105.752 481.592 100.664 478.328C97.88 476.504 95.192 474.584 92.408 472.568C89.816 470.648 87.896 468.44 85.208 467.096L85.304 511.736Z" fill="#E5C47A"/>
<path fill-rule="evenodd" clip-rule="evenodd" d="M153.368 298.808H238.52V275.768C224.792 282.872 218.168 290.36 195.992 290.36C187.448 290.36 179.096 288.824 171.608 285.944C163.256 282.68 159.128 278.744 153.368 275.768V298.808Z" fill="#EEB8AB"/>
<path fill-rule="evenodd" clip-rule="evenodd" d="M183.32 94.52L187.256 111.512H204.536L208.568 94.52C209.912 92.12 212.696 80.888 212.984 77.528H178.904C179.192 80.888 181.976 92.12 183.32 94.52Z" fill="#FAB03A"/>
<path fill-rule="evenodd" clip-rule="evenodd" d="M493.976 307.352H510.968V256.28H493.976V307.352Z" fill="#4D4D4D"/>
<path fill-rule="evenodd" clip-rule="evenodd" d="M425.816 307.352H442.904V256.28H425.816V307.352Z" fill="#808080"/>
<path fill-rule="evenodd" clip-rule="evenodd" d="M134.168 114.104C140.6 116.408 141.848 122.84 148.376 125.624L159.032 115.256C156.248 109.016 150.296 107.48 148.472 102.008C144.344 99.8 136.856 92.024 134.168 88.184L121.688 100.088C125.048 105.272 131.096 108.248 134.168 114.104Z" fill="#FAB03A"/>
<path fill-rule="evenodd" clip-rule="evenodd" d="M242.744 103.064C240.632 107.192 236.504 110.168 232.856 113.912L244.856 125.528C248.6 121.784 252.536 116.024 257.72 114.296C259.352 109.304 267.32 104.6 270.488 99.896L257.912 87.896L242.744 103.064Z" fill="#FAB03A"/>
<path fill-rule="evenodd" clip-rule="evenodd" d="M272.6 511.736H306.68V494.744H272.6V511.736Z" fill="#E5C47A"/>
<path fill-rule="evenodd" clip-rule="evenodd" d="M468.44 307.352H476.888V256.28H468.44V307.352Z" fill="#4D4D4D"/>
<path fill-rule="evenodd" clip-rule="evenodd" d="M459.896 307.352H468.44V256.28H459.896V307.352Z" fill="#808080"/>
</svg>
