<svg width="376" height="328" viewBox="0 0 376 328" fill="none" xmlns="http://www.w3.org/2000/svg">
<path fill-rule="evenodd" clip-rule="evenodd" d="M102.56 182.624C100.16 133.856 137.696 94.784 183.584 92.576C232.256 90.176 271.424 128 273.44 173.888C275.648 222.464 238.112 261.248 192.32 263.456C143.84 265.856 104.768 228.224 102.56 182.624ZM0.608002 294.272V69.824V62.432C0.704002 58.592 1.376 55.808 4.064 52.832C11.84 43.904 24.608 46.4 38.624 46.4C40.832 47.456 72.992 47.552 75.008 46.4H126.752C129.152 47.744 140 47.744 142.4 46.4H233.6C236 47.744 246.848 47.744 249.248 46.4H300.992C303.68 47.936 329.984 46.976 335.648 46.976L336.704 47.648C347.36 53.888 347.264 56.48 347.264 71.36V286.592C347.36 301.472 345.824 304.256 334.208 309.152H296.384H79.616H28.352C17.792 309.728 2.336 310.208 0.608002 295.328C0.608002 295.04 0.608002 294.752 0.608002 294.272ZM32.864 105.728C30.464 113.792 17.888 113.792 17.216 102.848C17.024 98.624 16.928 75.2 17.696 72.416C20 64.544 32.768 64.64 33.248 75.68C33.44 79.808 33.632 103.328 32.864 105.728Z" fill="#F86363"/>
<path fill-rule="evenodd" clip-rule="evenodd" d="M171.296 161.408C171.296 119.936 168.032 120.608 188 120.608C207.872 120.608 204.608 120.128 204.608 161.408C246.08 161.408 245.408 158.048 245.408 178.208C245.408 198.176 244.832 194.72 204.608 194.72C204.608 235.04 208.064 235.424 188 235.424C167.936 235.424 171.296 235.52 171.296 194.72C131.168 194.72 130.592 198.176 130.592 178.208C130.592 158.048 130.016 161.408 171.296 161.408ZM102.56 182.624C104.768 228.224 143.84 265.856 192.32 263.456C238.112 261.248 275.648 222.464 273.44 173.888C271.424 128 232.256 90.176 183.584 92.576C137.696 94.784 100.16 133.856 102.56 182.624Z" fill="#F2EFEF"/>
<path fill-rule="evenodd" clip-rule="evenodd" d="M335.648 46.976L336.704 47.648C347.36 53.888 347.264 56.48 347.264 71.36V286.592C347.36 301.472 345.824 304.256 334.208 309.152H347.648C367.136 310.4 373.568 305.792 375.392 294.752V255.104V70.592V67.52C375.392 58.208 374.336 47.648 358.592 46.496C352.16 46.016 344 46.4 337.376 46.4L335.648 46.976Z" fill="#E55C5C"/>
<path fill-rule="evenodd" clip-rule="evenodd" d="M171.296 161.408C130.016 161.408 130.592 158.048 130.592 178.208C130.592 198.176 131.168 194.72 171.296 194.72C171.296 235.52 167.936 235.424 188 235.424C208.064 235.424 204.608 235.04 204.608 194.72C244.832 194.72 245.408 198.176 245.408 178.208C245.408 158.048 246.08 161.408 204.608 161.408C204.608 120.128 207.872 120.608 188 120.608C168.032 120.608 171.296 119.936 171.296 161.408Z" fill="#F86464"/>
<path fill-rule="evenodd" clip-rule="evenodd" d="M126.752 46.4C129.152 47.744 140 47.744 142.4 46.4L142.592 20.096L144.992 17.984L231.2 17.888L233.216 20.192L233.6 46.4C236 47.744 246.848 47.744 249.248 46.4C250.016 40.16 249.824 26.624 249.536 20C248.288 -5.53599 210.752 0.992012 188 0.992012C165.152 0.992012 128.48 -5.43999 126.464 19.328C126.08 25.184 126.08 40.832 126.752 46.4Z" fill="#6C6C6C"/>
<path fill-rule="evenodd" clip-rule="evenodd" d="M79.616 309.152H28.352C28.352 328.928 28.256 327.584 53.984 327.584C60.032 327.584 70.592 328.352 74.912 326.528C80.96 323.936 79.616 317.216 79.616 309.152Z" fill="#E94E4E"/>
<path fill-rule="evenodd" clip-rule="evenodd" d="M347.648 309.152H334.208H296.384C296.384 328.928 295.712 327.584 322.016 327.584C347.84 327.584 347.648 328.928 347.648 309.152Z" fill="#E94E4E"/>
<path fill-rule="evenodd" clip-rule="evenodd" d="M32.864 105.728C33.632 103.328 33.44 79.808 33.248 75.68C32.768 64.64 20 64.544 17.696 72.416C16.928 75.2 17.024 98.624 17.216 102.848C17.888 113.792 30.464 113.792 32.864 105.728Z" fill="#FBA1A1"/>
<path fill-rule="evenodd" clip-rule="evenodd" d="M300.992 46.4C303.68 47.936 329.984 46.976 335.648 46.976L337.376 46.4C337.28 40.544 338.528 34.688 334.88 32C331.424 29.504 324.8 30.272 319.04 30.272C303.968 30.272 298.976 29.408 300.992 46.4Z" fill="#6C6C6C"/>
<path fill-rule="evenodd" clip-rule="evenodd" d="M38.624 46.4C40.832 47.456 72.992 47.552 75.008 46.4C77.024 29.408 72.032 30.272 56.96 30.272C51.296 30.272 44.96 29.6 41.504 31.712C37.28 34.4 38.816 39.776 38.624 46.4Z" fill="#6C6C6C"/>
</svg>
