<svg width="555" height="544" viewBox="0 0 555 544" fill="none" xmlns="http://www.w3.org/2000/svg">
<g filter="url(#filter0_dd_11_254)">
<path fill-rule="evenodd" clip-rule="evenodd" d="M293.832 356.016C262.44 319.728 311.4 318.096 304.488 340.272C303.816 342.48 296.712 353.808 293.832 356.016ZM332.904 301.008C303.432 327.12 264.456 314.544 255.24 300.72C251.88 298.128 246.984 293.232 245.832 287.184C263.208 292.176 273.384 297.744 294.888 297.552C316.776 297.264 325.128 291.6 342.504 287.184C337.992 297.936 337.416 295.344 332.904 301.008ZM308.232 204.048C308.52 216.336 308.232 228.72 308.328 240.912C308.328 249.264 308.424 262.32 293.832 262.224C288.168 262.224 284.232 258.96 282.12 255.792C277.896 249.456 279.432 211.824 279.912 203.76L308.232 204.048ZM347.592 208.752C356.136 206.16 358.92 213.936 359.016 221.712C359.112 230.544 359.976 238.704 352.584 241.2C343.272 244.272 340.296 236.112 340.2 228.144C340.104 217.776 338.856 211.248 347.592 208.752ZM229.128 220.656C229.128 213.84 231.528 208.464 238.344 208.272C249.384 208.08 247.848 220.56 247.848 229.2C247.848 246.192 229.128 246.096 229.128 229.2V220.656ZM331.464 191.952L327.72 192.816L329.064 189.936C333.96 171.696 366.984 171.12 370.824 192.432C355.944 191.184 346.056 191.568 331.464 191.952ZM220.008 191.664L217.032 192.912C217.032 192.24 216.264 191.952 217.896 189.264C223.56 172.272 256.392 171.792 259.656 192.432C245.16 191.184 233.352 192.336 220.008 191.664ZM202.632 171.408C198.888 184.848 197.544 220.272 196.104 236.208C191.784 283.152 193.896 282 219.624 315.12L267.336 372.528C289.512 382.32 313.512 378.288 334.056 365.52L339.624 361.488C341.256 360.24 339.72 361.2 341.928 359.856C346.824 356.784 350.472 353.04 355.368 350.832L364.2 344.592L370.344 339.792C372.552 338.16 374.088 336.912 376.392 335.28C405.96 313.968 422.184 296.4 426.312 257.04C426.888 251.184 426.12 245.52 426.12 237.264L420.168 180.144C420.264 174.576 418.632 166.992 418.632 160.56C415.272 165.744 416.232 167.28 411.24 171.696C399.048 182.448 385.992 171.792 372.84 164.976C337.128 146.544 291.624 142.128 252.264 151.344C239.016 154.416 210.024 164.112 202.632 171.408Z" fill="#F6CAA3"/>
<path fill-rule="evenodd" clip-rule="evenodd" d="M303.336 4.07999C312.84 6.38399 325.992 11.472 335.4 14.736C348.456 19.248 356.424 21.552 362.856 31.056C375.048 48.912 373.8 81.168 374.76 105.648C364.104 105.168 351.528 102.672 340.392 101.712C328.008 100.56 315.816 100.176 303.336 99.696V4.07999ZM213.288 105.744C214.248 81.648 213.192 48.72 225 31.344C231.912 21.168 237.288 20.016 251.592 15.216C261.096 11.952 275.496 5.99999 284.616 4.27199L284.808 99.696C259.176 100.272 238.056 103.536 213.288 105.744ZM169.032 162.672C172.776 167.76 174.6 172.752 181.416 175.152C189.96 178.128 196.296 174.096 202.632 171.408C210.024 164.112 239.016 154.416 252.264 151.344C291.624 142.128 337.128 146.544 372.84 164.976C385.992 171.792 399.048 182.448 411.24 171.696C416.232 167.28 415.272 165.744 418.632 160.56L415.08 92.976C411.72 67.824 415.272 51.984 401.736 34.896C389.736 19.728 373.128 18.576 351.624 13.488C343.368 11.568 297.096 0.52799 291.816 1.00799L233.256 13.968C211.944 18.48 195.816 20.688 184.2 36.432C170.568 54.768 174.6 75.024 171.912 95.568C171.336 99.696 170.952 107.952 170.376 112.176L168.36 154.704C168.36 156.912 169.032 159.216 169.032 162.672Z" fill="#527BA3"/>
<path fill-rule="evenodd" clip-rule="evenodd" d="M200.136 351.888L200.232 533.232H236.904V474.288H351.144V533.232H387.72L388.2 534.288V352.944C387.336 351.792 388.584 352.848 386.76 351.6C382.44 348.432 369 344.688 364.2 344.592L355.368 350.832C354.12 378.96 359.592 398.256 345.672 420.816C323.592 457.008 267.336 460.272 242.184 420.528C230.856 402.576 231.912 374.928 232.968 350.832C230.472 348.624 226.824 345.84 223.368 344.688C216.744 344.496 204.648 349.2 200.136 351.888Z" fill="#F66B4F"/>
<path fill-rule="evenodd" clip-rule="evenodd" d="M430.344 443.568L430.248 508.656C442.824 505.872 439.656 493.776 441.48 486.768C445.704 470.064 474.024 467.088 480.36 489.648C481.608 494.256 483.72 514.8 483.72 520.464C494.856 514.512 501.768 503.856 504.744 491.376C506.472 484.08 506.376 476.88 504.552 469.68C501.576 457.872 485.736 437.808 493.992 408.048L507.912 371.856C512.712 359.76 516.84 347.568 523.56 337.392C530.472 326.928 540.552 321.552 546.312 309.936C549 304.464 550.632 297.744 550.92 291.024V286.128C550.632 279.888 549.192 273.744 546.6 268.752C541.512 258.96 531.816 247.92 519.912 245.232C519.912 249.744 520.776 256.848 521.448 261.84C522.792 271.728 525.096 283.248 517.512 290.736C507.624 300.528 487.56 298.416 483.24 281.904C481.992 276.912 481.992 271.344 481.224 265.776C480.84 262.416 479.496 253.296 479.4 249.456C466.536 258.096 454.824 273.264 457.896 294.48C461.352 318.672 482.664 330.672 464.616 375.504L444.936 424.08C442.152 429.648 434.76 440.688 430.344 443.568Z" fill="#CCCCCC"/>
<path fill-rule="evenodd" clip-rule="evenodd" d="M89.256 363.6L95.976 363.408L111.432 363.6H117.768C117.768 328.272 120.168 341.232 142.344 325.2C152.232 318 161.832 306.768 167.112 295.632C168.552 292.656 167.976 292.656 169.896 289.968C164.712 272.592 160.296 264.144 161.832 241.968L161.928 237.84C150.408 236.592 148.776 232.272 142.344 228.24L59.4 228.144C55.272 231.312 52.776 235.536 52.296 243.024C51.336 259.536 58.44 255.312 59.304 265.392C59.4 266.928 59.4 269.136 59.4 270.768C61.224 318.288 86.088 332.496 88.296 341.904C89.832 348.624 88.584 356.496 89.256 363.6Z" fill="#F66B4F"/>
<path fill-rule="evenodd" clip-rule="evenodd" d="M200.232 533.232L200.52 535.344H375.912C390.792 535.536 385.992 535.824 387.72 533.232H351.144V474.288H236.904V533.232H200.232Z" fill="#E5624C"/>
<path fill-rule="evenodd" clip-rule="evenodd" d="M200.52 535.344L200.232 533.232L200.136 351.888C186.504 358.416 173.352 371.856 166.152 385.296C157.704 401.04 157.224 419.568 157.224 443.568V526.896C157.032 535.92 156.744 535.536 165.768 535.44C177.288 535.248 189 535.344 200.52 535.344Z" fill="#527BA3"/>
<path fill-rule="evenodd" clip-rule="evenodd" d="M388.2 534.288H430.344L430.248 508.656L430.344 443.568C430.632 413.424 430.92 397.488 415.848 375.984C410.28 368.016 397.416 354.672 388.2 352.944V534.288Z" fill="#5E86B7"/>
<path fill-rule="evenodd" clip-rule="evenodd" d="M213.288 105.744C238.056 103.536 259.176 100.272 284.808 99.696L284.616 4.272C275.496 6 261.096 11.952 251.592 15.216C237.288 20.016 231.912 21.168 225 31.344C213.192 48.72 214.248 81.648 213.288 105.744Z" fill="#5D85B6"/>
<path fill-rule="evenodd" clip-rule="evenodd" d="M303.336 99.696C315.816 100.176 328.008 100.56 340.392 101.712C351.528 102.672 364.104 105.168 374.76 105.648C373.8 81.168 375.048 48.912 362.856 31.056C356.424 21.552 348.456 19.248 335.4 14.736C325.992 11.472 312.84 6.38399 303.336 4.07999V99.696Z" fill="#5D85B6"/>
<path fill-rule="evenodd" clip-rule="evenodd" d="M167.784 180.144C166.728 190.032 165 200.88 164.424 211.056L162.504 234.48C162.696 237.648 163.272 239.568 161.832 241.968C160.296 264.144 164.712 272.592 169.896 289.968C179.496 305.136 174.024 302.256 192.744 320.688C196.968 324.912 202.728 328.848 207.528 332.496L222.216 343.536C222.408 343.728 222.696 344.016 222.792 344.112C222.984 344.304 223.176 344.496 223.368 344.688C226.824 345.84 230.472 348.624 232.968 350.832C236.712 353.232 244.584 358.32 246.6 361.776C249.48 362.736 252.744 365.52 256.008 367.44C260.424 369.936 261.48 371.472 267.336 372.528L219.624 315.12C193.896 282 191.784 283.152 196.104 236.208C197.544 220.272 198.888 184.848 202.632 171.408C196.296 174.096 189.96 178.128 181.416 175.152C174.6 172.752 172.776 167.76 169.032 162.672C169.032 169.584 168.168 173.328 167.784 180.144Z" fill="#E8BA97"/>
<path fill-rule="evenodd" clip-rule="evenodd" d="M462.312 95.856C462.312 77.04 491.112 73.968 491.112 96.912C491.112 107.472 476.232 114.672 467.304 105.84C465.096 103.536 462.312 99.888 462.312 95.856ZM433.512 77.712C433.512 86.064 438.888 84.912 438.888 96.912C438.888 101.616 426.312 116.112 440.616 123.984C446.664 127.344 448.968 125.52 454.824 126.768C466.536 129.36 461.832 142.8 478.344 142.8C489.48 142.8 489.288 130.512 497.928 127.248C504.648 124.656 519.912 128.976 519.912 110.832C519.912 105.456 515.208 102 514.92 95.76C514.728 88.848 527.688 74.928 513.192 66.384C506.952 62.64 504.744 65.136 498.12 63.216C487.56 60.24 492.744 47.856 475.176 47.856C464.04 47.856 465.288 61.008 455.496 63.408C453.768 63.888 433.512 62.832 433.512 77.712Z" fill="#F66B4F"/>
<path fill-rule="evenodd" clip-rule="evenodd" d="M267.336 372.528C261.48 371.472 260.424 369.936 256.008 367.44C252.744 365.52 249.48 362.736 246.6 361.776C246.6 381.648 244.968 399.696 254.664 414.48C271.272 439.824 312.648 445.2 334.056 413.424C344.328 398.16 339.816 379.44 341.928 359.856C339.72 361.2 341.256 360.24 339.624 361.488L334.056 365.52C313.512 378.288 289.512 382.32 267.336 372.528Z" fill="#E0B394"/>
<path fill-rule="evenodd" clip-rule="evenodd" d="M81.48 363.696L89.256 363.6C88.584 356.496 89.832 348.624 88.296 341.904C86.088 332.496 61.224 318.288 59.4 270.768C59.4 269.136 59.4 266.928 59.304 265.392C58.44 255.312 51.336 259.536 52.296 243.024C52.776 235.536 55.272 231.312 59.4 228.144C46.92 228.144 20.52 225.456 12.552 230.64C7.848 233.808 5.352 238.032 4.68 242.448V247.728C5.736 254.64 10.824 260.592 17.544 261.168C18.12 288.624 30.216 310.128 51.816 326.16C56.52 329.616 59.496 330.48 64.776 333.36C77.544 340.368 75.144 345.648 75.144 363.6L81.48 363.696Z" fill="#E5624C"/>
<path fill-rule="evenodd" clip-rule="evenodd" d="M355.368 350.832C350.472 353.04 346.824 356.784 341.928 359.856C339.816 379.44 344.328 398.16 334.056 413.424C312.648 445.2 271.272 439.824 254.664 414.48C244.968 399.696 246.6 381.648 246.6 361.776C244.584 358.32 236.712 353.232 232.968 350.832C231.912 374.928 230.856 402.576 242.184 420.528C267.336 460.272 323.592 457.008 345.672 420.816C359.592 398.256 354.12 378.96 355.368 350.832Z" fill="#5E86B6"/>
<path fill-rule="evenodd" clip-rule="evenodd" d="M85.8 153.456C93.48 153.456 94.92 153.84 101.832 150.288L109.128 144.816C109.32 144.72 109.512 144.432 109.704 144.336C109.896 144.144 110.088 143.952 110.28 143.76C119.688 133.776 121.32 121.296 114.984 108.24C110.472 98.928 94.056 87.888 87.912 78.768C83.112 81.936 75.24 90.96 70.536 95.568C64.488 101.712 58.92 106.32 57.096 116.208C53.448 135.216 66.984 153.456 85.8 153.456Z" fill="#C0E7F9"/>
<path fill-rule="evenodd" clip-rule="evenodd" d="M102.408 531.12C118.92 527.856 113.544 504.912 113.448 499.152C113.256 484.368 115.08 468.048 112.872 453.84C111.048 441.552 112.872 421.776 112.488 408.336C112.296 400.656 111.336 400.848 111.432 387.12C111.432 379.248 111.432 371.376 111.432 363.6L95.976 363.408C95.784 374.64 91.944 510.864 93.288 518.16C94.824 527.184 98.184 526.8 102.408 531.12Z" fill="#AE7B38"/>
<path fill-rule="evenodd" clip-rule="evenodd" d="M102.408 531.12C98.184 526.8 94.824 527.184 93.288 518.16C91.944 510.864 95.784 374.64 95.976 363.408L89.256 363.6L81.48 363.696C81.48 380.88 80.424 395.472 80.424 411.6C80.424 419.76 80.424 428.016 80.424 436.176C80.52 444.912 79.368 450.96 79.368 460.656C79.368 468.816 79.368 477.072 79.368 485.232C79.464 500.4 74.472 519.216 84.36 528.24C88.2 531.696 97.224 535.92 102.408 531.12Z" fill="#9B6A31"/>
<path fill-rule="evenodd" clip-rule="evenodd" d="M308.232 204.048L279.912 203.76C279.432 211.824 277.896 249.456 282.12 255.792C284.232 258.96 288.168 262.224 293.832 262.224C308.424 262.32 308.328 249.264 308.328 240.912C308.232 228.72 308.52 216.336 308.232 204.048Z" fill="#E0B394"/>
<path fill-rule="evenodd" clip-rule="evenodd" d="M426.12 237.264C439.944 239.568 454.344 221.424 452.52 207.12C451.368 197.904 448.392 193.296 442.92 187.824C436.872 181.776 431.88 180.144 420.168 180.144L426.12 237.264Z" fill="#E0B394"/>
<path fill-rule="evenodd" clip-rule="evenodd" d="M142.344 228.24C148.776 232.272 150.408 236.592 161.928 237.84L161.832 241.968C163.272 239.568 162.696 237.648 162.504 234.48L164.424 211.056C165 200.88 166.728 190.032 167.784 180.144C152.712 180.144 145.32 184.848 139.56 194.352C136.584 199.248 135.528 204.432 135.912 212.112C136.2 219.12 139.56 223.728 142.344 228.24Z" fill="#E0B394"/>
<path fill-rule="evenodd" clip-rule="evenodd" d="M255.24 300.72C269.256 303.888 277.416 307.44 293.832 307.536C310.536 307.536 318.888 303.504 332.904 301.008C337.416 295.344 337.992 297.936 342.504 287.184C325.128 291.6 316.776 297.264 294.888 297.552C273.384 297.744 263.208 292.176 245.832 287.184C246.984 293.232 251.88 298.128 255.24 300.72Z" fill="#F1F1F1"/>
<path fill-rule="evenodd" clip-rule="evenodd" d="M347.592 208.752C338.856 211.248 340.104 217.776 340.2 228.144C340.296 236.112 343.272 244.272 352.584 241.2C359.976 238.704 359.112 230.544 359.016 221.712C358.92 213.936 356.136 206.16 347.592 208.752Z" fill="#4D4D4D"/>
<path fill-rule="evenodd" clip-rule="evenodd" d="M229.128 220.656V229.2C229.128 246.096 247.848 246.192 247.848 229.2C247.848 220.56 249.384 208.08 238.344 208.272C231.528 208.464 229.128 213.84 229.128 220.656Z" fill="#4D4D4D"/>
<path fill-rule="evenodd" clip-rule="evenodd" d="M332.904 301.008C318.888 303.504 310.536 307.536 293.832 307.536C277.416 307.44 269.256 303.888 255.24 300.72C264.456 314.544 303.432 327.12 332.904 301.008Z" fill="#4E4E4E"/>
<path fill-rule="evenodd" clip-rule="evenodd" d="M329.064 189.936L328.776 191.952H331.464C346.056 191.568 355.944 191.184 370.824 192.432C366.984 171.12 333.96 171.696 329.064 189.936Z" fill="#666666"/>
<path fill-rule="evenodd" clip-rule="evenodd" d="M217.896 189.264L217.608 191.664H220.008C233.352 192.336 245.16 191.184 259.656 192.432C256.392 171.792 223.56 172.272 217.896 189.264Z" fill="#666666"/>
<path fill-rule="evenodd" clip-rule="evenodd" d="M293.832 356.016C296.712 353.808 303.816 342.48 304.488 340.272C311.4 318.096 262.44 319.728 293.832 356.016Z" fill="#666666"/>
<path fill-rule="evenodd" clip-rule="evenodd" d="M220.008 191.664H217.608L217.896 189.264C216.264 191.952 217.032 192.24 217.032 192.912L220.008 191.664Z" fill="#AA9683"/>
<path fill-rule="evenodd" clip-rule="evenodd" d="M331.464 191.952H328.776L329.064 189.936L327.72 192.816L331.464 191.952Z" fill="#BCA18B"/>
</g>
<defs>
<filter id="filter0_dd_11_254" x="0.679996" y="0.992798" width="554.24" height="542.478" filterUnits="userSpaceOnUse" color-interpolation-filters="sRGB">
<feFlood flood-opacity="0" result="BackgroundImageFix"/>
<feColorMatrix in="SourceAlpha" type="matrix" values="0 0 0 0 0 0 0 0 0 0 0 0 0 0 0 0 0 0 127 0" result="hardAlpha"/>
<feOffset dy="4"/>
<feGaussianBlur stdDeviation="2"/>
<feComposite in2="hardAlpha" operator="out"/>
<feColorMatrix type="matrix" values="0 0 0 0 0 0 0 0 0 0 0 0 0 0 0 0 0 0 0.25 0"/>
<feBlend mode="normal" in2="BackgroundImageFix" result="effect1_dropShadow_11_254"/>
<feColorMatrix in="SourceAlpha" type="matrix" values="0 0 0 0 0 0 0 0 0 0 0 0 0 0 0 0 0 0 127 0" result="hardAlpha"/>
<feOffset dy="4"/>
<feGaussianBlur stdDeviation="2"/>
<feComposite in2="hardAlpha" operator="out"/>
<feColorMatrix type="matrix" values="0 0 0 0 0 0 0 0 0 0 0 0 0 0 0 0 0 0 0.25 0"/>
<feBlend mode="normal" in2="effect1_dropShadow_11_254" result="effect2_dropShadow_11_254"/>
<feBlend mode="normal" in="SourceGraphic" in2="effect2_dropShadow_11_254" result="shape"/>
</filter>
</defs>
</svg>
