<svg width="499" height="491" viewBox="0 0 499 491" fill="none" xmlns="http://www.w3.org/2000/svg">
<g filter="url(#filter0_d_11_86)">
<path fill-rule="evenodd" clip-rule="evenodd" d="M61.2559 411.136L47.2399 404.608C49.8319 393.28 67.3039 374.944 75.8479 371.392C77.0959 373.888 78.1519 375.136 79.9759 377.728L84.1999 385.024L71.7199 396.544C69.7039 398.656 68.1679 401.056 66.4399 403.648L61.2559 411.136ZM90.5359 363.328C95.4319 360.352 101.96 358.72 108.008 357.856L110.696 373.6L96.2959 378.4L90.5359 363.328ZM411.848 176.512L402.632 182.656C405.128 188.128 403.592 216.352 403.592 225.28L384.776 225.088C380.168 231.232 380.84 229.12 374.504 233.536H396.392L391.208 235.648C385.928 237.856 381.032 241.312 377.48 245.824C362.696 264.448 375.56 302.752 369.992 333.76C367.592 347.392 354.632 356.608 342.152 369.184L310.28 400.576L309.224 401.632L308.168 403.072L302.696 406.72C304.808 408.256 305.864 405.28 298.472 412.672C296.36 414.688 294.824 417.28 292.52 419.104C287.624 423.04 280.712 424.384 272.936 424.384H121.544V407.968H223.112L218.216 406.528C184.616 398.752 177.224 353.824 205.256 335.008C219.176 325.6 245.96 329.632 245.96 299.968H234.536H157.736H149.384H104.84V324.928H165.032H162.824V341.344H103.784H104.936V333.088C97.2559 333.28 82.5679 338.944 76.5199 341.44C63.0799 351.136 57.7999 349.12 39.8479 369.952L30.1519 382.144C25.7359 389.152 21.5119 398.848 18.4399 407.584C14.9839 417.28 13.5439 428.224 13.5439 440.992H57.1279L95.0479 441.184H131.144L169.16 440.992H311.24C334.664 441.184 336.68 431.488 347.816 420.544C350.984 417.376 351.944 416.32 354.728 412.864C356.936 410.08 359.24 407.68 362.12 405.76V449.344H383.912H395.624L410.888 426.784C412.136 423.616 410.888 425.248 413.48 423.616C413.96 420.352 413.96 421.216 416.84 416.896L425.096 404.512C427.4 400.96 427.016 399.808 431.72 399.52L441.704 399.808L489.704 399.52H494.888C494.888 390.208 493.544 385.12 490.76 378.784C482.696 360.544 465.224 349.696 444.968 349.696V357.952C419.816 357.952 397.16 358.624 380.84 383.008C375.368 391.072 375.656 394.624 371.432 403.264L355.112 403.552C359.72 380.896 370.568 366.688 383.528 356.704C401.192 342.976 418.568 341.536 445.064 341.536V316.576C427.4 316.096 413 304.864 407.432 292C401.192 277.6 403.592 253.12 403.592 233.536H436.808V175.456L411.848 176.512Z" fill="#D55145"/>
<path fill-rule="evenodd" clip-rule="evenodd" d="M38.4079 175.36H55.1119V225.28H38.3119L38.4079 175.36ZM13.5439 250.144H146.312V158.752H13.5439V250.144Z" fill="#D55145"/>
<path fill-rule="evenodd" clip-rule="evenodd" d="M179.528 225.28H245.96V208.096C237.992 203.776 216.584 177.28 207.176 170.656C209.576 166.432 215.624 161.44 218.696 158.272C227.912 165.376 236.84 177.952 245.96 184.672C252.296 189.376 254.216 194.368 262.472 198.304C269.192 201.472 281.768 200.32 291.56 200.32C312.296 200.32 333.032 200.32 353.768 200.32V167.104L286.28 167.2C275.336 167.296 276.968 163.648 266.888 152.416C261.8 146.656 233.384 114.688 230.312 109.024H179.528V225.28Z" fill="#D55145"/>
<path fill-rule="evenodd" clip-rule="evenodd" d="M198.152 266.752H234.536H287.432L250.952 361.024C249.32 365.344 247.112 369.664 245.96 374.656H288.488C288.968 368.224 323.72 291.04 328.04 277.312C331.016 267.616 329.768 257.44 326.12 248.8C322.568 240.352 317.48 235.264 310.088 230.56C297.32 222.496 262.664 225.088 245.96 225.28H179.528C179.528 235.456 178.28 245.824 181.928 252.928C184.808 258.592 187.304 261.184 192.68 263.968L198.152 266.752Z" fill="#79432A"/>
<path fill-rule="evenodd" clip-rule="evenodd" d="M21.8 266.752H138.056V283.36C92.744 283.36 108.296 282.88 66.536 275.968L24.584 268.192C21.512 267.04 22.952 267.52 21.8 266.752ZM104.84 299.968H149.384C149.576 299.776 149.96 299.296 150.056 299.488C150.152 299.776 150.632 298.912 151.112 298.528C152.552 296.896 151.592 298.144 152.552 296.8C145.448 287.008 142.376 276.64 154.664 269.248C154.664 258.688 156.584 251.008 146.312 250.144H13.544C-0.760013 251.392 6.15199 275.296 8.26399 278.176C13.64 285.568 27.56 286.528 37.64 288.256L104.84 299.968Z" fill="#D4D4D2"/>
<path fill-rule="evenodd" clip-rule="evenodd" d="M179.528 81.184C198.632 87.808 212.456 79.84 212.744 59.2V42.688H245.96H254.216C254.216 11.104 221.576 -9.44 189.896 5.248C179.144 10.24 168.68 23.584 167.144 37.6C166.376 45.088 168.104 57.376 168.968 63.616C170.312 73.408 173.096 76.288 179.528 81.184Z" fill="#D65246"/>
<path fill-rule="evenodd" clip-rule="evenodd" d="M395.336 181.12L402.632 182.656L411.848 176.512C412.232 150.4 413.288 157.024 393.512 132.544C391.784 130.432 390.632 128.896 388.904 126.784C379.976 115.552 384.872 122.272 386.792 110.848C387.464 107.008 387.464 101.824 386.6 97.984C382.184 77.632 354.44 67.552 338.504 83.296C334.088 87.712 329.864 92.512 329 99.808C326.6 119.68 339.944 134.656 360.104 133.984C366.344 133.792 366.344 132.256 371.432 131.872C394.28 165.856 395.336 149.056 395.336 181.12Z" fill="#D4D4D2"/>
<path fill-rule="evenodd" clip-rule="evenodd" d="M413.768 437.536C411.56 442.336 407.912 446.944 404.84 451.552C402.248 455.488 397.544 461.632 395.816 465.952C421.544 491.488 466.184 488.32 487.112 453.952C494.312 442.048 494.888 433.984 494.888 415.648L459.368 416.128L459.56 418.24C461.864 423.616 460.328 431.008 457.832 436.096C454.856 441.856 451.976 444.256 445.928 447.136C427.592 455.776 416.84 440.128 413.768 437.536Z" fill="#344F7B"/>
<path fill-rule="evenodd" clip-rule="evenodd" d="M169.16 440.992L131.144 441.184C124.904 451.456 101.48 451.456 95.0479 441.184L57.1279 440.992C58.3759 443.68 58.9519 446.656 60.1999 449.344C79.8799 491.776 142.952 495.328 165.704 450.016C167.336 446.848 167.72 443.968 169.16 440.992Z" fill="#344F7B"/>
<path fill-rule="evenodd" clip-rule="evenodd" d="M13.544 142.336H146.312C146.312 128.224 146.408 117.184 125.576 117.28C96.104 117.568 63.7519 117.568 34.28 117.28C13.448 117.184 13.544 128.224 13.544 142.336Z" fill="#D55145"/>
<path fill-rule="evenodd" clip-rule="evenodd" d="M154.664 269.248C142.376 276.64 145.448 287.008 152.552 296.8L157.736 299.968H234.536C237.224 297.568 239.432 297.472 242.216 294.112C247.304 287.968 247.4 279.52 242.6 273.088C239.144 268.384 238.472 270.208 234.536 266.752H198.152C190.568 266.656 182.984 266.752 175.4 266.752C167.144 266.752 159.56 265.312 154.664 269.248Z" fill="#344F7B"/>
<path fill-rule="evenodd" clip-rule="evenodd" d="M245.96 407.872L223.112 407.968H121.544V424.384H272.936C280.712 424.384 287.624 423.04 292.52 419.104C294.824 417.28 296.36 414.688 298.472 412.672C305.864 405.28 304.808 408.256 302.696 406.72C289.16 409.408 261.224 407.872 245.96 407.872Z" fill="#C7483C"/>
<path fill-rule="evenodd" clip-rule="evenodd" d="M179.528 81.184V109.024H230.312C236.648 108.832 240.104 105.76 242.984 102.016C247.016 96.736 245.96 92.608 245.96 84.16C252.296 82.624 256.136 78.4 262.472 76.864C261.704 73.312 253.64 61.12 251.144 59.104L212.744 59.2C212.456 79.84 198.632 87.808 179.528 81.184Z" fill="#FBC7A1"/>
<path fill-rule="evenodd" clip-rule="evenodd" d="M13.5439 158.752H146.312V142.336H13.5439V158.752Z" fill="#C7483C"/>
<path fill-rule="evenodd" clip-rule="evenodd" d="M245.96 407.872C261.224 407.872 289.16 409.408 302.696 406.72L308.168 403.072C308.168 401.248 307.688 401.632 309.224 401.632L310.28 400.576C311.336 395.968 312.68 396.832 312.392 390.208C312.2 385.6 310.76 383.2 308.456 380.608C302.696 374.08 299.72 374.656 288.488 374.656H245.96V407.872Z" fill="#D4D4D2"/>
<path fill-rule="evenodd" clip-rule="evenodd" d="M353.768 200.32C355.976 202.144 356.84 202.72 360.008 203.488C368.168 200.608 373.352 197.92 380.936 204.256C386.024 208.48 388.808 217.12 384.776 225.088L403.592 225.28C403.592 216.352 405.128 188.128 402.632 182.656L395.336 181.12C391.592 178.336 380.456 175.552 375.176 173.728C369.8 171.904 358.856 167.584 353.768 167.104V200.32Z" fill="#FCC8A2"/>
<path fill-rule="evenodd" clip-rule="evenodd" d="M444.968 349.696L445.064 341.536C418.568 341.536 401.192 342.976 383.528 356.704C370.568 366.688 359.72 380.896 355.112 403.552L371.432 403.264C375.656 394.624 375.368 391.072 380.84 383.008C397.16 358.624 419.816 357.952 444.968 357.952V349.696Z" fill="#C7483C"/>
<path fill-rule="evenodd" clip-rule="evenodd" d="M413.48 423.616C417.32 427.264 419.528 430.912 423.176 434.944C426.92 438.88 430.088 441.76 437.672 440.992C449.672 439.744 453.8 429.184 448.328 415.936C442.76 410.368 437.288 404.992 431.72 399.52C427.016 399.808 427.4 400.96 425.096 404.512L416.84 416.896C413.96 421.216 413.96 420.352 413.48 423.616Z" fill="#D4D4D2"/>
<path fill-rule="evenodd" clip-rule="evenodd" d="M104.936 333.088V341.344H103.784H162.824V324.928H165.032H104.84L104.936 333.088Z" fill="#C7483C"/>
<path fill-rule="evenodd" clip-rule="evenodd" d="M360.008 203.488C358.28 206.08 349.832 213.184 355.112 223.936C359.624 233.248 366.92 233.536 374.504 233.536C380.84 229.12 380.168 231.232 384.776 225.088C388.808 217.12 386.024 208.48 380.936 204.256C373.352 197.92 368.168 200.608 360.008 203.488Z" fill="#34507A"/>
<path fill-rule="evenodd" clip-rule="evenodd" d="M38.312 225.28H55.112V175.36H38.408L38.312 225.28Z" fill="#DF6257"/>
<path fill-rule="evenodd" clip-rule="evenodd" d="M30.152 382.144L39.848 369.952C57.8 349.12 63.08 351.136 76.52 341.44H34.28H30.152V382.144Z" fill="#C7483C"/>
<path fill-rule="evenodd" clip-rule="evenodd" d="M245.96 208.096V184.672C236.84 177.952 227.912 165.376 218.696 158.272C215.624 161.44 209.576 166.432 207.176 170.656C216.584 177.28 237.992 203.776 245.96 208.096Z" fill="#C7483C"/>
<path fill-rule="evenodd" clip-rule="evenodd" d="M66.44 403.648C68.168 401.056 69.704 398.656 71.72 396.544L84.2 385.024L79.976 377.728C78.152 375.136 77.096 373.888 75.848 371.392C67.304 374.944 49.832 393.28 47.24 404.608L61.256 411.136L66.44 403.648Z" fill="#DF6156"/>
<path fill-rule="evenodd" clip-rule="evenodd" d="M459.368 416.128L494.888 415.648C493.064 409.6 492.488 404.8 489.704 399.52L441.704 399.808C451.688 404.896 454.568 405.568 459.368 416.128Z" fill="#2F486E"/>
<path fill-rule="evenodd" clip-rule="evenodd" d="M413.48 423.616C410.888 425.248 412.136 423.616 410.888 426.784L413.768 437.536C416.84 440.128 427.592 455.776 445.928 447.136C451.976 444.256 454.856 441.856 457.832 436.096C460.328 431.008 461.864 423.616 459.56 418.24L457.064 416.704C454.088 415.552 451.976 416.224 448.328 415.936C453.8 429.184 449.672 439.744 437.672 440.992C430.088 441.76 426.92 438.88 423.176 434.944C419.528 430.912 417.32 427.264 413.48 423.616Z" fill="#CECECC"/>
<path fill-rule="evenodd" clip-rule="evenodd" d="M212.744 59.2L251.144 59.104C250.184 55.84 248.84 55.36 247.304 52.672C245.288 49.024 245.96 47.68 245.96 42.688H212.744V59.2Z" fill="#FDB683"/>
<path fill-rule="evenodd" clip-rule="evenodd" d="M383.912 449.344C388.04 457.12 389.864 459.904 395.816 465.952C397.544 461.632 402.248 455.488 404.84 451.552C407.912 446.944 411.56 442.336 413.768 437.536L410.888 426.784L395.624 449.344H383.912Z" fill="#2F486E"/>
<path fill-rule="evenodd" clip-rule="evenodd" d="M96.296 378.4L110.696 373.6L108.008 357.856C101.96 358.72 95.432 360.352 90.536 363.328L96.296 378.4Z" fill="#DF6156"/>
<path fill-rule="evenodd" clip-rule="evenodd" d="M448.328 415.936C451.976 416.224 454.088 415.552 457.064 416.704L459.56 418.24L459.368 416.128C454.568 405.568 451.688 404.896 441.704 399.808L431.72 399.52C437.288 404.992 442.76 410.368 448.328 415.936Z" fill="#C6C6C4"/>
<path fill-rule="evenodd" clip-rule="evenodd" d="M131.144 441.184H95.048C101.48 451.456 124.904 451.456 131.144 441.184Z" fill="#D4D4D2"/>
</g>
<defs>
<filter id="filter0_d_11_86" x="0.733154" y="0.408813" width="498.155" height="490.368" filterUnits="userSpaceOnUse" color-interpolation-filters="sRGB">
<feFlood flood-opacity="0" result="BackgroundImageFix"/>
<feColorMatrix in="SourceAlpha" type="matrix" values="0 0 0 0 0 0 0 0 0 0 0 0 0 0 0 0 0 0 127 0" result="hardAlpha"/>
<feOffset dy="4"/>
<feGaussianBlur stdDeviation="2"/>
<feComposite in2="hardAlpha" operator="out"/>
<feColorMatrix type="matrix" values="0 0 0 0 0 0 0 0 0 0 0 0 0 0 0 0 0 0 0.25 0"/>
<feBlend mode="normal" in2="BackgroundImageFix" result="effect1_dropShadow_11_86"/>
<feBlend mode="normal" in="SourceGraphic" in2="effect1_dropShadow_11_86" result="shape"/>
</filter>
</defs>
</svg>
